<?xml version="1.0" encoding="utf-8"?>
<!DOCTYPE svg PUBLIC "-//W3C//DTD SVG 1.0//EN" "http://www.w3.org/TR/2001/REC-SVG-20010904/DTD/svg10.dtd">
<svg version="1.0" xmlns="http://www.w3.org/2000/svg" width="1024px" height="1024px" viewBox="0 0 1024 1024" preserveAspectRatio="xMidYMid meet">
 <g fill="#f9f6ee">
  <path d="M505.6 269.8 c-0.2 -0.7 -1.3 -5.2 -2.5 -9.9 -4.5 -18.9 -16.5 -40.9 -35.3 -64.6 -4 -5.1 -4.9 -6.9 -4.6 -9.5 0.3 -3 0.6 -3.3 4 -3.6 2.3 -0.2 4.7 0.3 6 1.2 2.8 2 17.7 21.9 24.6 33 9.9 15.8 16.1 33.4 16.5 47.1 l0.2 7 -4.3 0.3 c-2.8 0.2 -4.3 -0.1 -4.6 -1z"/>
 </g>
 <g fill="#fdebbb">
  <path d="M455.5 840.9 c-73.2 -3.8 -142.5 -65.3 -162 -143.9 -4.7 -18.7 -5.8 -29.8 -5.2 -51 0.4 -15.7 1 -21.9 3.1 -31.7 3.8 -17.9 8.7 -32.1 16.6 -47.8 10.2 -20.3 20 -33.5 43.4 -58.5 27.4 -29.2 36.1 -54.1 32.1 -91.7 -1.9 -17.2 -1.6 -30.1 0.9 -41.8 8.5 -39.7 37.8 -70.5 76.1 -80 l9 -2.2 0 -10.4 c0.1 -22 -9 -41 -34.2 -71.2 -5.4 -6.6 -10.7 -13 -11.8 -14.4 -1.5 -1.8 -2 -3.9 -2 -8.3 0 -4.9 0.5 -6.5 3 -10.1 6.1 -8.7 22 -20.3 33.8 -24.8 7.1 -2.6 10.7 -2.7 15.6 -0.2 6.8 3.5 25.8 25.7 38.8 45.3 l6.4 9.8 5.2 -3.9 c18.3 -13.7 44.8 -23.9 67.4 -26 12.3 -1.2 11.8 -1.2 23.9 0 24.3 2.3 44.1 12.3 58.8 29.4 7.6 9 13.2 18.7 20.7 36.1 7 16.3 9.5 20.7 14.7 26.1 10.4 10.7 27 14.9 42.7 10.7 7 -1.8 10.6 -1.3 15 2.1 4.2 3.1 6.4 8 6.6 14.3 0.2 6 -3.1 13.2 -13.9 29.7 -33.7 51.7 -85.6 84.3 -140.5 88.2 l-9 0.6 0.7 8.6 c2.3 31.5 16.3 55.1 46.6 78.3 36.6 28 59.8 64.9 69.1 109.8 16.7 80.5 -25.3 170.2 -98.1 209.3 -22.7 12.2 -48.9 18.6 -76.2 18.7 -11.3 0 -30.2 -2 -38.1 -4.1 -3 -0.8 -5.5 -0.6 -12 1 -16 4 -28 5 -47.2 4z m26.5 -12.3 c5.3 -0.8 13.1 -2.6 17.5 -4 9.8 -3.2 9.9 -3.2 21.5 -0.2 14.5 3.7 25.3 4.7 37.7 3.6 58.2 -5.2 111.7 -44.9 140.3 -104.1 11.7 -24.4 19 -54.1 19 -77.8 0 -15.3 -4.7 -39.9 -10.6 -55.9 -12.2 -32.8 -32 -58.7 -61.9 -81.2 -19.6 -14.7 -28.4 -25 -36.6 -42.4 -6.8 -14.5 -9.8 -30.2 -9.9 -50.4 l0 -12.3 7.8 0.6 c12.9 1.1 35.5 -3.3 52.4 -10.2 36.7 -14.9 70.7 -43.9 92.5 -78.9 8.7 -13.8 10.7 -18.3 9.4 -21.2 -1 -2 -1.6 -2.3 -3.9 -1.8 -22.6 5.1 -40.6 1.4 -54.3 -11.2 -6.8 -6.3 -10.3 -12.1 -18.7 -31.3 -3.8 -8.5 -9 -18.8 -11.6 -22.8 -22.4 -34.7 -62.9 -46.8 -105.6 -31.6 -11.5 4.1 -27.8 13 -38 20.6 -7 5.2 -10 6.9 -12.4 6.9 -3 0 -3.6 -0.6 -8.5 -8.9 -7.5 -12.6 -22.3 -32.1 -32.3 -42.6 l-8.7 -9 -5.8 3 c-11.3 5.8 -27.3 19.3 -27.3 23 0 0.8 2.8 4.5 6.1 8.2 13.2 14.5 27.5 36 33.4 50 5.6 13.5 6.6 18.9 7.2 39 l0.6 18.3 -2.9 0 c-1.6 0 -6.5 0.9 -10.9 1.9 -34 8.3 -59.4 33.1 -70.1 68.6 -2.6 8.5 -2.7 10 -2.5 25.5 0.9 47.7 0.7 56 -1.8 65 -2.8 10.5 -9.6 25.2 -15.5 33.4 -2.4 3.3 -11 13.3 -19.1 22.1 -22.8 24.9 -33.2 39.7 -42.5 60.4 -20.5 45.9 -21 91.7 -1.3 138.4 21.4 50.7 69.7 92.8 121.8 106.1 17.8 4.6 30.3 5.4 45.5 3.2z"/>
  <path d="M650.3 737.2 c-3.9 -2.5 -4.4 -18 -1.3 -41.3 5.1 -38 12.7 -50.8 30.2 -50.9 7 0 10.8 2.7 13.5 9.8 2.8 7.4 2.6 28.3 -0.5 38.1 -5.4 17 -18.4 37.2 -27.5 42.5 -4.4 2.6 -11.7 3.5 -14.4 1.8z"/>
  <path d="M678.9 626.3 c-1.1 -2.7 -2.7 -6.1 -3.5 -7.7 -2.1 -4.3 -1.9 -8.6 0.5 -8.6 2.6 0 6.6 -3.4 5.7 -4.8 -1.2 -2 -3.6 -1.3 -4.8 1.3 -0.9 1.9 -1.9 2.5 -4.5 2.5 l-3.3 0 0 -7.5 c0 -4.9 0.6 -8.7 1.5 -10.5 1.4 -2.7 2 -3 6.4 -3 8.5 0 13.4 5.9 17.2 20.7 1 4.2 1.9 10.2 1.9 13.5 0 5.4 -0.1 5.8 -2.4 5.8 -1.3 0 -2.9 0.7 -3.6 1.5 -0.7 0.9 -2.9 1.5 -5.2 1.5 -3.7 0 -4 -0.2 -5.9 -4.7z"/>
  <path d="M654.7 575.5 c-5.7 -3 -15.8 -7.7 -22.2 -10.5 -18.8 -8 -27.3 -12.9 -33.7 -19.1 -7.1 -6.9 -9.7 -12.4 -9.8 -20.1 0 -4.9 0.3 -5.9 2.6 -7.7 5.7 -4.5 25.2 -1.9 40.9 5.3 17.6 8.1 35.9 25.3 42.5 39.7 2.7 6 2.8 15.4 0.1 16.9 -4.4 2.3 -9.6 1.1 -20.4 -4.5z"/>
 </g>
 <g fill="#ecf1a5">
  <path d="M676 302.1 c-12 -4.7 -22.5 -14.8 -31.7 -30.3 -3.3 -5.7 -8.2 -14 -10.8 -18.4 -10 -17.1 -18.5 -25 -30.3 -28 -7.8 -1.9 -12.1 -1.5 -30.1 3.2 -7.4 2 -16.4 3.8 -20 4.1 -8 0.7 -9.4 -0.4 -8.9 -6.8 0.3 -3.8 0.8 -4.7 4.3 -7.1 5.3 -3.6 19.8 -9.4 29.9 -11.9 11.8 -2.9 28.2 -3.6 38.1 -1.5 9.9 2 22.3 8 29.2 14.1 6.9 6.1 14.9 18.2 22.3 34 7.5 15.9 12.9 24.3 21.4 33.2 6.1 6.5 6.6 7.4 6.6 11.6 0 3.2 -0.5 4.7 -1.6 5.1 -3.1 1.2 -14 0.5 -18.4 -1.3z"/>
 </g>
 <g fill="#ffce4f">
  <path d="M586.2 779.4 c-1.7 -1.1 -2.2 -2.5 -2.2 -5.7 0 -3.6 0.8 -5.2 6.1 -11.7 6.1 -7.6 13.9 -22 13.9 -25.7 0 -1.1 0.4 -3.3 0.9 -4.9 0.5 -1.6 1.2 -4.6 1.5 -6.7 l0.5 -3.8 -6.7 6.2 c-12.8 11.7 -28.3 20.6 -42.8 24.4 -19.8 5.3 -54.5 3.2 -75.4 -4.6 -31.9 -11.9 -61.2 -39.6 -78.7 -74.3 -14 -27.9 -17.6 -58.8 -10.3 -87.6 4 -15.5 10.6 -27.9 27.2 -51 27.5 -38.3 34.9 -52 39.2 -73.2 2.9 -13.8 1.8 -27.3 -3.3 -42.8 -3.9 -11.6 -5.1 -17.8 -5.1 -26.1 0 -25.9 11.2 -46.5 33.5 -61.6 9.2 -6.2 14 -8.3 18.8 -8.3 l4.4 0 1.8 7.3 c8.6 35.6 31.9 62.3 65.7 75.3 5.1 2 9.8 4 10.4 4.5 0.6 0.5 1.4 6.1 1.7 12.6 0.9 18.3 4.4 32.2 11.8 48 2.2 4.5 3.9 9.3 3.9 10.7 0 2.3 -0.4 2.6 -3.5 2.6 -4.5 0 -9.5 -2.1 -15.7 -6.6 -2.8 -1.9 -5.2 -3.3 -5.4 -3.1 -0.2 0.2 2.5 3.3 6.1 6.9 7.3 7.4 15.9 13.3 29 20.4 20.9 11.1 41.6 26.8 53.5 40.5 23.2 26.8 37.3 62.7 38.7 98.4 1.4 34.7 -9.3 74 -27.4 100.6 -8.3 12.3 -36.4 31.7 -53.8 37.2 -11.5 3.7 -34.3 5 -38.3 2.1z m75.5 -47 c9.1 -5.3 22.2 -25.6 27.4 -42.5 3.1 -9.7 3.3 -25 0.6 -32.1 -5.7 -14.8 -20.4 -12.1 -29.3 5.4 -3.4 6.8 -5.9 17.5 -8.4 35.7 -3.4 26.2 -2.4 36 3.9 36.1 0.8 0 3.4 -1.2 5.8 -2.6z m29.4 -102.7 c-1.6 -1.6 -1.3 -4.7 0.4 -4.7 1 0 1.5 -1 1.5 -2.8 0 -4.2 -3.6 -17.4 -5.9 -22 -2.3 -4.6 -7.4 -9.2 -10.2 -9.2 -2.6 0 -4.9 5 -4.9 10.7 0.1 4.6 0.1 4.7 1.5 2.3 l1.3 -2.5 1 2.5 c0.6 1.4 1.9 3.6 3.1 4.9 2.6 3 2.7 4.1 0.2 4.1 -1.8 0 -1.8 0.2 -0.6 2.8 0.8 1.5 2.3 4.8 3.4 7.5 2 4.7 3.4 5.7 4.7 3.6 0.4 -0.7 1.2 0.1 2 2 0.8 1.9 1.8 3 2.5 2.6 0.8 -0.5 0.8 -1 0 -1.8z m-22.4 -7.3 c0.3 -0.8 -0.2 -2.3 -1.1 -3.2 -1.6 -1.6 -1.8 -1.6 -3.1 0.1 -0.7 1.1 -1.1 2.5 -0.8 3.3 0.7 1.9 4.2 1.8 5 -0.2z m-7.6 -31.7 c-0.1 -1.2 -1.5 -0.9 -1.9 0.4 -0.3 0.6 0.1 1 0.8 0.8 0.6 -0.3 1.1 -0.8 1.1 -1.2z m11 -13.7 c7.9 -4.3 -8.2 -27.8 -29.8 -43.3 -10.7 -7.7 -29.8 -14.7 -40.3 -14.7 -13 0 -13.1 11.3 -0.2 23.9 6.4 6.2 14.9 11.1 33.7 19.1 6.4 2.8 16.5 7.5 22.2 10.5 11.4 6 11.5 6 14.4 4.5z"/>
 </g>
 <g fill="#ccd751">
  <path d="M611.7 379.4 c-22.1 -4 -42.5 -17.2 -54 -35 -7.8 -12 -9.3 -16.5 -14.7 -44.6 -1.1 -6 -3.4 -14.5 -5 -19 -1.7 -4.5 -3 -9.4 -3 -11 0 -2.5 0.3 -2.8 3.6 -2.8 3.3 0 18.4 7 28.1 12.9 l3.1 2 0 16.8 c0 9.2 0.4 18.4 1 20.3 0.8 2.7 1 -0.5 1.1 -14.2 l0.1 -17.8 3.3 0 c2.3 0 7.2 2.3 16.1 7.5 7 4.2 14.2 8.2 16 8.9 2.8 1.2 3.2 1.9 4.3 7.9 1.4 7 5.2 18.2 6 17.4 0.2 -0.3 -0.3 -2.9 -1.1 -5.8 -0.9 -2.9 -1.6 -7 -1.6 -9.1 0 -3.4 0.2 -3.8 2.6 -3.8 1.5 0 7.9 1.8 14.3 3.9 17.5 5.9 26.6 7.5 41.6 7.6 11.3 0 26.4 -1.9 25.1 -3.2 -0.2 -0.2 -7.3 -0.8 -15.7 -1.4 -23.6 -1.4 -42.7 -5.3 -56.6 -11.5 -4.8 -2.1 -5.3 -2.6 -5.3 -5.5 0 -2.6 1 -4.2 4.8 -7.7 4.2 -3.9 4.3 -4.1 1.4 -2.5 -1.9 1 -5.1 3.3 -7.2 5 -6.2 5.4 -8.9 4.8 -27 -5.6 -36.6 -21 -34.5 -19.5 -34.8 -23.4 -0.3 -3.3 0 -3.6 6.7 -7.7 3.9 -2.3 7.1 -4.4 7.1 -4.6 0 -0.7 -7.1 2.5 -13.8 6.1 -7.6 4.3 -10.5 4.3 -19 0.6 -3.7 -1.6 -8.5 -3.4 -10.7 -4.1 -3.8 -1.1 -4.2 -1.6 -5.4 -6.3 -0.8 -2.9 -1.6 -7.5 -1.8 -10.3 -0.5 -5 -0.4 -5.1 4.9 -9.9 17.2 -15.5 39.9 -26.6 60.7 -29.6 13.4 -1.9 31.7 -0.7 42.1 2.7 11 3.6 21.8 10.9 29.2 19.8 5.4 6.4 8 11.2 21.1 38.6 11.3 23.4 26.1 35.7 48.9 40.4 4.3 0.9 10 1.6 12.8 1.6 l5 0 0 3.6 c0 8.6 -27.1 39.8 -48.2 55.5 -9.2 6.9 -14.2 9.4 -26.8 13.3 -17 5.4 -42.2 7.1 -59.3 4z m79.7 -79 c2.9 -1.1 1.7 -3.5 -5 -10.7 -8.5 -8.9 -13.9 -17.3 -21.4 -33.2 -11.5 -24.4 -20.5 -35.1 -35.5 -42.6 -14.9 -7.3 -29.2 -8.5 -48.2 -3.9 -14.4 3.4 -32.5 11.7 -34 15.6 -0.3 0.8 0.1 2.1 0.8 3 1.6 1.9 4.7 1.5 22.6 -3.2 34.9 -9.1 49 -3.8 65.8 25 2.6 4.4 7.5 12.7 10.8 18.4 6.5 11 15.4 21.2 22.7 25.7 8.5 5.4 16.8 7.7 21.4 5.9z"/>
 </g>
 <g fill="#edb235">
  <path d="M448.4 817.5 c-49.6 -9.1 -96.1 -44.9 -119.3 -91.9 -22.6 -46 -22.9 -103.2 -0.5 -147.7 9 -18 18.9 -31.5 39.4 -53.4 22.2 -23.7 30.3 -37.4 36.5 -61.7 3.6 -14.2 4.3 -29.1 2.1 -48.9 -2.7 -23.7 -0.5 -40.1 7.1 -55.4 6.3 -12.5 17.6 -24.9 29.1 -31.9 7.5 -4.6 18.2 -8.6 22.7 -8.6 3.3 0 3.5 0.2 3.5 3.3 0 3 -0.6 3.8 -5.2 6.7 -7.1 4.5 -22.5 20.3 -26.7 27.3 -4.5 7.6 -8 17.5 -8.6 24.5 l-0.6 5.7 2.4 -7 c6.8 -19.9 18.6 -34.8 37.3 -46.8 12.9 -8.3 34.1 -16.7 42.2 -16.7 l3.7 0 1.8 7.8 c7.6 31.8 29.3 59 58.3 72.7 4.1 2 8.8 3.8 10.4 4.2 l3 0.6 0 7.8 c0 5.7 -0.4 7.9 -1.3 7.9 -0.7 0 -1.7 -1 -2.2 -2.2 -0.7 -1.5 -4.1 -3.4 -11.5 -6.3 -29.7 -11.8 -48.8 -30.6 -60.4 -59.7 -1.9 -4.6 -4.2 -11.6 -5.1 -15.6 -2 -8 -2.4 -8.3 -8.8 -5.1 -24 12.2 -39.8 32.9 -42.9 56.1 -1.4 10.6 -0.5 17.7 4.1 31.4 7 21 6.9 42.7 -0.5 63.7 -4.9 14.3 -13.2 28 -35.2 58.7 -20.5 28.4 -27.2 43.3 -30 66 -4.5 35.3 12.5 77.7 43.3 108.6 22.2 22.2 44.3 33.9 73 38.4 10.2 1.6 31.7 1.4 40.2 -0.4 19.1 -4.1 35.7 -13.8 52.5 -30.7 9 -9.1 10.5 -10.3 9.7 -7.6 -0.5 1.8 -1.6 7.7 -2.4 13.2 -0.8 5.5 -1.8 11.9 -2.3 14.3 -1.4 6.7 -7.5 17.9 -14.2 26.2 -3.3 4.1 -6 8 -6 8.7 0 2.2 4.4 4.3 9.2 4.3 6.8 0 19.5 -1.9 25.3 -3.7 17.4 -5.5 45.5 -24.9 53.8 -37.2 4 -5.7 13 -23.3 15.9 -30.8 2 -5.2 3.8 -5.6 3.8 -0.8 0 1.9 -0.4 3.5 -1 3.5 -0.5 0 -1 1.1 -1 2.5 0 1.6 -0.6 2.5 -1.5 2.5 -1 0 -1.5 1 -1.5 3 0 3.7 -4.9 14 -6.7 14 -0.7 0 -1.3 1.1 -1.3 2.5 0 1.4 -0.4 2.5 -1 2.5 -0.5 0 -1 0.7 -1 1.5 0 0.8 -0.4 1.5 -1 1.5 -0.5 0 -1 0.7 -1 1.5 0 0.8 -0.4 1.5 -1 1.5 -0.5 0 -1 0.7 -1 1.5 0 0.8 -0.4 1.5 -1 1.5 -0.5 0 -1 0.6 -1 1.3 0 0.6 -2.2 3.9 -4.8 7.3 -17.6 22.6 -36.2 37.9 -61 50.3 -20.6 10.4 -39.9 15.1 -61.4 15.1 l-11.8 0 0 -3.4 c0 -7 12.7 -14.4 35.3 -20.6 7.8 -2.1 16.9 -4.9 20.2 -6.2 l5.9 -2.2 -7.3 -1.2 c-8.8 -1.3 -11.1 -3.3 -11.1 -9.8 0 -4.8 1.8 -7.9 9.2 -16.2 5.7 -6.4 8 -9.5 11.8 -15.9 2 -3.4 1.3 -2.9 -4 2.9 -16.1 17.3 -38.7 28.8 -62.6 31.8 -8.2 1 -9.3 1.4 -9.6 3.2 -0.4 2.7 -5.2 5 -15.8 7.4 -29.1 6.8 -61.9 1.1 -90.4 -15.6 -22.3 -13 -44.4 -34 -60 -57 -2.7 -3.9 -5.1 -7 -5.3 -6.8 -0.6 0.6 4.4 10.3 9.5 18.1 34.3 53.3 103.4 84.6 148.6 67.4 2.8 -1 6.6 -1.9 8.4 -1.9 2.9 0 3.2 0.3 3.2 3.2 0 2.1 -1.3 4.8 -4 8.4 -4.9 6.4 -12.9 10.7 -24.3 12.9 -9.7 1.8 -34.2 1.8 -44.3 0z m-79.5 -145.7 c-4.6 -13.9 -6 -22.4 -6.6 -40.4 -0.8 -24.8 2.1 -40.4 11.2 -60 5.5 -12 14.6 -25 32.5 -46.5 26.8 -32 35.3 -46.2 38.7 -64.1 1.8 -9.9 1.2 -11.2 -1 -2.1 -2.3 9.4 -9.4 23.2 -17.1 33.3 -3.5 4.7 -12.8 15.5 -20.6 24 -27.1 29.7 -38 46.7 -46 71.8 -9.8 30.5 -6.7 64.4 8.2 87.4 1.6 2.7 3.1 4.8 3.2 4.8 0.1 0 -1 -3.7 -2.5 -8.2z"/>
  <path d="M695.3 694.8 c0.3 -1.3 1.7 -7.2 3.1 -13.3 1.4 -6 2.6 -12.1 2.6 -13.5 0 -4.2 1.2 -7 2.8 -7 1.2 0 1.4 1 0.8 6.3 -0.9 9.2 -3.7 22.7 -4.7 22.7 -0.5 0 -0.9 1.6 -0.9 3.5 0 2.9 -0.4 3.5 -2.1 3.5 -1.7 0 -2 -0.5 -1.6 -2.2z"/>
  <path d="M702 657.8 c0 -3.9 1.2 -6.8 2.6 -6.8 1 0 1.4 1.3 1.4 4.5 0 3.8 -0.3 4.5 -2 4.5 -1.4 0 -2 -0.7 -2 -2.2z"/>
  <path d="M702.6 636.8 c-0.3 -1.3 -0.6 -3.6 -0.6 -5.1 0 -9.8 -7.9 -37.3 -15 -52.4 -4.6 -9.8 -14.6 -25.4 -21.4 -33.3 l-4.7 -5.5 2.6 -0.3 c3.3 -0.4 5.5 1.3 5.5 4.4 0 1.7 0.6 2.4 2 2.4 1.3 0 2 0.7 2 2 0 1.1 0.7 2 1.5 2 0.8 0 1.5 0.6 1.5 1.4 0 0.8 0.6 1.6 1.3 1.9 0.7 0.2 2.1 2.2 3.2 4.3 1.1 2.1 2.6 4.5 3.3 5.2 0.6 0.7 1.2 2.4 1.2 3.8 0 1.3 0.6 2.4 1.3 2.4 1.5 0 4.7 6.1 4.7 9 0 1 0.5 2 1 2.2 3 1 12.3 34.9 13.6 50.1 0.6 6.5 0.4 7.7 -0.8 7.7 -0.9 0 -1.8 -1 -2.2 -2.2z"/>
  <path d="M688.2 635.3 c-0.7 -0.2 -1.7 -1.4 -2.3 -2.5 -1 -1.9 -0.9 -2 2.5 -1.6 3.5 0.4 3.6 0.3 3.6 -3.1 0 -3.3 0 -3.4 2 -1.6 4.5 4.1 0 11.1 -5.8 8.8z"/>
  <path d="M661.6 626.5 c-2.4 -2.5 -2.8 -5.2 -1.1 -8.4 2 -4 5.8 -5 9.3 -2.4 3.5 2.6 4.1 7.4 1.3 10.2 -1.2 1.2 -2.5 2.1 -3.1 2.1 -1.4 0 -1.3 -3.6 0.2 -6 1.6 -2.4 0.6 -3.4 -2.7 -2.6 -2.4 0.6 -3.6 3.6 -1.5 3.6 0.6 0 1 1.1 1 2.5 0 2.8 -1.2 3.2 -3.4 1z"/>
  <path d="M675 610.8 c-2.6 -2.8 -2.6 -5.8 0 -5.8 1.1 0 2 0.7 2 1.5 0 0.8 0.5 1.5 1 1.5 0.6 0 1 1.1 1 2.5 0 3.1 -1.3 3.2 -4 0.3z"/>
  <path d="M657.2 595.4 c-2.5 -1.7 -3 -5.4 -0.6 -5.4 0.8 0 2.2 0.7 3.1 1.5 1.9 2 3 1.1 1.3 -1 -0.7 -0.8 -2.4 -1.5 -3.8 -1.5 l-2.6 0 2.2 -2.2 c1.8 -1.8 2.6 -2 4.9 -1.2 1.7 0.5 3.2 2.1 3.8 3.8 0.8 2.5 0.6 3.1 -1.8 5.2 -3.3 2.8 -3.6 2.9 -6.5 0.8z"/>
  <path d="M647.5 528.3 c-6.7 -5.6 -6.8 -5.8 -4.1 -6.1 3.9 -0.5 5.6 0.4 5.6 2.8 0 1.5 0.7 2 2.5 2 2.8 0 3.8 1.6 3.3 5 -0.3 1.9 -1 1.5 -7.3 -3.7z"/>
  <path d="M631 516 c-4.7 -3.3 -13.2 -8.5 -19 -11.6 -25.1 -13.5 -38 -25.5 -43.1 -40 -1.9 -5.4 -2.6 -13.9 -1.1 -14.8 0.4 -0.2 2.3 2.7 4.1 6.6 3.7 8 9.8 14.6 18.2 19.5 9.6 5.6 10 5.4 6.2 -2.4 -6.1 -12.5 -10.3 -27.6 -11.8 -42.5 -0.6 -6.3 -0.5 -6.8 1.3 -6.8 1.6 0 2 1 2.6 6.9 0.8 8.7 2.9 18 6.1 27 1.4 3.8 2.5 7.6 2.5 8.5 0 0.9 0.4 1.6 0.9 1.6 0.5 0 1.7 2 2.8 4.5 1 2.5 2.1 4.5 2.6 4.5 0.4 0 0.7 1.6 0.7 3.5 0 3.3 -0.2 3.5 -3.2 3.5 -3.7 0 -11.8 -2.8 -11.8 -4.1 0 -0.5 -0.7 -0.9 -1.5 -0.9 -0.8 0 -1.5 -0.4 -1.5 -1 0 -0.5 -0.7 -1 -1.5 -1 -0.8 0 -1.5 -0.4 -1.5 -0.9 0 -0.5 -0.9 -1.1 -2 -1.4 -1.6 -0.4 -2 0 -2 1.9 0 1.8 0.5 2.4 2.3 2.4 2.9 0 4.7 1.8 4.7 4.6 0 1.8 0.6 2.3 3.3 2.6 2.7 0.2 3.3 0.8 3.5 3.1 0.3 2.4 0.8 2.7 3.8 2.7 2.4 0 3.4 0.5 3.4 1.5 0 0.9 0.9 1.5 2.5 1.5 1.8 0 2.5 0.5 2.5 2 0 1.6 0.7 2 3 2 4.2 0 10 3 10 5.2 0 1.4 0.8 1.8 3.5 1.8 1.9 0 3.5 0.4 3.5 0.9 0 0.5 1.1 1.2 2.5 1.5 1.4 0.4 2.5 1.1 2.5 1.6 0 0.6 0.7 1 1.5 1 0.9 0 1.5 0.9 1.5 2.5 0 2.2 0.4 2.5 3.5 2.5 3.2 0 3.5 0.2 3.5 3 0 1.7 -0.1 3 -0.2 2.9 -0.2 0 -4.1 -2.7 -8.8 -5.9z m-52 -45.5 c0 -1.8 -0.5 -2.5 -2 -2.5 -1.1 0 -2 0.5 -2 1 0 0.6 0.5 1 1 1 0.6 0 1 0.7 1 1.5 0 0.8 0.5 1.5 1 1.5 0.6 0 1 -1.1 1 -2.5z"/>
 </g>
 <g fill="#95a03e">
  <path d="M455.8 832.3 c-1 -0.2 -1.8 -1.1 -1.8 -1.9 0 -1 1.3 -1.4 5 -1.4 4.3 0 5 0.3 5 2 0 1.6 -0.6 2 -3.2 1.9 -1.8 -0.1 -4.1 -0.3 -5 -0.6z"/>
  <path d="M471 831 c0 -1.7 0.7 -2 5 -2 3.6 0 5 0.4 5 1.4 0 1.5 -3 2.6 -7.2 2.6 -2.1 0 -2.8 -0.5 -2.8 -2z"/>
  <path d="M441.8 830.5 c-47.1 -9.4 -92.7 -42.6 -119.4 -87.1 -11.9 -19.9 -20.4 -44.2 -23.9 -68.6 -0.7 -4.4 -0.6 -4.8 1.4 -4.8 1.6 0 2.1 0.6 2.1 2.6 0 4.8 5.1 25.7 8.7 35.4 1.9 5.2 3.7 10.6 4 12 0.3 1.4 0.9 2.7 1.3 3 1.4 1 7 13 7 15 0 1.1 0.7 2 1.5 2 0.9 0 1.5 0.9 1.5 2.5 0 1.6 0.6 2.5 1.5 2.5 0.8 0 1.5 0.7 1.5 1.5 0 0.8 0.5 1.5 1 1.5 0.6 0 1 0.7 1 1.5 0 0.8 0.5 1.5 1 1.5 0.6 0 1 0.9 1 2 0 1.1 0.7 2 1.5 2 0.8 0 1.5 0.9 1.5 2 0 1.1 0.7 2 1.5 2 0.9 0 1.5 0.9 1.5 2.4 0 1.8 0.6 2.5 2.3 2.8 1.8 0.2 2.3 1 2.5 4.1 0.3 3.3 0.6 3.7 3 3.7 3.8 0 13.2 9.4 13.2 13.2 0 2.4 0.4 2.7 3.8 3 3 0.2 3.8 0.7 4 2.6 0.3 1.6 1 2.2 2.8 2.2 1.5 0 2.4 0.6 2.4 1.5 0 0.8 0.9 1.5 2 1.5 1.5 0 2 0.7 2 2.5 0 2.2 0.4 2.5 3.5 2.5 1.9 0 3.5 0.5 3.5 1 0 0.6 0.7 1 1.5 1 0.8 0 1.5 0.7 1.5 1.5 0 0.8 0.9 1.5 1.9 1.5 3 0 5.1 1.1 5.1 2.6 0 0.8 0.9 1.4 2 1.4 2.9 0 13 5.2 13 6.7 0 0.8 1.3 1.3 3.5 1.3 1.9 0 3.5 0.5 3.5 1 0 0.6 0.8 1 1.8 1 2.3 0 11.5 3.1 12.2 4 0.3 0.4 2.1 1 4 1.2 15.4 2.2 19 3.2 19 5 0 2.1 -1.6 2.2 -11.2 0.3z"/>
  <path d="M482 830.3 c0 -1.5 1.3 -2.1 6.8 -3.2 11.3 -2.3 14.2 -2.5 14.2 -0.8 0 1.4 -7.1 3.6 -16.7 5.2 -3.8 0.6 -4.3 0.4 -4.3 -1.2z"/>
  <path d="M540.8 831.3 c-1 -0.2 -1.8 -1.1 -1.8 -1.9 0 -1.1 1.9 -1.4 9.5 -1.4 7.4 0 9.5 0.3 9.5 1.4 0 0.7 -1 1.6 -2.2 2 -2.6 0.6 -12.4 0.6 -15 -0.1z"/>
  <path d="M524.7 829 c-4.9 -1 -10.2 -2.3 -11.8 -2.9 -1.9 -0.7 -3.9 -0.7 -5.4 -0.1 -2.2 0.9 -2.5 0.7 -2.5 -1.5 0 -2.2 0.4 -2.5 3.8 -2.5 2 0 8.2 1.1 13.6 2.5 5.4 1.4 11.1 2.5 12.7 2.5 2.2 0 2.9 0.5 2.9 2 0 2.5 -1.5 2.5 -13.3 0z"/>
  <path d="M563 829.3 c0 -1.5 1.3 -2.1 7.8 -3.2 13.6 -2.4 15.2 -2.5 15.2 -0.8 0 1.6 -7.4 3.7 -18.2 5.2 -4.3 0.7 -4.8 0.5 -4.8 -1.2z"/>
  <path d="M587 824 c0 -1.6 0.7 -2 3.5 -2 4 0 4.9 2.4 1.3 3.4 -3.8 1 -4.8 0.7 -4.8 -1.4z"/>
  <path d="M599 820.5 c0 -2 0.5 -2.5 2.5 -2.5 1.4 0 2.5 -0.4 2.5 -1 0 -0.5 1.6 -1 3.5 -1 2.4 0 3.5 -0.5 3.5 -1.5 0 -0.8 0.9 -1.5 2 -1.5 1.1 0 2 -0.4 2 -1 0 -0.5 1.6 -1 3.5 -1 1.9 0 3.5 0.4 3.5 0.9 0 1 -9.3 5.7 -17.8 9 l-5.2 2.1 0 -2.5z"/>
  <path d="M535 816.5 c0 -3.1 0.3 -3.5 2.5 -3.5 2.1 0 2.5 -0.5 2.5 -3 0 -2.7 0.3 -3 3 -3 2.3 0 3 -0.4 3 -2 0 -1.2 0.7 -2 1.6 -2 0.8 0 2.2 -0.7 3 -1.5 0.9 -0.8 2.6 -1.5 3.9 -1.5 1.3 0 2.5 -0.4 2.7 -0.9 0.3 -0.8 5.3 -2.3 31.3 -9.5 2.2 -0.6 4.2 -1.3 4.5 -1.7 1.7 -2.1 11 -5.9 14.5 -5.9 l4 0 -5.5 3.5 c-7.6 4.8 -15.5 7.8 -32.4 12.4 -16.4 4.5 -25.3 8.5 -31.7 14.1 l-4.4 3.9 8.3 0.1 c7.5 0 8.2 0.2 8.2 2 0 1.9 -0.7 2 -9.5 2 l-9.5 0 0 -3.5z"/>
  <path d="M449.5 817.9 c-13.4 -2.4 -18.5 -4.1 -18.5 -6 0 -2.3 1 -2.3 7.3 -0.4 2.6 0.8 7.6 1.9 11 2.5 10.8 1.9 11.7 2.1 11.7 3.6 0 1.6 -3.6 1.7 -11.5 0.3z"/>
  <path d="M481 817.6 c0 -1.4 1.1 -1.8 9.3 -3.2 3.2 -0.5 3.7 -0.4 3.7 1.4 0 1.5 -0.9 2.1 -4.6 2.6 -6.9 0.9 -8.4 0.8 -8.4 -0.8z"/>
  <path d="M555 817.6 c0 -1.5 1.8 -2 10.3 -3.2 4.2 -0.6 4.7 -0.4 4.7 1.4 0 1.5 -0.9 2.1 -4.6 2.6 -7.5 1 -10.4 0.8 -10.4 -0.8z"/>
  <path d="M495 814.7 c0 -0.8 1.7 -1.9 3.8 -2.5 5.9 -1.8 12.4 -6.5 16 -11.5 1.8 -2.6 3.2 -4.7 3 -4.7 -0.2 0 -2.6 0.9 -5.4 1.9 -4.9 1.9 -19.7 5.1 -23.5 5.1 -1.2 0 -1.9 -0.7 -1.9 -1.9 0 -1.5 1 -1.9 5.5 -2.4 3.1 -0.3 8.9 -1.6 13 -2.8 5 -1.5 8.5 -1.9 10.9 -1.5 3.3 0.6 3.6 1 3.6 4.1 0 2.4 -0.5 3.5 -1.5 3.5 -0.8 0 -1.5 0.9 -1.5 2 0 1.5 -0.7 2 -2.5 2 -2 0 -2.5 0.5 -2.5 2.5 0 1.6 -0.6 2.5 -1.5 2.5 -0.8 0 -1.5 0.4 -1.5 0.9 0 1.3 -7.5 4.1 -11 4.1 -1.8 0 -3 -0.5 -3 -1.3z"/>
  <path d="M572 814.6 c0 -1.3 2.8 -2.6 5.8 -2.6 0.6 0 1.2 0.9 1.2 2 0 1.6 -0.7 2 -3.5 2 -2.3 0 -3.5 -0.5 -3.5 -1.4z"/>
  <path d="M422 810 c0 -0.5 -1.1 -1 -2.5 -1 -1.6 0 -2.5 -0.6 -2.5 -1.5 0 -1 -1 -1.5 -3 -1.5 -4.6 0 -8 -2 -8 -4.7 0 -1.2 0.2 -2.3 0.4 -2.3 0.2 0 4.1 1.7 8.7 3.8 4.6 2.1 9.6 4.4 11.2 5 3.8 1.6 3.4 3.2 -0.8 3.2 -1.9 0 -3.5 -0.4 -3.5 -1z"/>
  <path d="M624 808.5 c0 -2.2 0.4 -2.5 3.5 -2.5 4.3 0 4.4 1 0.6 3.3 -3.8 2.2 -4.1 2.2 -4.1 -0.8z"/>
  <path d="M590 808.9 c0 -0.5 1.7 -1.7 3.8 -2.6 6.7 -2.7 21.2 -10.3 26.8 -13.8 l5.4 -3.5 0 3 c0 2.5 -0.4 3 -2.5 3 -1.6 0 -2.5 0.6 -2.5 1.5 0 0.9 -0.9 1.5 -2.5 1.5 -1.4 0 -2.5 0.6 -2.5 1.3 0 1.4 -4 3.7 -6.5 3.7 -0.8 0 -1.5 0.4 -1.5 0.8 0 1.3 -4.8 3.2 -8 3.2 -2 0 -3 0.5 -3 1.5 0 1 -1.1 1.5 -3.5 1.5 -1.9 0 -3.5 -0.5 -3.5 -1.1z"/>
  <path d="M632 803.5 c0 -1.6 0.6 -2.5 1.5 -2.5 0.8 0 1.5 -0.4 1.5 -1 0 -0.5 0.9 -1 2 -1 1.1 0 2 -0.7 2 -1.5 0 -0.8 0.9 -1.5 2 -1.5 1.1 0 2 -0.7 2 -1.5 0 -0.9 0.9 -1.5 2.4 -1.5 1.8 0 2.5 -0.6 2.8 -2.2 0.2 -1.9 1 -2.4 4.1 -2.6 3.3 -0.3 3.7 -0.6 3.7 -3.1 0 -3.6 6.6 -10.1 10.3 -10.1 2.4 0 2.7 -0.4 2.7 -3.3 0 -3.7 1.5 -5.7 4.2 -5.7 1.3 0 1.8 -0.8 1.8 -2.5 0 -1.6 0.6 -2.5 1.5 -2.5 0.8 0 1.5 -0.9 1.5 -2 0 -1.1 0.7 -2.3 1.5 -2.6 0.8 -0.4 1.5 -1.2 1.5 -2 0 -0.8 0.5 -1.4 1 -1.4 0.6 0 1 -0.7 1 -1.5 0 -1 1 -1.5 3 -1.5 l3.1 0 -3.2 4.8 c-5.7 8.2 -15.1 19.4 -23.6 27.8 -7.9 7.9 -27.4 23.4 -29.3 23.4 -0.6 0 -1 -1.1 -1 -2.5z"/>
  <path d="M463 801.5 c-10.9 -1.9 -18.5 -4 -28.6 -8 -9.9 -4 -27.4 -13.3 -27.4 -14.7 0 -0.4 1.6 -0.8 3.5 -0.8 2.8 0 3.5 0.4 3.5 2 0 1.6 0.7 2 3 2 3.5 0 14 4.9 14 6.6 0 0.6 2.1 1.4 4.6 1.7 2.6 0.2 4.9 0.9 5.3 1.4 0.9 1.3 21.3 6.3 28.7 7 5.3 0.5 6.4 0.9 6.4 2.4 0 2.2 -2 2.3 -13 0.4z"/>
  <path d="M397 797.5 c0 -0.9 -0.9 -1.5 -2.5 -1.5 -1.4 0 -2.5 -0.4 -2.5 -1 0 -0.5 -0.7 -1 -1.5 -1 -0.8 0 -1.5 -0.4 -1.5 -1 0 -0.5 -0.7 -1 -1.5 -1 -0.9 0 -1.5 -0.9 -1.5 -2.5 0 -2.2 -0.4 -2.5 -3.5 -2.5 -2.8 0 -3.5 -0.4 -3.5 -2 0 -1.5 -0.7 -2 -2.5 -2 -2.1 0 -2.5 -0.5 -2.5 -3 0 -2.8 -0.3 -3 -3.5 -3 -3.8 0 -4.9 -1.3 -4.3 -5 0.3 -1.9 1.1 -1.4 7.8 4.4 4.1 3.6 12.5 9.8 18.7 13.8 6.2 4 11.2 7.6 11.3 8.1 0 0.4 -1.6 0.7 -3.5 0.7 -2.4 0 -3.5 -0.5 -3.5 -1.5z"/>
  <path d="M473 790.2 c0 -1.6 1.1 -1.8 10 -1.9 9.2 -0.1 10 0.1 10 1.8 0 1.7 -0.9 1.9 -10 1.9 -9 0 -10 -0.2 -10 -1.8z"/>
  <path d="M462.5 790.5 c-0.5 -0.2 -4.5 -1.1 -8.7 -2 -6.5 -1.4 -7.8 -2 -7.8 -3.6 0 -2.3 0.7 -2.3 7.3 -0.5 2.9 0.8 7.8 2 11 2.6 3.7 0.8 5.7 1.6 5.7 2.6 0 1.3 -4.6 1.9 -7.5 0.9z"/>
  <path d="M494 789.6 c0 -0.9 2.5 -1.9 7.1 -3 8.9 -2 8.9 -2 8.9 0.3 0 1.4 -1.2 2.1 -5.7 3 -7.5 1.5 -10.3 1.4 -10.3 -0.3z"/>
  <path d="M630 786.6 c0.8 -0.8 5.1 -4.4 9.5 -8 7 -5.9 8 -6.4 8.3 -4.5 0.6 3.4 -0.6 4.9 -3.8 4.9 -2.5 0 -3 0.4 -3 2.5 0 2 -0.5 2.5 -2.5 2.5 -1.8 0 -2.5 0.5 -2.5 2 0 1.6 -0.7 2 -3.7 2 -3.2 0 -3.5 -0.2 -2.3 -1.4z"/>
  <path d="M512.2 784.8 c0.3 -0.7 1.9 -1.8 3.6 -2.5 3.1 -1.3 3.2 -1.2 3.2 1.2 0 2.2 -0.4 2.5 -3.6 2.5 -2.3 0 -3.4 -0.4 -3.2 -1.2z"/>
  <path d="M584.8 785.3 c-2 -0.3 -2.8 -1 -2.8 -2.4 0 -1.2 -0.7 -1.9 -2 -1.9 -1.7 0 -2 -0.7 -2 -4.9 0 -5.8 0.7 -8.1 2.5 -8.1 0.8 0 1.5 -1 1.7 -2.2 0.2 -1.8 1.1 -2.4 3.7 -2.6 l3.5 -0.4 -2.7 3.4 c-8.1 10 -6.9 14.4 4.6 16.3 2.3 0.4 3.7 1.1 3.7 2 0 1.5 -3.7 1.8 -10.2 0.8z"/>
  <path d="M437 783 c0 -0.5 -1 -1 -2.2 -1 -3.3 0 -5 -1.4 -4.6 -3.8 0.3 -2 0.4 -2 6.7 0.7 7.6 3.2 8.9 5.1 3.7 5.1 -2 0 -3.6 -0.4 -3.6 -1z"/>
  <path d="M525 777.6 c0 -1.4 1.5 -1.9 10 -3.2 14.2 -2.1 32.7 -10.4 46.7 -21.2 l3.3 -2.4 0 3.1 c0 2.4 -0.4 3.1 -2 3.1 -1.1 0 -2 0.7 -2 1.5 0 1 -1 1.5 -3 1.5 -2.3 0 -3 0.4 -3 2 0 1.5 -0.7 2 -2.5 2 -1.4 0 -2.5 0.6 -2.5 1.3 0 1.5 -8.1 5.7 -11 5.7 -1.1 0 -2 0.4 -2 0.9 0 1.7 -22.4 7.1 -29.7 7.1 -1.3 0 -2.3 -0.6 -2.3 -1.4z"/>
  <path d="M398 773.1 c-3.6 -2.6 -8.3 -6.5 -10.5 -8.5 l-4 -3.6 4 0.2 c3.5 0.3 4 0.6 4.3 3.1 0.3 2.3 0.8 2.7 3.3 2.7 1.9 0 2.9 0.5 2.9 1.5 0 0.8 0.9 1.5 2 1.5 1.1 0 2 0.5 2 1 0 0.6 0.7 1 1.5 1 1 0 1.5 1 1.5 3 0 1.7 -0.1 3 -0.2 3 -0.2 0 -3.2 -2.2 -6.8 -4.9z"/>
  <path d="M418 773.5 c0 -0.9 -0.9 -1.5 -2.5 -1.5 -2 0 -2.5 -0.5 -2.5 -2.5 0 -1.4 0.3 -2.5 0.6 -2.5 1.2 0 11.4 6.5 11.4 7.2 0 0.5 -1.6 0.8 -3.5 0.8 -2.4 0 -3.5 -0.5 -3.5 -1.5z"/>
  <path d="M655.1 764.1 c11.5 -13.9 15.3 -19.1 20.9 -27.9 3.6 -5.6 6.8 -10.2 7.3 -10.2 1.3 0 0.7 6.8 -0.8 8.4 -0.8 0.8 -1.5 1.9 -1.5 2.5 0 0.6 -0.4 1.1 -1 1.1 -0.5 0 -1 0.7 -1 1.5 0 0.8 -0.4 1.5 -1 1.5 -0.5 0 -1 0.7 -1 1.5 0 0.8 -0.4 1.5 -1 1.5 -0.5 0 -1 0.7 -1 1.5 0 0.8 -0.4 1.5 -1 1.5 -0.5 0 -1 0.7 -1 1.5 0 0.8 -0.7 1.5 -1.5 1.5 -0.8 0 -1.5 0.9 -1.5 2 0 1.3 -0.7 2 -2 2 -1.5 0 -2 0.7 -2 2.5 0 2 -0.5 2.5 -2.5 2.5 -2.1 0 -2.5 0.5 -2.5 2.8 0 3.6 -1.7 5.2 -5.3 5.2 l-3 0 2.4 -2.9z"/>
  <path d="M355.2 764.8 c-0.7 -0.7 -1.2 -2.4 -1.2 -3.9 0 -2.3 -0.5 -2.8 -2.7 -3.1 -2 -0.2 -2.9 -0.9 -3.1 -2.5 -0.2 -1.3 -1 -2.3 -1.8 -2.3 -0.8 0 -1.4 -0.9 -1.4 -2 0 -1.1 -0.7 -2 -1.5 -2 -0.8 0 -1.5 -0.7 -1.5 -1.5 0 -0.8 -0.4 -1.5 -1 -1.5 -0.5 0 -1 -0.7 -1 -1.5 0 -0.8 -0.4 -1.5 -1 -1.5 -0.5 0 -1 -0.7 -1 -1.5 0 -0.8 -0.4 -1.5 -1 -1.5 -0.5 0 -1 -1.6 -1 -3.5 0 -2.8 -0.4 -3.5 -1.9 -3.5 -2.1 0 -3.1 -1.9 -3.1 -6.1 0 -4.3 1.3 -3.6 4.5 2.4 4.2 7.7 11.7 18.7 17.7 25.8 2.9 3.4 6.1 7.2 7.1 8.5 1.9 2.4 1.9 2.4 -1 2.4 -1.6 0 -3.4 -0.5 -4.1 -1.2z"/>
  <path d="M401 762.5 c0 -0.8 -0.9 -1.5 -2 -1.5 -1.5 0 -2 -0.7 -2 -2.5 0 -2.1 -0.5 -2.5 -3 -2.5 -2.7 0 -3 -0.3 -3 -3.1 0 -2.7 0.2 -2.9 1.8 -1.7 4.6 3.4 15.2 12 15.2 12.4 0 0.2 -1.6 0.4 -3.5 0.4 -2.4 0 -3.5 -0.5 -3.5 -1.5z"/>
  <path d="M591 757.6 c0 -2.5 0.4 -3.6 1.5 -3.6 0.8 0 1.5 -0.9 1.5 -2 0 -1.1 0.5 -2 1 -2 0.6 0 1 -0.7 1 -1.5 0 -0.8 0.7 -1.5 1.5 -1.5 0.8 0 1.5 -0.9 1.5 -2 0 -1.6 -0.7 -2 -3.1 -2 l-3.2 0 2.7 -3.2 c1.4 -1.8 5 -6.8 7.8 -11 4.5 -6.7 6.8 -9.1 6.8 -7.3 0 2.2 -2.3 10.5 -3 10.5 -0.4 0 -0.6 0.8 -0.3 1.8 0.2 1 -0.5 4 -1.7 6.7 -2.3 5.3 -10.1 17.5 -12.5 19.5 -1.3 1.1 -1.5 0.7 -1.5 -2.4z"/>
  <path d="M370.8 748 l-2.8 -3.5 2.6 -0.3 c3.3 -0.4 3.6 -0.1 3.2 3.9 l-0.3 3.4 -2.7 -3.5z"/>
  <path d="M689 744.5 c0 -2.4 0.5 -3.5 1.5 -3.5 0.8 0 1.5 -0.9 1.5 -1.9 0 -3.5 1.2 -5.1 3.6 -5.1 1.3 0 2.4 0.3 2.4 0.7 0 1.2 -7.4 13.3 -8.2 13.3 -0.4 0 -0.8 -1.6 -0.8 -3.5z"/>
  <path d="M362.8 738 l-2.8 -3.5 2.6 -0.3 c3.3 -0.4 3.6 -0.1 3.2 3.9 l-0.3 3.4 -2.7 -3.5z"/>
  <path d="M370 732 c0 -2.5 -0.4 -3 -2.5 -3 -2 0 -2.5 -0.5 -2.5 -2.5 0 -1.8 -0.5 -2.5 -2 -2.5 -1.1 0 -2 -0.7 -2 -1.5 0 -0.8 -0.4 -1.5 -1 -1.5 -0.5 0 -1 -0.9 -1 -2 0 -1.1 -0.7 -2 -1.5 -2 -0.8 0 -1.5 -0.7 -1.5 -1.5 0 -0.8 -0.4 -1.5 -1 -1.5 -0.5 0 -1 -0.7 -1 -1.5 0 -0.8 -0.5 -1.5 -1 -1.5 -0.6 0 0.1 2.2 1.5 5 1.4 2.7 2.5 5.8 2.5 7 0 1.1 0.7 2 1.5 2 1 0 1.5 1.1 1.5 3.5 0 1.9 -0.4 3.5 -0.8 3.5 -1.2 0 -8.6 -13.2 -11.6 -20.5 l-2.4 -6 2.4 -0.3 c2.7 -0.4 3.5 -4.2 0.9 -4.2 -0.8 0 -1.5 0.5 -1.5 1 0 0.6 -0.6 1 -1.4 1 -0.8 0 -1.8 -1.9 -2.5 -4.4 -1.5 -6.1 -1.4 -6.6 1.2 -6.6 1.8 0 3 1.2 5.2 5.3 3.5 6.5 14.5 22.6 19.9 29.2 7.5 9.1 7.2 8.5 3.7 8.5 -2.8 0 -3.1 -0.3 -3.1 -3z"/>
  <path d="M701 721.6 c0 -1.9 0.7 -4.1 1.5 -5 0.8 -0.8 1.5 -2.4 1.5 -3.5 0 -1.2 0.5 -2.1 1 -2.1 0.6 0 1 -0.7 1 -1.7 0 -2.6 3.3 -12.3 4.2 -12.3 0.4 0 0.8 -1.1 0.8 -2.4 0 -1.4 0.9 -6.2 2 -10.7 1.1 -4.6 2.2 -10.9 2.6 -14.1 0.6 -4.9 1 -5.8 2.6 -5.8 1.8 0 1.9 0.5 1.3 5.3 -1.2 9.3 -4.6 24 -8 34.2 -6.1 18.7 -10.5 26.2 -10.5 18.1z"/>
  <path d="M326.6 721.4 c-0.3 -0.9 -0.6 -2.9 -0.6 -4.5 0 -1.9 -0.5 -2.9 -1.5 -2.9 -1 0 -1.5 -1.1 -1.5 -3.5 0 -5.1 1.7 -4.3 4.6 2.3 4.7 10.4 4.6 10.2 2 10.2 -1.3 0 -2.7 -0.7 -3 -1.6z"/>
  <path d="M687.6 715.3 c5.5 -12.4 11.2 -32.1 13.9 -48.5 0.7 -4.6 3.5 -5.3 3.5 -0.9 0 7.7 -8.2 41.1 -10.1 41.1 -0.5 0 -0.9 0.9 -0.9 2 0 1.1 -0.7 3.8 -1.6 6 -1.3 3.1 -2.1 4 -4 4 l-2.4 0 1.6 -3.7z"/>
  <path d="M320 702.5 c0 -1.9 -0.4 -3.5 -0.9 -3.5 -1.3 0 -6.1 -21.6 -6.1 -27.7 0 -3.9 2.8 -2.7 3.6 1.5 1.7 10 3.6 18.4 5.8 25.5 l2.4 7.7 -2.4 0 c-2.1 0 -2.4 -0.5 -2.4 -3.5z"/>
  <path d="M378.6 693.4 c-2.5 -1.9 -4.4 -3.9 -4.1 -4.5 0.3 -0.5 0.1 -1.7 -0.4 -2.6 -1 -1.7 -1 -1.6 -1.1 0.2 -0.1 1.7 -0.5 1.5 -3.1 -1.5 l-3 -3.5 3.3 -0.6 c1.8 -0.4 2.7 -0.7 2.1 -0.8 -1.6 -0.1 -1.8 -7.1 -0.3 -7.1 0.6 0 2 2.1 3 4.6 1.1 2.5 3.6 7.8 5.5 11.7 1.9 3.9 3.3 7.2 3.1 7.4 -0.1 0.2 -2.4 -1.3 -5 -3.3z"/>
  <path d="M340.4 685.6 c-0.9 -5.3 0.2 -6.6 2 -2.4 2 4.6 2 5.8 0.1 5.8 -0.8 0 -1.7 -1.4 -2.1 -3.4z"/>
  <path d="M361 670.6 c-3.7 -7.6 -9 -25.1 -9 -29.7 0 -1.2 0.7 -1.9 2 -1.9 1.4 0 2 0.7 2 2.4 0 1.3 1.1 6.3 2.5 11 1.4 4.7 2.5 9.3 2.5 10.1 0 0.8 0.4 1.5 1 1.5 0.5 0 1.3 1.2 1.6 2.7 0.4 1.5 1.3 3.4 2.1 4.1 1.5 1.5 1.8 8.2 0.3 8.2 -0.5 0 -2.8 -3.8 -5 -8.4z"/>
  <path d="M368 668.5 c0 -1.9 -0.4 -3.5 -0.9 -3.5 -1 0 -3.9 -13.2 -4.7 -22.2 -0.6 -5.8 -0.4 -6.8 0.9 -6.8 1 0 1.8 1.2 2.1 3.3 2.2 13.8 2.9 17.6 5 24.7 l2.3 8 -2.4 0 c-2 0 -2.3 -0.5 -2.3 -3.5z"/>
  <path d="M297.6 666.8 c-0.3 -1.3 -0.6 -3.8 -0.6 -5.5 0 -2.6 0.4 -3.3 2 -3.3 1.8 0 2 0.7 2 5.5 0 4 -0.4 5.5 -1.4 5.5 -0.7 0 -1.6 -1 -2 -2.2z"/>
  <path d="M312 662.5 c0 -4.9 2.3 -6.4 3.4 -2.2 1.2 4.4 0.7 6.7 -1.4 6.7 -1.7 0 -2 -0.7 -2 -4.5z"/>
  <path d="M702 660.3 c0 -3.4 1.2 -6.3 2.6 -6.3 1 0 1.4 1.3 1.4 4 0 3.3 -0.3 4 -2 4 -1.2 0 -2 -0.7 -2 -1.7z"/>
  <path d="M717 657 c0 -4.3 0.3 -5 2 -5 1.5 0 2 0.7 2 2.8 0 4.2 -1.1 7.2 -2.6 7.2 -1 0 -1.4 -1.4 -1.4 -5z"/>
  <path d="M297 640.8 c0 -3.9 1.2 -6.8 2.6 -6.8 1 0 1.4 1.3 1.4 4.5 0 3.8 -0.3 4.5 -2 4.5 -1.4 0 -2 -0.7 -2 -2.2z"/>
  <path d="M312 638.5 c0 -2.8 0.4 -3.5 2 -3.5 2.1 0 2.4 1 1.4 4.8 -1 3.6 -3.4 2.7 -3.4 -1.3z"/>
  <path d="M717 636 c0 -3.6 0.4 -5 1.4 -5 1.5 0 2.6 3 2.6 7.3 0 2 -0.5 2.7 -2 2.7 -1.7 0 -2 -0.7 -2 -5z"/>
  <path d="M351.6 635.8 c-1.1 -4.2 -0.7 -5.8 1.4 -5.8 1.7 0 2 0.7 2 4 0 4.5 -2.3 5.7 -3.4 1.8z"/>
  <path d="M688.2 634.7 c-3.1 -1.4 -3.9 -5.3 -1.7 -7.7 2.5 -2.8 6.1 -2.5 8.1 0.5 3.1 4.7 -1.2 9.5 -6.4 7.2z"/>
  <path d="M702.5 632.3 c-2.6 -17.4 -8.2 -37.6 -13.9 -50.5 l-1.6 -3.8 2.4 0 c2.1 0 2.8 1 5.5 7.9 5.2 13.6 11.1 38.2 11.1 46.7 0 4.8 -2.7 4.6 -3.5 -0.3z"/>
  <path d="M298.5 628.3 c1.1 -8.3 3.5 -19.2 6 -27.9 5 -17.1 9.5 -25.2 9.5 -17 0 2 -0.4 3.6 -1 3.6 -0.5 0 -1 0.8 -1 1.8 0 1 -1.1 5.1 -2.5 9.1 -2.8 8.3 -7.5 28.6 -7.5 32.5 0 2 -0.5 2.6 -2.1 2.6 -2 0 -2.1 -0.4 -1.4 -4.7z"/>
  <path d="M313 631.1 c0 -1 0.3 -3.9 0.6 -6.5 0.5 -3.7 1.1 -4.6 2.6 -4.6 2.1 0 2.1 0.5 0.2 10.3 -0.6 3 -3.4 3.7 -3.4 0.8z"/>
  <path d="M715.2 620.8 c-1.5 -11.5 -1.5 -11.8 0.2 -11.8 1.5 0 1.9 1.4 3.6 12 1.3 8.6 1.3 9 -0.8 9 -1.5 0 -2 -1.5 -3 -9.2z"/>
  <path d="M361 624 c0 -3.3 0.3 -4 2 -4 1.7 0 2 0.7 2 4 0 3.3 -0.3 4 -2 4 -1.7 0 -2 -0.7 -2 -4z"/>
  <path d="M661.7 626.2 c-2.3 -2.6 -2.2 -5.2 0.3 -5.2 1.1 0 2 0.7 2 1.5 0 0.9 0.9 1.5 2.5 1.5 1.4 0 2.5 -0.6 2.5 -1.2 -0.1 -2.3 -2.7 -4.8 -4.9 -4.8 -2.6 0 -2.7 -1.6 -0.1 -3 2.7 -1.5 7.8 1.2 8.6 4.6 1.5 5.8 -7 11 -10.9 6.6z"/>
  <path d="M316.3 611.8 c0.4 -2.9 1.1 -5.4 1.7 -5.6 0.5 -0.2 1 -1.5 1 -2.9 0 -3.4 2.1 -10.3 3.2 -10.3 0.4 0 0.8 -1.1 0.8 -2.5 0 -1.4 0.5 -2.5 1 -2.5 0.6 0 1 -0.9 1 -2 0 -2.9 6.2 -15 7.7 -15 0.7 0 1.3 -1.1 1.3 -2.5 0 -1.6 0.6 -2.5 1.5 -2.5 0.9 0 1.5 -0.9 1.5 -2.5 0 -1.4 0.5 -2.5 1 -2.5 0.6 0 1 -0.7 1 -1.5 0 -0.8 0.5 -1.5 1 -1.5 0.6 0 1 -0.7 1 -1.5 0 -0.8 0.7 -1.5 1.5 -1.5 0.8 0 1.5 -0.9 1.5 -2 0 -1.1 0.6 -2 1.4 -2 0.8 0 1.6 -1 1.8 -2.2 0.2 -1.5 1.1 -2.4 2.6 -2.6 1.6 -0.3 2.2 -1 2.2 -2.8 0 -2 0.5 -2.4 3.1 -2.4 2.4 0 2.9 0.3 2.2 1.3 -0.5 0.6 -3.5 4.4 -6.5 8.2 -14.3 18.1 -26.1 41.5 -30.8 61.3 -0.8 3.5 -1.7 5.2 -2.7 5.2 -1.3 0 -1.5 -0.9 -1 -5.2z"/>
  <path d="M351 614.8 c0 -3.9 1.2 -6.8 2.6 -6.8 1 0 1.4 1.3 1.4 4.5 0 3.8 -0.3 4.5 -2 4.5 -1.4 0 -2 -0.7 -2 -2.2z"/>
  <path d="M362 613.3 c0 -1.5 0.7 -6.9 1.7 -12 1.3 -7.8 1.9 -9.3 3.5 -9.3 2.2 0 2.2 -0.1 0.4 9.1 -0.8 4.1 -1.7 9.1 -2.1 11.2 -0.7 4.4 -3.5 5.2 -3.5 1z"/>
  <path d="M682 609.3 c0 -3.3 -2.3 -6.2 -3.5 -4.3 -0.8 1.3 -5.5 1.3 -5.5 0 0 -1.8 4 -5 6.3 -5 5.5 0 8.6 6.9 4.8 10.4 -2.1 1.9 -2.1 1.9 -2.1 -1.1z"/>
  <path d="M352.5 602.8 c1.6 -9.7 3.8 -16.8 5.2 -16.8 1.7 0 1.5 2.9 -0.8 14.3 -1.1 5.4 -1.7 6.7 -3.2 6.7 -1.6 0 -1.8 -0.5 -1.2 -4.2z"/>
  <path d="M709.7 597.7 c-3 -10 -3.5 -14.1 -1.4 -13.5 1.3 0.5 6.1 13.3 7.3 19.3 0.5 3 0.4 3.5 -1.2 3.5 -1.5 0 -2.5 -1.9 -4.7 -9.3z"/>
  <path d="M656.6 594.5 c-3.9 -3.9 0.6 -11.1 5.3 -8.5 3.2 1.6 4.2 4.2 2.8 7.1 -1.5 2.9 -5.8 3.7 -8.1 1.4z m4.3 -5.4 c-1.5 -0.5 -2.2 0.6 -1.4 1.9 0.6 0.9 1 0.9 1.6 -0.1 0.5 -0.8 0.4 -1.5 -0.2 -1.8z"/>
  <path d="M369 583.5 c0 -1.9 0.5 -3.5 1 -3.5 0.6 0 1 -1.1 1 -2.5 0 -2 0.5 -2.5 2.5 -2.5 l2.5 0 -2.1 5.2 c-2.5 6.3 -2.8 6.8 -4 6.8 -0.5 0 -0.9 -1.6 -0.9 -3.5z"/>
  <path d="M359.8 576.3 c2 -5.4 4.2 -6.8 4.2 -2.6 0 5.2 -1.1 7.3 -3.6 7.3 l-2.4 0 1.8 -4.7z"/>
  <path d="M703 577.4 c0 -4.4 1.8 -4.2 3.7 0.4 1.3 3.1 1.2 3.2 -1.2 3.2 -2.2 0 -2.5 -0.4 -2.5 -3.6z"/>
  <path d="M315.1 573.3 c1.6 -4.3 9.2 -17.3 10.1 -17.3 0.4 0 0.8 1.6 0.8 3.5 0 2.8 -0.4 3.5 -2 3.5 -1.6 0 -2 0.7 -2 3 0 4.7 -3 10 -5.7 10 -2 0 -2.2 -0.2 -1.2 -2.7z"/>
  <path d="M681.7 568.5 c-2 -3.5 -3.7 -6.7 -3.7 -7 0 -0.3 1.1 -0.5 2.5 -0.5 2 0 2.5 0.5 2.5 2.5 0 1.5 0.6 2.5 1.4 2.5 0.8 0 1.7 0.7 2 1.6 0.9 2.3 0.7 7.4 -0.2 7.4 -0.4 0 -2.4 -2.9 -4.5 -6.5z"/>
  <path d="M699 568.5 c0 -5.3 1.3 -4.6 4.8 2.8 0.2 0.4 -0.8 0.7 -2.2 0.7 -2.3 0 -2.6 -0.4 -2.6 -3.5z"/>
  <path d="M364.5 565.4 c3.8 -9.2 18.4 -30.3 29 -41.9 l4.5 -5 -0.2 4 c-0.3 3.7 -0.5 4 -3.5 4.3 -3 0.3 -3.3 0.6 -3.3 3.8 0 2.7 -0.4 3.4 -2 3.4 -1.5 0 -2 0.7 -2 2.5 0 1.6 -0.6 2.5 -1.5 2.5 -0.8 0 -1.5 0.9 -1.5 2 0 1.5 -0.7 2 -2.5 2 -2.2 0 -2.5 0.4 -2.5 3.5 0 1.9 -0.4 3.5 -1 3.5 -0.5 0 -1 0.7 -1 1.5 0 0.8 -0.7 1.5 -1.5 1.5 -0.9 0 -1.5 0.9 -1.5 2.5 0 1.6 -0.6 2.5 -1.5 2.5 -0.8 0 -1.5 0.9 -1.5 2 0 1 -0.8 3.5 -1.7 5.5 -1.2 2.5 -2.3 3.5 -4 3.5 -2.3 0 -2.3 -0.1 -0.8 -3.6z"/>
  <path d="M378 564.5 c0 -2.4 0.5 -3.5 1.5 -3.5 0.9 0 1.5 -0.9 1.5 -2.5 0 -1.4 0.5 -2.5 1 -2.5 0.6 0 1 -0.7 1 -1.5 0 -0.8 0.5 -1.5 1 -1.5 0.6 0 1 -0.7 1 -1.5 0 -0.8 0.5 -1.5 1 -1.5 0.6 0 1 -0.7 1 -1.5 0 -1 1 -1.5 3 -1.5 l2.9 0 -6.7 10.5 c-3.7 5.7 -7 10.4 -7.4 10.5 -0.5 0 -0.8 -1.6 -0.8 -3.5z"/>
  <path d="M694 560.5 c0 -1.6 -0.6 -2.5 -1.5 -2.5 -0.8 0 -1.5 -0.7 -1.5 -1.5 0 -0.8 -0.4 -1.5 -1 -1.5 -0.5 0 -1 -0.7 -1 -1.5 0 -0.8 -0.4 -1.5 -1 -1.5 -0.5 0 -1 -0.7 -1 -1.5 0 -0.8 -0.4 -1.5 -1 -1.5 -0.5 0 -1 -0.9 -1 -2 0 -1.1 -0.7 -2 -1.5 -2 -0.9 0 -1.5 -0.9 -1.5 -2.4 0 -1.8 -0.6 -2.5 -2.2 -2.8 -1.9 -0.2 -2.3 -1 -2.6 -4.3 l-0.2 -4 4.1 4.5 c4.2 4.7 17.9 24.7 17.9 26.2 0 0.4 -1.1 0.8 -2.5 0.8 -2 0 -2.5 -0.5 -2.5 -2.5z"/>
  <path d="M671.1 552.5 c-3 -3.9 -5.8 -7.6 -6.4 -8.2 -0.7 -1 -0.2 -1.3 2.2 -1.3 2.6 0 3.1 0.4 3.1 2.5 0 1.8 0.5 2.5 2 2.5 1.1 0 2.4 0.8 2.7 1.8 0.4 0.9 1.1 2 1.6 2.3 0.4 0.3 0.7 2.1 0.5 4 l-0.3 3.3 -5.4 -6.9z"/>
  <path d="M326.4 553.4 c0.9 -2.3 13.7 -19 19.5 -25.4 l5 -5.5 0.1 3.6 c0 4.1 -1.4 5.9 -4.7 5.9 -1.9 0 -2.3 0.5 -2.3 3.1 0 2.2 -0.5 3.2 -2 3.6 -1.1 0.3 -2 1.4 -2 2.4 0 1.2 -0.7 1.9 -2 1.9 -1.5 0 -2 0.7 -2 2.5 0 1.4 -0.4 2.5 -1 2.5 -0.5 0 -1 0.7 -1 1.5 0 0.8 -0.7 1.5 -1.5 1.5 -0.8 0 -1.5 0.9 -1.5 2 0 1.5 -0.7 2 -2.6 2 -2 0 -2.5 -0.4 -2 -1.6z"/>
  <path d="M394 541.5 c0 -3.1 0.3 -3.5 2.5 -3.5 2.1 0 2.5 -0.5 2.5 -3 0 -2.5 0.4 -3 2.4 -3 2.1 0 2.5 -0.6 2.8 -3.2 0.2 -2.5 0.8 -3.4 2.6 -3.6 1.6 -0.3 2.2 -1 2.2 -2.8 0 -2 0.5 -2.4 3 -2.4 2.8 0 3 -0.3 3 -3.5 0 -2.8 0.4 -3.5 2 -3.5 1.5 0 2 -0.7 2 -2.5 0 -1.8 0.5 -2.5 2 -2.5 1.5 0 2 -0.7 2 -2.5 0 -2 0.5 -2.5 2.5 -2.5 2.2 0 2.5 -0.4 2.5 -3.5 0 -1.9 0.5 -3.5 1 -3.5 0.6 0 1 -0.7 1 -1.5 0 -0.8 0.5 -1.5 1 -1.5 0.6 0 1 -0.7 1 -1.5 0 -0.8 0.7 -1.5 1.5 -1.5 0.8 0 1.5 -0.9 1.5 -2 0 -2.4 4.1 -11 5.2 -11 0.4 0 0.8 -0.8 0.8 -1.9 0 -1 0.6 -3.7 1.4 -5.9 0.8 -2.2 1.7 -6.2 2 -8.9 l0.6 -4.8 -1.4 5 c-0.9 2.8 -1.5 5.3 -1.6 5.8 0 0.4 -0.7 0.7 -1.5 0.7 -1 0 -1.5 1 -1.5 2.9 0 4.2 -1 6.1 -3.1 6.1 -1.5 0 -1.9 0.7 -1.9 3.5 0 1.9 -0.4 3.5 -1 3.5 -0.5 0 -1 0.7 -1 1.5 0 0.8 -0.4 1.5 -1 1.5 -0.5 0 -1 0.7 -1 1.5 0 0.8 -0.7 1.5 -1.5 1.5 -0.8 0 -1.5 0.9 -1.5 2 0 1.3 -0.7 2 -2 2 -1.5 0 -2 0.7 -2 2.5 0 2 -0.5 2.5 -2.5 2.5 -2.1 0 -2.5 0.5 -2.5 3 0 3.2 -1.5 4.4 -4.9 3.8 -1.9 -0.3 -1.4 -1.2 4.4 -8.1 12.6 -15.1 20 -28.1 23.1 -40.9 1.1 -4.3 2.2 -6.8 3.2 -7 1.4 -0.3 1.3 -0.5 -0.2 -2 -1.3 -1.4 -1.6 -3.1 -1.4 -8 l0.3 -6.3 2.4 5 c7.6 16 3.5 36.7 -11.8 59.5 -5.5 8.3 -37.6 48 -38.7 48 -0.2 0 -0.4 -1.6 -0.4 -3.5z"/>
  <path d="M360 535.7 c0 -4 1.2 -5.1 5 -4.5 2 0.3 2 0.5 -1.4 4.3 l-3.5 4 -0.1 -3.8z"/>
  <path d="M648.5 528.7 c-2.2 -1.8 -7.6 -6 -12 -9.3 l-8 -5.9 3.5 -0.3 c1.9 -0.2 3.6 0.1 3.8 0.7 0.2 0.6 1 1.1 1.8 1.1 0.8 0 1.4 0.7 1.4 1.5 0 0.8 0.9 1.5 2 1.5 1.1 0 2 0.7 2 1.5 0 0.8 0.9 1.5 2 1.5 1.3 0 2 0.7 2 2 0 1.5 0.7 2 2.5 2 2.8 0 3.8 1.6 3.3 5 -0.3 2 -0.5 2 -4.3 -1.3z"/>
  <path d="M373 522 c0 -4.2 1.4 -6 4.7 -6 1.9 0 2.3 -0.5 2.3 -3.1 0 -2.2 0.5 -3.2 2 -3.6 1.1 -0.3 2 -1.4 2 -2.4 0 -1.1 0.7 -1.9 1.5 -1.9 0.8 0 1.5 -0.9 1.5 -2 0 -1.5 0.7 -2 2.5 -2 1.4 0 2.5 0.4 2.5 0.9 0 1.1 -8.7 12.4 -14.4 18.6 l-4.5 5 -0.1 -3.5z"/>
  <path d="M355.8 517.3 c1.1 -1.6 2.9 -3.7 4.1 -4.7 2.1 -1.9 2.1 -1.9 2.1 1.5 0 4.3 -1.5 5.9 -5.3 5.9 l-2.8 0 1.9 -2.7z"/>
  <path d="M656.7 518.3 c-0.4 -0.3 -0.7 -1.5 -0.7 -2.5 0 -1.3 -0.7 -1.8 -2.5 -1.8 -1.6 0 -2.5 -0.6 -2.5 -1.5 0 -0.8 -0.9 -1.5 -2 -1.5 -1.1 0 -2 -0.7 -2 -1.5 0 -0.8 -0.9 -1.5 -2 -1.5 -1.1 0 -2 -0.7 -2 -1.5 0 -0.8 -0.9 -1.5 -2 -1.5 -1.1 0 -2 -0.4 -2 -1 0 -0.5 -0.7 -1 -1.5 -1 -1 0 -1.5 -1 -1.5 -2.9 0 -2.7 -0.3 -3 -3.7 -3.3 -3.6 -0.3 -3.8 -0.5 -4.1 -4.3 l-0.3 -4 4.8 4.6 c2.6 2.6 10.2 8.7 16.9 13.7 6.6 5 12.6 9.7 13.3 10.6 1.2 1.4 0.9 1.6 -2.1 1.6 -1.9 0 -3.8 -0.3 -4.1 -0.7z"/>
  <path d="M402.8 513.3 c1.1 -1.6 2.9 -3.7 4.1 -4.7 2.1 -1.9 2.1 -1.9 2.1 1.5 0 4.3 -1.5 5.9 -5.3 5.9 l-2.8 0 1.9 -2.7z"/>
  <path d="M619.3 508.2 c-3.5 -2 -6.3 -4 -6.3 -4.4 0 -0.9 5.1 -1.1 7.4 -0.2 0.9 0.3 1.6 1.2 1.6 2 0 0.8 1 1.4 2.5 1.4 2 0 2.5 0.5 2.5 2.5 0 1.4 -0.3 2.5 -0.7 2.5 -0.5 -0.1 -3.6 -1.7 -7 -3.8z"/>
  <path d="M366.6 505.7 c9 -11.5 12.4 -16.6 16.6 -25.4 2.7 -5.7 5.4 -10.3 5.9 -10.3 0.5 0 0.9 1.6 0.9 3.5 0 1.9 -0.4 3.5 -1 3.5 -0.5 0 -1 0.9 -1 2 0 2.9 -4.2 11 -5.7 11 -0.7 0 -1.3 1.1 -1.3 2.5 0 1.4 -0.4 2.5 -1 2.5 -0.5 0 -1 0.7 -1 1.5 0 0.8 -0.7 1.5 -1.5 1.5 -0.8 0 -1.5 0.9 -1.5 2 0 1.3 -0.7 2 -1.9 2 -1.4 0 -2.1 0.8 -2.3 2.8 -0.3 2.3 -0.8 2.8 -3.7 3 l-3.4 0.3 1.9 -2.4z"/>
  <path d="M600.9 497.9 c-4.6 -2.7 -10.4 -6.8 -12.9 -8.9 l-4.5 -3.9 3.8 -0.1 c2.6 0 3.7 0.4 3.7 1.5 0 0.8 0.9 1.5 2 1.5 1.1 0 2.3 0.7 2.6 1.5 0.4 0.8 1.2 1.5 2 1.5 0.8 0 1.4 0.5 1.4 1 0 0.6 0.6 1 1.4 1 0.8 0 2.1 0.6 2.8 1.3 0.7 0.7 2.8 1.9 4.6 2.6 2.3 1 3.2 2 3.2 3.7 0 1.3 -0.4 2.4 -0.8 2.4 -0.5 0 -4.6 -2.3 -9.3 -5.1z"/>
  <path d="M393 495 c0 -3.1 3.8 -12 5.2 -12 0.4 0 0.8 -1.1 0.8 -2.5 0 -1.4 0.5 -2.5 1 -2.5 0.6 0 1 -1.1 1 -2.5 0 -1.4 0.5 -2.5 1 -2.5 0.6 0 1 -1.6 1 -3.5 0 -2.8 0.4 -3.5 2 -3.5 1.1 0 2 0.6 2 1.3 0 4.7 -11 30.7 -13 30.7 -0.6 0 -1 -1.3 -1 -3z"/>
  <path d="M621 486 c0 -1.1 -0.7 -2 -1.5 -2 -0.8 0 -1.5 -0.7 -1.5 -1.5 0 -0.8 -0.4 -1.5 -1 -1.5 -0.5 0 -1 -0.7 -1 -1.5 0 -0.8 -0.4 -1.5 -1 -1.5 -0.5 0 -1 -1.6 -1 -3.5 0 -2.7 -0.4 -3.5 -1.8 -3.5 -2 0 -4.2 -3.8 -4.2 -7 0 -1.1 -0.4 -2 -1 -2 -0.5 0 -1 -1.6 -1 -3.5 0 -1.9 0.4 -3.5 1 -3.5 0.5 0 2.7 3.9 4.9 8.6 2.2 4.7 6.5 12.1 9.6 16.5 l5.5 7.9 -3 0 c-2.3 0 -3 -0.4 -3 -2z"/>
  <path d="M595.3 483.8 c-1.3 -0.6 -2.3 -1.7 -2.3 -2.5 0 -0.8 -1.2 -1.3 -3 -1.3 -1.6 0 -3 -0.4 -3 -1 0 -0.5 -0.7 -1 -1.5 -1 -0.8 0 -1.5 -0.4 -1.5 -1 0 -0.5 -0.7 -1 -1.5 -1 -1 0 -1.5 1 -1.5 3.3 l-0.1 3.2 -3.3 -3.7 c-6.9 -7.9 -11.8 -21.4 -9.7 -27 0.7 -2 0.8 -1.9 1.9 0.8 0.6 1.6 1.3 3.6 1.4 4.4 0.2 0.8 0.5 1.7 0.8 2 0.3 0.3 1.6 2 2.9 3.8 2.2 3.2 2.2 3.2 0.2 3.2 -1.2 0 -2.1 0.5 -2.1 1 0 0.6 0.7 1 1.5 1 1 0 1.5 1 1.5 2.9 0 2.3 0.5 3 2.5 3.3 2.1 0.4 2.5 0.1 2.5 -1.9 0 -2.3 0.1 -2.3 5.8 1.6 4.7 3.1 12.3 7.1 13.7 7.1 0.2 0 -1 -2.4 -2.5 -5.2 -1.6 -2.9 -3.8 -7.7 -4.9 -10.5 l-2.1 -5.3 2.5 0 c2 0 2.5 0.5 2.5 2.5 0 1.4 0.4 2.5 0.8 2.5 1.2 0 3.2 4.7 3.2 7.5 0 1.6 0.6 2.5 1.5 2.5 0.8 0 1.5 0.7 1.5 1.5 0 0.8 0.5 1.5 1 1.5 0.6 0 1 1.6 1 3.5 0 3.4 -0.1 3.5 -3.7 3.4 -2.1 0 -4.8 -0.5 -6 -1.1z"/>
  <path d="M389 466.9 c0 -0.6 0.6 -3.7 1.4 -6.8 0.8 -3.1 1.7 -7.3 2 -9.3 0.4 -2.4 1.2 -3.8 2.1 -3.8 2 0 1.9 4 -0.2 13.5 -1.3 6 -2 7.5 -3.5 7.5 -1 0 -1.8 -0.5 -1.8 -1.1z"/>
  <path d="M405 463.8 c0 -0.7 0.5 -5.5 1.2 -10.5 1.1 -8 1.5 -9.3 3.1 -9.3 1.8 0 1.9 0.5 1.2 5.8 -1.2 10.1 -2.6 15.2 -4.1 15.2 -0.8 0 -1.4 -0.6 -1.4 -1.2z"/>
  <path d="M590 457.6 c0 -0.2 -0.9 -3.9 -1.9 -8.2 -1.1 -4.4 -2.2 -10 -2.6 -12.6 -0.6 -4.4 -0.4 -4.8 1.4 -4.8 1.6 0 2.1 0.6 2.1 2.8 0 1.5 0.9 6.2 2 10.6 2.4 9.5 2.5 12.6 0.5 12.6 -0.8 0 -1.5 -0.2 -1.5 -0.4z"/>
  <path d="M603 449.5 c0 -4 2.4 -4.9 3.4 -1.2 1 3.7 0.7 4.7 -1.4 4.7 -1.6 0 -2 -0.7 -2 -3.5z"/>
  <path d="M393 437 c0 -8.3 0.1 -9 2 -9 1.9 0 2 0.7 2 9 0 8.3 -0.1 9 -2 9 -1.9 0 -2 -0.7 -2 -9z"/>
  <path d="M600.6 441.3 c-0.9 -6 -0.7 -8.3 0.8 -8.3 0.9 0 1.8 1.9 2.5 5 1.4 6.7 1.4 7 -0.8 7 -1.4 0 -2 -1 -2.5 -3.7z"/>
  <path d="M599 428.5 c0 -4 2.4 -4.9 3.4 -1.2 1 3.7 0.7 4.7 -1.4 4.7 -1.6 0 -2 -0.7 -2 -3.5z"/>
  <path d="M584.6 427.8 c-1.2 -4.8 -0.7 -7.8 1.4 -7.8 1.7 0 2 0.7 2 5 0 3.6 -0.4 5 -1.4 5 -0.7 0 -1.6 -1 -2 -2.2z"/>
  <path d="M406.2 413.8 c-1.3 -11.4 -1.5 -21.5 -0.6 -29.5 0.6 -4.3 1 -5.3 2.5 -5.3 2 0 2 1.8 0.4 15.1 -0.3 2 0.2 9.2 1 16 0.8 6.8 1.5 12.7 1.5 13.2 0 0.4 -0.8 0.7 -1.8 0.7 -1.6 0 -2 -1.4 -3 -10.2z"/>
  <path d="M392.6 420.8 c-1 -3.8 -0.7 -4.8 1.4 -4.8 1.6 0 2 0.7 2 3.5 0 4 -2.4 4.9 -3.4 1.3z"/>
  <path d="M391.6 412.8 c-1 -3.8 -0.7 -4.8 1.4 -4.8 1.6 0 2 0.7 2 3.5 0 4 -2.4 4.9 -3.4 1.3z"/>
  <path d="M600 407.5 c0 -3.4 0.1 -3.5 4 -3.5 3.4 0 4 0.3 4 2.1 0 1.8 -0.5 2.1 -3 1.7 -2.4 -0.4 -3 -0.1 -3 1.4 0 1 -0.4 1.8 -1 1.8 -0.5 0 -1 -1.6 -1 -3.5z"/>
  <path d="M614 406 c0 -1.7 0.7 -2 5 -2 3.6 0 5 0.4 5 1.4 0 1.5 -3 2.6 -7.2 2.6 -2.1 0 -2.8 -0.5 -2.8 -2z"/>
  <path d="M625 405.2 c0 -1.7 1.2 -2.1 9 -3.3 5 -0.7 9 -1.7 9 -2.1 0 -0.4 1.6 -0.8 3.5 -0.8 1.9 0 3.5 -0.4 3.5 -1 0 -0.5 1.8 -1.3 4 -1.6 2.2 -0.4 4 -1 4 -1.5 0 -0.5 1.1 -0.9 2.5 -0.9 1.4 0 2.5 -0.4 2.5 -1 0 -0.5 1.6 -1 3.5 -1 1.9 0 3.5 0.5 3.5 1 0 2.6 -26.3 11.3 -40.7 13.5 -3.8 0.6 -4.3 0.5 -4.3 -1.3z"/>
  <path d="M390.6 402.4 c-0.9 -3.6 0.2 -8.4 2 -8.4 1 0 1.4 1.4 1.4 5.5 0 4 -0.4 5.5 -1.4 5.5 -0.8 0 -1.7 -1.2 -2 -2.6z"/>
  <path d="M574.5 400.4 c-7.8 -3.4 -20 -10.6 -25 -14.9 l-4 -3.4 3.8 -0.1 c2.6 0 3.7 0.4 3.7 1.5 0 0.8 0.9 1.5 2 1.5 1.3 0 2 0.7 2 2 0 1.6 0.7 2 3 2 2.3 0 3 0.4 3 2 0 1.5 0.7 2 3 2 3.7 0 8 1.9 8 3.7 0 0.8 1.1 1.3 2.8 1.3 4.7 0 7.2 1.1 7.2 3.1 0 2.5 -2.2 2.4 -9.5 -0.7z"/>
  <path d="M427.7 396.8 c-0.9 -2 -1.9 -5.4 -2.3 -7.6 -0.5 -3.3 -0.3 -4 1.3 -4.4 1.2 -0.3 2.3 -2.1 3.2 -5.6 0.7 -2.9 1.7 -5.2 2.2 -5.2 0.5 0 0.9 -0.9 0.9 -2 0 -2.9 3.2 -9 4.7 -9 0.7 0 1.3 -1.1 1.3 -2.5 0 -1.6 0.6 -2.5 1.5 -2.5 0.8 0 1.5 -0.9 1.5 -2 0 -1.1 0.7 -2 1.5 -2 0.8 0 1.5 -0.9 1.5 -2 0 -1.6 0.7 -2 3.1 -2 l3.1 0 -2.6 3.5 c-6.4 8.6 -7.6 10.3 -10.4 16 -3.8 7.7 -6 14.5 -7.6 23.7 l-1.3 7.3 -1.6 -3.7z"/>
  <path d="M601.1 393 c-15.2 -1.7 -32.4 -9.4 -45.3 -20.1 -13.1 -11.1 -23.7 -29.1 -28.9 -49.5 -3.3 -13 -3.2 -8.6 -1.3 -48.6 l0.6 -11.8 2.9 0 c1.6 0 5.7 1.1 9.1 2.4 6.7 2.5 21 9.4 21.8 10.5 0.3 0.4 2 1.3 3.8 2 1.7 0.8 3.2 1.7 3.2 2.1 0 0.4 0.9 1 2 1.3 1.8 0.5 1.9 1.2 1.3 13.9 -0.7 14.9 0.9 29.3 3.4 30.6 1.1 0.6 1.3 3.1 1.1 11.3 l-0.3 10.4 -1.8 -6 c-4.9 -15.7 -6.1 -23.6 -6.1 -40.5 l-0.1 -16.4 -4 -2.4 c-4.8 -2.7 -23.3 -12.2 -23.9 -12.2 -0.3 0 0.8 3.5 2.4 7.8 2.8 7.7 4 12.8 8 33.6 4.5 23.2 15.5 40.2 34.4 52.5 24 15.6 55.1 18.3 87.7 7.5 11.6 -3.9 17.9 -7.5 29.4 -16.7 6.8 -5.5 7 -5.6 7.3 -3.1 0.4 3 -1.3 5.4 -3.9 5.4 -1.1 0 -1.9 0.7 -1.9 1.5 0 0.9 -0.8 1.9 -1.7 2.2 -1 0.4 -2.2 1.2 -2.6 2 -0.4 0.7 -1.5 1.3 -2.2 1.3 -0.8 0 -1.5 0.4 -1.5 0.9 0 2.2 -25.3 16 -37.9 20.8 -17 6.4 -38.3 9.2 -55 7.3z"/>
  <path d="M391.5 385.8 c1.4 -9.7 3.7 -17.8 5.1 -17.8 1.8 0 1.8 1.7 -0.3 12.7 -1.5 7.7 -2.1 9.3 -3.6 9.3 -1.6 0 -1.8 -0.6 -1.2 -4.2z"/>
  <path d="M681 385.5 c0 -2 0.5 -2.5 2.5 -2.5 1.6 0 2.5 -0.6 2.5 -1.5 0 -0.8 0.7 -1.5 1.5 -1.5 0.8 0 1.5 -0.4 1.5 -1 0 -0.5 1.4 -1 3 -1 2.3 0 3 -0.4 3 -2 0 -1.1 0.7 -2 1.5 -2 0.8 0 1.5 -0.4 1.5 -1 0 -0.5 0.9 -1 2 -1 1.1 0 2 -0.7 2 -1.5 0 -0.8 0.8 -1.5 1.9 -1.5 1 0 2.1 -0.9 2.4 -2 0.4 -1.5 1.4 -2 4.1 -2 3.3 0 3.6 -0.2 3.6 -2.9 0 -3.7 2 -5.3 6.1 -4.9 l3.3 0.3 -8.5 7.4 c-7.8 6.8 -31.1 23.1 -33 23.1 -0.5 0 -0.9 -1.1 -0.9 -2.5z"/>
  <path d="M425 378 c0 -3.7 2.4 -11 3.6 -11 1.5 0 1.7 2.3 0.8 8.3 -0.5 2.7 -1.1 3.7 -2.5 3.7 -1.1 0 -1.9 -0.4 -1.9 -1z"/>
  <path d="M408 374.5 c0 -1.9 0.5 -3.5 1 -3.5 0.6 0 1 -1.3 1 -3 0 -1.6 0.5 -3 1 -3 0.6 0 1 -0.9 1 -2 0 -2.9 2.1 -7 3.7 -7 0.7 0 1.3 -1.1 1.3 -2.5 0 -1.4 0.5 -2.5 1 -2.5 0.6 0 1 -0.7 1 -1.5 0 -0.8 0.7 -1.5 1.5 -1.5 0.8 0 1.5 -0.9 1.5 -2 0 -1.6 0.7 -2 3.1 -2 l3 0 -4.6 6.4 c-4.8 6.8 -10.8 19 -12 24.4 -0.9 4.4 -3.5 4.3 -3.5 -0.3z"/>
  <path d="M533 368.8 c-8.7 -10.9 -15.7 -25.1 -20 -40.1 -2.5 -9 -2.5 -9.7 -0.1 -9.7 1.9 0 3.1 3.4 3.1 8.6 0 1.3 0.4 2.4 1 2.4 0.5 0 1.3 1.8 1.6 4 0.4 2.2 1 4 1.5 4 0.5 0 0.9 1.1 0.9 2.5 0 1.4 0.4 2.5 0.8 2.5 1.1 0 5.2 8.6 5.2 11 0 1.1 0.7 2 1.5 2 0.8 0 1.5 0.7 1.5 1.5 0 0.8 0.5 1.5 1 1.5 0.6 0 1 0.7 1 1.5 0 0.8 0.5 1.5 1 1.5 0.6 0 1 1.1 1 2.5 0 1.8 0.5 2.5 2 2.5 1.6 0 2 0.7 2 3.5 0 1.9 -0.2 3.5 -0.4 3.5 -0.2 0 -2.3 -2.4 -4.6 -5.2z"/>
  <path d="M429.3 361.8 c1.9 -4.6 3.7 -4.8 3.7 -0.4 0 3.2 -0.3 3.6 -2.5 3.6 -2.4 0 -2.5 -0.1 -1.2 -3.2z"/>
  <path d="M398.3 359.8 c1.9 -4.6 3.7 -4.8 3.7 -0.4 0 3.2 -0.3 3.6 -2.5 3.6 -2.4 0 -2.5 -0.1 -1.2 -3.2z"/>
  <path d="M625.8 350.1 c-3.5 -4.4 -8 -11.4 -10.1 -15.4 -3.7 -7.6 -7.7 -20.3 -7.7 -24.5 0 -1.7 -0.9 -2.7 -3.4 -3.7 -1.9 -0.8 -9.2 -4.8 -16.2 -9 -11.7 -6.9 -12.9 -7.4 -13.2 -5.5 -0.6 3.4 -2.7 1.7 -3 -2.3 -0.3 -3.5 -0.2 -3.7 2.8 -3.7 2.7 0 7.5 2.2 9 4.1 0.3 0.3 1.5 0.9 2.8 1.3 1.2 0.4 2.2 1.2 2.2 1.7 0 0.5 0.6 0.9 1.4 0.9 0.8 0 2.1 0.6 2.8 1.3 0.7 0.7 2.8 1.9 4.6 2.6 1.7 0.7 3.2 1.7 3.2 2.1 0 0.4 1.1 1.1 2.5 1.4 1.4 0.4 2.5 1.1 2.5 1.6 0 0.6 1 1 2.3 1 2.1 0 2.5 0.9 4.6 10.1 1.2 5.5 2.5 9.9 2.7 9.6 0.3 -0.3 0.1 -2.2 -0.5 -4.4 -0.6 -2.1 -1.1 -5.3 -1.1 -7 0 -2.9 0.3 -3.3 2.8 -3.3 1.5 0 7.8 1.8 14 4 11.7 4.1 28.4 8 34.6 8 3 0 3.6 0.4 3.6 2.1 0 2.1 -0.3 2.1 -6.7 1.5 -10 -1 -23.1 -4.1 -34.5 -8 l-9.9 -3.5 0.6 3.2 c1.1 5.1 7.4 23.5 11.1 32.6 1.9 4.6 3.3 8.6 3 8.8 -0.2 0.3 -3.3 -3.1 -6.8 -7.6z"/>
  <path d="M432 356.2 c0 -1 6.2 -10 9.9 -14.2 l3 -3.5 0.1 3.8 c0 3 -0.3 3.7 -2 3.7 -1.5 0 -2 0.7 -2 2.5 0 1.8 -0.5 2.5 -2 2.5 -1.6 0 -2 0.7 -2 3 0 2.5 -0.4 3 -2.5 3 -1.4 0 -2.5 -0.3 -2.5 -0.8z"/>
  <path d="M402 352.1 c0 -2.3 11.2 -17.4 18.1 -24.3 12.6 -12.7 26.8 -20.6 44.4 -24.9 10.2 -2.4 11.5 -2.4 11.5 0.1 0 1.4 -0.7 2 -2.1 2 -3 0 -19.3 4.3 -19.7 5.2 -0.2 0.5 -1.5 0.8 -2.8 0.8 -1.3 0 -2.4 0.4 -2.4 0.8 0 1.1 -4.6 3.2 -7 3.2 -1.1 0 -2 0.7 -2 1.5 0 0.8 -0.7 1.5 -1.5 1.5 -0.8 0 -1.5 0.5 -1.5 1 0 0.6 -0.7 1 -1.5 1 -0.8 0 -1.5 0.5 -1.5 1 0 0.6 -1.3 1 -2.9 1 -2.5 0 -3 0.4 -3.3 2.8 -0.2 2.2 -0.8 2.8 -3.5 3 -2.8 0.3 -3.3 0.7 -3.3 3.1 0 3.1 -1.6 5.1 -4.2 5.1 -1.3 0 -1.8 0.8 -1.8 2.5 0 1.6 -0.6 2.5 -1.5 2.5 -0.8 0 -1.5 0.9 -1.5 2 0 1.3 -0.7 2 -2 2 -1.4 0 -2 0.7 -2 2.4 0 4 -1.1 5.6 -3.6 5.6 -1.3 0 -2.4 -0.4 -2.4 -0.9z"/>
  <path d="M727 349.9 c0 -4 2.4 -6.9 5.8 -6.9 1.6 0 2.1 -0.7 2.4 -3.2 0.2 -2.5 0.8 -3.4 2.6 -3.6 1.6 -0.3 2.2 -1 2.2 -2.8 0 -1.5 0.6 -2.4 1.5 -2.4 0.8 0 1.5 -0.9 1.5 -2 0 -1.1 0.7 -2 1.5 -2 0.8 0 1.5 -0.9 1.5 -2 0 -1.1 0.5 -2 1 -2 0.6 0 1 -0.7 1 -1.5 0 -0.9 0.9 -1.5 2.5 -1.5 1.4 0 2.5 0.4 2.5 1 0 1.3 -13.9 19.5 -20.4 26.5 l-5.5 6 -0.1 -3.6z"/>
  <path d="M716.6 339.8 c11.2 -11.7 26.4 -30.7 26.4 -33.2 0 -0.3 -2.3 -0.6 -5 -0.6 -2.8 0 -8.5 -0.7 -12.8 -1.6 -22.8 -4.7 -37.6 -17 -48.9 -40.4 -12.9 -26.9 -15.6 -32 -20.8 -38.3 -10.6 -12.8 -24.3 -20.3 -42.7 -23.2 -2.6 -0.4 -3.8 -1.1 -3.8 -2.2 0 -1.4 1 -1.5 6.8 -1 6.8 0.6 24.2 6.2 24.2 7.8 0 0.5 0.7 0.9 1.5 0.9 0.8 0 2.3 0.8 3.3 1.8 1 1 2.6 2.1 3.5 2.5 0.9 0.3 1.7 1.3 1.7 2.1 0 0.8 1 1.6 2.3 1.8 1.5 0.2 2.3 1.1 2.5 3 0.2 1.9 1 2.8 2.5 3 1.2 0.2 2.6 1.3 3.2 2.6 0.5 1.2 1.3 2.2 1.7 2.2 0.5 0 0.8 0.7 0.8 1.5 0 0.8 0.4 1.5 1 1.5 0.9 0 5.6 9.4 16.1 32 2.4 5.2 4.7 9.7 5.2 9.8 0.4 0.2 0.7 1 0.7 1.7 0 0.7 0.7 1.5 1.5 1.9 0.8 0.3 1.5 1.7 1.5 3.1 0 1.8 0.5 2.5 1.9 2.5 1 0 3.5 1.8 5.5 4 2 2.2 4 4 4.5 4 0.6 0 1.4 0.6 1.8 1.3 1.2 1.8 9.9 6.2 17.3 8.7 4.1 1.4 10.3 2.4 16.8 2.7 l10.2 0.6 0 3.5 c0 3.5 -3.3 10.2 -5.1 10.2 -0.5 0 -0.9 0.7 -0.9 1.5 0 0.9 -0.7 1.8 -1.5 2.1 -0.8 0.4 -1.5 1.2 -1.5 2 0 0.8 -0.7 1.4 -1.5 1.4 -0.9 0 -1.5 0.9 -1.5 2.1 0 1.2 -0.8 2.3 -2 2.6 -1.1 0.3 -2 1.3 -2 2.3 0 2.3 -3.1 5 -5.8 5 -1.7 0 -2.2 0.6 -2.2 2.8 0 4.1 -6.5 10.2 -11 10.2 l-3.4 0 8 -8.2z"/>
  <path d="M455.2 342.9 c0.3 -3.2 0.6 -3.4 4.2 -3.7 3.6 -0.3 3.8 -0.2 2.6 1.3 -0.7 0.9 -2.6 2.5 -4.2 3.7 l-2.9 2 0.3 -3.3z"/>
  <path d="M464 336 c0 -2 0.5 -3 1.5 -3 0.8 0 1.5 -0.4 1.5 -1 0 -0.5 1.1 -1 2.5 -1 1.6 0 2.5 -0.6 2.5 -1.5 0 -1 1.1 -1.5 3.5 -1.5 1.9 0 3.5 0.3 3.5 0.8 0 0.4 -3.4 2.8 -7.5 5.4 l-7.5 4.7 0 -2.9z"/>
  <path d="M435 333.9 c0 -2.2 0.6 -3.2 2 -3.6 1.1 -0.3 2 -0.9 2 -1.4 0 -0.5 0.5 -0.9 1.1 -0.9 0.6 0 1.7 -0.7 2.5 -1.5 1.6 -1.5 8.4 -2.1 8.4 -0.7 -0.1 0.4 -3.7 3 -8 5.9 l-8 5.2 0 -3z"/>
  <path d="M450.5 333 c0.3 -0.5 1.9 -1.9 3.5 -3 l3 -2.1 0 3 c0 2.9 -0.3 3.1 -3.6 3.1 -2 0 -3.3 -0.4 -2.9 -1z"/>
  <path d="M460.3 325.5 c3.6 -3.2 4.7 -3.1 4.7 0 0 2.2 -0.4 2.5 -3.7 2.5 l-3.8 -0.1 2.8 -2.4z"/>
  <path d="M482 325.6 c0 -2.6 1.6 -3.6 6.1 -3.6 1.8 0 2.9 -0.5 2.9 -1.4 0 -1.4 12.7 -5.6 17.3 -5.6 5.8 0 2.3 2.6 -8.1 6.1 -5.9 1.9 -12.4 4.3 -14.4 5.2 l-3.8 1.7 0 -2.4z"/>
  <path d="M677 323.1 c0 -1.8 0.6 -2.1 4.8 -2.1 2.6 -0.1 7.4 -0.7 10.7 -1.4 l6 -1.2 -12.7 -0.7 c-23.1 -1.2 -45.9 -5.8 -60.2 -12.1 -5.3 -2.4 -5.6 -2.7 -5.6 -6 0 -2.9 0.4 -3.6 2 -3.6 1.1 0 2 -0.5 2 -1.2 0 -0.6 0.7 -2 1.7 -3 0.9 -1.1 1.1 -1.8 0.5 -1.8 -0.7 0 -1.2 0.5 -1.2 1 0 0.6 -0.6 1 -1.4 1 -0.8 0 -1.6 0.7 -2 1.5 -0.3 0.8 -1.7 1.5 -3.1 1.5 -1.8 0 -2.5 0.5 -2.5 2 0 3.3 -5.4 2.5 -13.9 -2.1 -4.2 -2.3 -7.8 -4.5 -8.1 -4.9 -0.3 -0.3 -2 -1.2 -3.7 -1.9 -1.8 -0.8 -3.3 -1.7 -3.3 -2.2 0 -0.5 -0.6 -0.9 -1.4 -0.9 -0.8 0 -2.1 -0.6 -2.8 -1.4 -0.8 -0.7 -2.4 -1.7 -3.6 -2 -1.2 -0.4 -2.2 -1.2 -2.2 -1.7 0 -0.5 -0.6 -0.9 -1.4 -0.9 -0.8 0 -2.1 -0.6 -2.8 -1.3 -0.7 -0.7 -2.8 -1.9 -4.5 -2.6 -1.8 -0.7 -3.3 -2 -3.3 -2.7 0 -0.8 -0.9 -1.4 -2.1 -1.4 -3.9 0 -5.9 -1.9 -5.9 -5.5 0 -1.9 0.5 -3.5 1 -3.5 0.6 0 2.1 -0.9 3.3 -2 1.2 -1.2 3.2 -2.3 4.4 -2.6 1.3 -0.4 2.3 -1 2.3 -1.5 0 -1 -13.3 5.1 -13.8 6.4 -0.5 1 -10.2 0.9 -10.2 -0.2 0 -0.5 -1.2 -1.1 -2.7 -1.4 -1.6 -0.3 -5.8 -1.6 -9.5 -2.9 -4.8 -1.6 -6.8 -2.8 -6.8 -4 0 -1 -0.4 -1.8 -0.8 -1.8 -1 0 -4.2 -11 -4.2 -14.5 0 -2.1 0.5 -2.5 3 -2.5 2.7 0 2.9 0.2 1.9 1.8 -0.9 1.5 -0.8 3 0.5 6.7 0.9 2.7 1.6 5.6 1.6 6.5 0 1.1 1.5 2.1 4.3 2.9 2.3 0.7 7.2 2.6 10.9 4.2 l6.6 2.9 7.5 -4 c4 -2.2 10 -4.9 13.3 -6 7.9 -2.8 29.5 -8.2 30.1 -7.6 0.3 0.3 -1.9 1.7 -4.9 3.1 -10.7 5.5 -33.9 19.8 -33.1 20.5 1.7 1.7 49.5 29 50.6 29 0.5 0 2.7 -1.5 4.8 -3.4 2.2 -1.8 6.7 -4.8 10 -6.5 6.5 -3.6 19.9 -8.4 19.9 -7.3 0 0.9 -11.6 12.2 -18.5 17.9 l-4.9 4.2 5.4 2.4 c13.4 5.9 34 10.3 52.5 11.2 14.7 0.8 17.5 1.3 17.5 3.1 0 1.5 2.4 1.3 7.8 -0.7 1.3 -0.5 5.1 -0.9 8.5 -0.8 l6.2 0.1 -3.5 1.5 c-6.2 2.7 -25.3 7.3 -33.2 7.9 -7.5 0.7 -7.8 0.6 -7.8 -1.5z"/>
  <path d="M458 322 c0 -0.5 1.5 -1 3.3 -0.9 2.7 0 2.9 0.2 1.2 0.9 -2.8 1.2 -4.5 1.2 -4.5 0z"/>
  <path d="M753 315.5 c0 -2.4 0.5 -3.5 1.5 -3.5 0.8 0 1.5 -0.9 1.5 -1.9 0 -3.5 1.2 -5.1 3.6 -5.1 1.3 0 2.4 0.3 2.4 0.7 0 1.2 -7.4 13.3 -8.2 13.3 -0.4 0 -0.8 -1.6 -0.8 -3.5z"/>
  <path d="M762 299.5 c0 -2.8 0.4 -3.5 2 -3.5 2.3 0 2.6 2.6 0.6 5.3 -2 2.5 -2.6 2.1 -2.6 -1.8z"/>
  <path d="M727.3 293.8 c-2.9 -0.5 -5.3 -1.4 -5.3 -1.9 0 -0.5 -1.1 -0.9 -2.5 -0.9 -3.7 0 -7.5 -2.1 -7.5 -4.2 0 -1.3 -0.8 -1.8 -3 -1.8 -2.7 0 -3 -0.3 -3 -3.1 l0 -3.1 3.3 2.4 c11.8 9.1 30.5 12.7 43.4 8.4 6.4 -2.1 9.1 -1.8 11.1 1.3 l1.6 2.4 -3.8 -0.5 c-2.2 -0.2 -6.2 0.2 -9 0.9 -5.7 1.5 -17.5 1.5 -25.3 0.1z"/>
  <path d="M477.5 276.3 c-0.3 -2.1 -1 -6.2 -1.5 -9.2 -1.3 -7.1 -1.3 -7.1 0.9 -7.1 2.1 0 2.6 1.8 3.7 13.3 0.6 5.7 0.4 6.7 -0.9 6.7 -1.1 0 -1.8 -1.2 -2.2 -3.7z"/>
  <path d="M696 273.5 c0 -0.8 -0.4 -1.5 -1 -1.5 -0.5 0 -1 -0.7 -1 -1.5 0 -0.8 -0.4 -1.5 -0.8 -1.5 -1.1 0 -5.2 -8.6 -5.2 -11 0 -1.1 -0.4 -2 -1 -2 -0.5 0 -1 -1.6 -1 -3.5 0 -2.4 -0.5 -3.5 -1.5 -3.5 -1 0 -1.5 -1.1 -1.5 -3.5 0 -2.2 -0.5 -3.5 -1.3 -3.5 -1.5 0 -5.7 -8.1 -5.7 -11 0 -1.1 -0.7 -2 -1.5 -2 -0.8 0 -1.5 -0.7 -1.5 -1.5 0 -0.8 -0.4 -1.5 -1 -1.5 -0.5 0 -1 -0.7 -1 -1.5 0 -0.8 -0.4 -1.5 -1 -1.5 -0.5 0 -1 -0.9 -1 -2 0 -1.1 -0.7 -2 -1.5 -2 -1.1 0 -1.5 -1.1 -1.5 -3.6 0 -3.2 0.2 -3.5 1.5 -2.4 3.8 3.2 13.3 19.3 19 32.3 7.3 16.7 8.8 19.8 12.7 25.5 l2.9 4.2 -3.1 0 c-2 0 -3 -0.5 -3 -1.5z"/>
  <path d="M512 266.6 c0 -3 -3.8 -18.8 -6 -24.8 l-2.9 -7.8 2.5 0 c1.9 0 2.4 0.5 2.4 2.4 0 1.3 0.5 2.6 1.1 2.8 0.6 0.2 1.3 2.5 1.6 5.1 0.3 2.6 0.9 4.7 1.3 4.7 0.7 0 3 12.1 3 15.9 0 1.2 -0.7 2.1 -1.5 2.1 -0.8 0 -1.5 -0.2 -1.5 -0.4z"/>
  <path d="M504 262.5 c0 -4 2.4 -4.9 3.4 -1.2 1 3.7 0.7 4.7 -1.4 4.7 -1.6 0 -2 -0.7 -2 -3.5z"/>
  <path d="M473.6 257.2 c-0.2 -0.4 -1.4 -3.1 -2.5 -6 l-2.1 -5.2 2.4 0 c2.6 0 4.6 3.9 4.6 9.1 0 2.7 -1.3 3.9 -2.4 2.1z"/>
  <path d="M496 237.4 c0 -4.4 1.8 -4.2 3.7 0.4 1.3 3.1 1.2 3.2 -1.2 3.2 -2.2 0 -2.5 -0.4 -2.5 -3.6z"/>
  <path d="M460.3 230.7 c-6.8 -10.9 -15.6 -22.5 -23.7 -31.6 -6.8 -7.5 -8.2 -11.1 -4.6 -11.1 1.1 0 2 0.5 2 1.1 0 0.6 1.1 2 2.5 3.1 1.8 1.4 2.5 2.9 2.5 5.3 0 3.1 0.3 3.4 3.3 3.7 2.4 0.2 3.3 0.8 3.5 2.6 0.2 1.2 1 2.2 1.8 2.2 0.8 0 1.4 1 1.4 2.5 0 1.8 0.5 2.5 2 2.5 1.1 0 2 0.7 2 1.5 0 0.8 0.5 1.5 1 1.5 0.6 0 1 0.9 1 2 0 1.1 0.7 2 1.5 2 0.8 0 1.5 0.7 1.5 1.5 0 0.8 0.5 1.5 1 1.5 0.6 0 1 0.7 1 1.5 0 0.8 0.5 1.5 1 1.5 0.6 0 1 0.7 1 1.5 0 0.8 0.5 1.5 1 1.5 0.6 0 1 1.1 1 2.5 0 1.6 0.6 2.5 1.5 2.5 1 0 1.5 1.1 1.5 3.5 0 1.9 -0.3 3.5 -0.7 3.5 -0.5 0 -3.1 -3.7 -6 -8.3z"/>
  <path d="M529.2 229 c0.2 -2 1.1 -3.7 2.3 -4.4 1.1 -0.6 2.4 -1.7 2.8 -2.3 0.4 -0.7 1.4 -1.3 2.1 -1.3 0.8 0 1.6 -0.6 1.9 -1.3 0.2 -0.7 2.2 -2.1 4.3 -3.2 2.2 -1.1 4.1 -2.3 4.4 -2.6 0.3 -0.4 3.4 -2.1 7 -3.9 16.2 -8.2 42 -14 42 -9.5 0 0.8 -0.2 1.5 -0.4 1.5 -0.2 0 -4.2 0.7 -8.9 1.5 -18.7 3.2 -34.9 11.1 -55 26.6 l-2.8 2.2 0.3 -3.3z"/>
  <path d="M491 227.5 c0 -4.3 1 -4.4 3.3 -0.6 2.2 3.8 2.2 4.1 -0.8 4.1 -2.2 0 -2.5 -0.4 -2.5 -3.5z"/>
  <path d="M518.5 219 c0.3 -0.5 1.9 -1.9 3.5 -3 l3 -2.1 0 3 c0 2.9 -0.3 3.1 -3.6 3.1 -2 0 -3.3 -0.4 -2.9 -1z"/>
  <path d="M489.4 211.2 c-2.9 -4.2 -6.6 -9.6 -8.4 -11.9 l-3.2 -4.3 3.1 0 c2.4 0 3.1 0.4 3.1 2 0 1.1 0.7 2 1.5 2 1 0 1.5 1.1 1.5 3.5 0 3.1 0.3 3.5 2.5 3.5 1.6 0 2.5 0.6 2.5 1.5 0 0.8 0.5 1.5 1 1.5 0.6 0 1 0.7 1 1.5 0 0.8 0.5 1.5 1 1.5 0.6 0 1 1.6 1 3.5 0 1.9 -0.3 3.5 -0.7 3.5 -0.5 0 -3.1 -3.5 -5.9 -7.8z"/>
  <path d="M509.6 217.4 c-0.3 -0.9 -0.6 -2.4 -0.6 -3.5 0 -1 -0.7 -1.9 -1.5 -1.9 -0.8 0 -1.5 -0.7 -1.5 -1.5 0 -0.8 -0.4 -1.5 -1 -1.5 -0.5 0 -1 -0.7 -1 -1.5 0 -0.8 -0.4 -1.5 -1 -1.5 -0.5 0 -1 -0.7 -1 -1.5 0 -0.8 -0.4 -1.5 -1 -1.5 -0.5 0 -1 -0.7 -1 -1.5 0 -0.8 -0.4 -1.5 -1 -1.5 -0.5 0 -1 -0.9 -1 -2 0 -1.1 -0.7 -2 -1.5 -2 -0.8 0 -1.5 -0.9 -1.5 -2 0 -1.1 -0.7 -2 -1.5 -2 -0.8 0 -1.5 -0.9 -1.5 -2 0 -1.1 -0.7 -2 -1.5 -2 -0.8 0 -1.5 -0.8 -1.5 -1.9 0 -1 -0.9 -2.1 -2 -2.4 -1.5 -0.4 -2 -1.4 -2 -3.6 0 -2.6 -0.4 -3.1 -2.5 -3.1 -2.2 0 -2.5 -0.4 -2.5 -3.7 l0.1 -3.8 3.5 4 c9.7 11 31.4 41.8 31.4 44.7 0 1.5 -4.8 0.8 -5.4 -0.8z"/>
  <path d="M482 212.3 l0.1 -3.8 2.4 2.8 c3.2 3.6 3.1 4.7 0 4.7 -2.2 0 -2.5 -0.4 -2.5 -3.7z"/>
  <path d="M527 212.5 c1.4 -1.7 16.9 -11.5 18.2 -11.5 0.4 0 0.8 1.1 0.8 2.4 0 2.4 -1.6 3.6 -5.1 3.6 -1 0 -1.9 0.7 -1.9 1.5 0 0.8 -0.7 1.5 -1.5 1.5 -0.8 0 -1.5 0.5 -1.5 1 0 0.6 -0.7 1 -1.5 1 -0.8 0 -1.5 0.5 -1.5 1 0 0.6 -1.6 1 -3.6 1 -3.2 0 -3.5 -0.2 -2.4 -1.5z"/>
  <path d="M654.4 206.6 c-0.3 -0.8 -0.4 -2.4 -0.2 -3.6 0.3 -2 0.5 -2 4.3 1.4 l4 3.5 -3.8 0.1 c-2.4 0 -4 -0.5 -4.3 -1.4z"/>
  <path d="M645 198.5 c0 -3 0.3 -3 4.1 -0.8 3.8 2.3 3.7 3.3 -0.6 3.3 -3.1 0 -3.5 -0.3 -3.5 -2.5z"/>
  <path d="M551 199 c0 -2.2 16.2 -8.3 29.9 -11.1 11.5 -2.3 12.1 -2.3 12.1 -0.1 0 1.5 -1.4 2 -7.5 3.1 -4.2 0.7 -10.8 2.3 -14.7 3.7 -3.9 1.3 -7.8 2.4 -8.5 2.4 -0.8 0 -2.1 0.7 -2.9 1.5 -1.7 1.7 -8.4 2.1 -8.4 0.5z"/>
  <path d="M469 195.5 c0 -1.8 -0.5 -2.5 -2 -2.5 -1.7 0 -2 -0.7 -2 -3.7 l0.1 -3.8 3 3.5 c1.7 1.9 3.9 4.7 5 6.3 l2 2.7 -3 0 c-2.6 0 -3.1 -0.4 -3.1 -2.5z"/>
  <path d="M634.8 195.2 c-0.4 -0.9 -16.8 -5.2 -20.2 -5.2 -2 0 -2.6 -0.5 -2.6 -2.1 0 -2 0.4 -2.1 4.8 -1.4 10.9 1.5 25.2 6.3 25.2 8.5 0 1.1 -6.7 1.4 -7.2 0.2z"/>
  <path d="M473.9 190.1 c-1.1 -1.6 -3.2 -3.5 -4.5 -4.2 -3.4 -1.8 -3 -2.9 1.1 -2.9 2.4 0 3.5 0.5 3.5 1.5 0 0.8 0.7 1.5 1.5 1.5 1 0 1.5 1.1 1.5 3.5 0 1.9 -0.2 3.5 -0.5 3.5 -0.2 0 -1.4 -1.3 -2.6 -2.9z"/>
  <path d="M601 187.6 c0 -1.6 2.5 -2.4 5.3 -1.8 3.2 0.8 1.9 3.2 -1.8 3.2 -2.4 0 -3.5 -0.5 -3.5 -1.4z"/>
  <path d="M431 185.1 c0 -2.7 20 -20.1 23.1 -20.1 0.5 0 0.9 1.1 0.9 2.5 0 1.6 -0.6 2.5 -1.5 2.5 -0.8 0 -1.5 0.5 -1.5 1 0 0.6 -0.9 1 -2 1 -1.1 0 -2 0.7 -2 1.5 0 0.9 -0.9 1.5 -2.4 1.5 -1.8 0 -2.5 0.6 -2.8 2.3 -0.2 1.5 -1.1 2.3 -3 2.5 -2.1 0.3 -2.7 0.9 -3 3 -0.2 2.1 -0.9 2.8 -3 3 -1.6 0.2 -2.8 -0.1 -2.8 -0.7z"/>
  <path d="M459 162.9 c0 -1.1 6.1 -3.9 8.4 -3.9 0.8 0 2.8 1.1 4.3 2.4 l2.8 2.5 -7.7 0 c-4.5 0 -7.8 -0.4 -7.8 -1z"/>
 </g>
 <g fill="#59585a">
  <path d="M459.8 832.3 c-1 -0.2 -1.8 -1.1 -1.8 -1.9 0 -1.1 1.9 -1.4 9.5 -1.4 7.4 0 9.5 0.3 9.5 1.4 0 0.7 -1 1.6 -2.2 2 -2.6 0.6 -12.4 0.6 -15 -0.1z"/>
  <path d="M442.7 830.4 c-14.6 -2.7 -41.7 -12.6 -41.7 -15.3 0 -2 5.6 -1.1 12.1 1.8 11.6 5.2 32.7 11.1 40 11.1 2.2 0 2.9 0.5 2.9 2 0 2.4 -1.8 2.4 -13.3 0.4z"/>
  <path d="M479 830.2 c0 -1.4 1.4 -2 7.4 -2.9 4 -0.7 10.1 -2.1 13.4 -3.2 7.7 -2.6 12.3 -2.6 21.4 -0.1 4 1.1 10 2.3 13.5 2.6 5.4 0.6 6.3 1 6.3 2.6 0 1.8 -0.5 1.9 -6.2 1.3 -3.5 -0.4 -10.5 -1.8 -15.7 -3.1 l-9.3 -2.3 -5.7 1.8 c-6.1 2.1 -19.8 5.1 -23.1 5.1 -1.2 0 -2 -0.7 -2 -1.8z"/>
  <path d="M560 829.1 c0 -1.7 0.6 -2.1 3.1 -2.1 4.2 0 25 -4.7 31.9 -7.2 7.4 -2.7 29.2 -13 30.8 -14.5 0.7 -0.7 2 -1.3 2.8 -1.3 0.8 0 1.4 -0.4 1.4 -1 0 -0.5 0.7 -1 1.5 -1 0.8 0 1.5 -0.4 1.5 -1 0 -0.5 0.7 -1 1.5 -1 0.8 0 1.5 -0.4 1.5 -1 0 -0.5 0.9 -1 2 -1 1.1 0 2 -0.7 2 -1.5 0 -0.8 0.8 -1.5 1.9 -1.5 1 0 2.1 -0.9 2.4 -2 0.3 -1.4 1.4 -2 3.1 -2 1.9 0 2.6 -0.5 2.6 -1.9 0 -2.7 2.4 -4.3 6.2 -3.9 l3.3 0.3 -7.5 6.3 c-25 21.2 -56 35.1 -86.2 38.7 -5.5 0.7 -5.8 0.6 -5.8 -1.4z"/>
  <path d="M465 818 c0 -1.8 0.7 -2 6.5 -2 5.8 0 6.5 0.2 6.5 2 0 1.8 -0.7 2 -6.5 2 -5.8 0 -6.5 -0.2 -6.5 -2z"/>
  <path d="M534 816.5 c0 -3.3 0.2 -3.5 3.2 -3.5 2.5 0 2.9 0.3 2 1.2 -1.6 1.6 -1.5 2.8 0.3 2.8 0.8 0 1.5 0.7 1.5 1.5 0 1 -1.1 1.5 -3.5 1.5 -3.3 0 -3.5 -0.2 -3.5 -3.5z"/>
  <path d="M548 818.6 c0 -0.7 1 -1.6 2.3 -2 4.1 -1.1 5.7 -0.7 5.7 1.4 0 1.7 -0.7 2 -4 2 -2.7 0 -4 -0.4 -4 -1.4z"/>
  <path d="M450.3 818.3 c-2.5 -0.3 -3.3 -0.9 -3.3 -2.5 0 -1.8 0.4 -1.9 3.8 -1.4 8.1 1.4 9.2 1.8 9.2 3.2 0 1.4 -2.4 1.6 -9.7 0.7z"/>
  <path d="M482 817.7 c0 -1.1 1.3 -1.8 3.8 -2.2 2 -0.4 6.7 -1.5 10.5 -2.4 l6.7 -1.8 0 2.2 c0 1.8 -0.9 2.4 -5.1 3.3 -2.8 0.7 -7.5 1.5 -10.5 1.8 -4.5 0.6 -5.4 0.4 -5.4 -0.9z"/>
  <path d="M558 817.5 c0 -0.8 0.3 -1.5 0.8 -1.5 5.4 -0.1 29.2 -7 39.5 -11.4 3.7 -1.6 3.7 -1.6 3.7 0.8 0 2.4 -1.6 3.6 -5 3.6 -1 0 -2 0.4 -2.2 0.9 -0.8 2 -27.5 9.1 -34.3 9.1 -1.6 0 -2.5 -0.6 -2.5 -1.5z"/>
  <path d="M429 813.1 c-14.8 -4.9 -17 -6 -17 -8.7 l0 -2.4 3.8 1.6 c2 1 9.2 3.6 15.9 5.8 6.9 2.3 12.3 4.6 12.3 5.4 0 2 -5.8 1.3 -15 -1.7z"/>
  <path d="M390.5 810.4 c-9.6 -5.5 -21 -13.7 -28.5 -20.4 l-5.5 -4.9 3.6 -0.1 c3.8 0 5.9 1.4 5.9 4.2 0 1.3 0.8 1.8 2.6 1.8 1.7 0 2.8 0.6 3.1 2 0.3 1.1 1.4 2 2.4 2 1.1 0 1.9 0.5 1.9 1 0 0.6 0.7 1 1.5 1 0.9 0 1.8 0.7 2.1 1.5 0.4 0.8 1.2 1.5 2 1.5 0.8 0 1.4 0.5 1.4 1 0 0.6 0.7 1 1.5 1 0.8 0 1.5 0.4 1.5 0.9 0 0.5 1.1 1.2 2.5 1.5 1.4 0.4 2.5 1.3 2.5 2.1 0 0.8 0.9 1.5 2 1.5 3.7 0 7 2.2 7 4.7 0 1.2 -0.3 2.3 -0.7 2.3 -0.5 0 -4.4 -2.1 -8.8 -4.6z"/>
  <path d="M504 811.3 c0 -0.5 1.6 -1.8 3.5 -3.1 l3.5 -2.2 0 3 c0 2.8 -0.3 3 -3.5 3 -1.9 0 -3.5 -0.3 -3.5 -0.7z"/>
  <path d="M541 809 c0 -2 0.5 -3 1.5 -3 0.8 0 1.5 -0.4 1.5 -1 0 -0.5 1.6 -1 3.5 -1 1.9 0 3.5 0.3 3.5 0.8 0 0.4 -2.3 2.2 -5 4 l-5 3.2 0 -3z"/>
  <path d="M514.9 800.8 c1.7 -2.3 2.9 -4.3 2.8 -4.4 -0.2 -0.2 -3.6 0.7 -7.7 2 -4.1 1.3 -9.4 2.7 -11.7 3.1 -3.8 0.6 -4.3 0.4 -4.3 -1.2 0 -1.4 1.5 -2.2 6.8 -3.5 3.7 -1 8.5 -2.3 10.8 -2.9 2.2 -0.7 5.2 -0.9 6.7 -0.5 2.3 0.5 2.7 1.2 2.7 4.1 0 1.9 -0.4 3.5 -0.9 3.5 -0.5 0 -1.1 0.9 -1.4 2 -0.4 1.5 -1.4 2 -3.7 2 l-3.2 0 3.1 -4.2z"/>
  <path d="M554 801.5 c0 -2.2 0.4 -2.5 3.6 -2.5 4.4 0 4.2 1.8 -0.4 3.7 -3.1 1.3 -3.2 1.2 -3.2 -1.2z"/>
  <path d="M402.3 801.8 c-1.3 -0.6 -2.3 -1.7 -2.3 -2.5 0 -0.7 -1.1 -1.3 -2.5 -1.3 -2 0 -2.5 -0.5 -2.5 -2.5 0 -1.4 0.2 -2.5 0.5 -2.5 1.2 0 15.5 8.5 15.5 9.2 0 1.2 -6.1 0.9 -8.7 -0.4z"/>
  <path d="M471.8 802.3 c-1 -0.2 -1.8 -1.1 -1.8 -1.9 0 -1 1.3 -1.4 5 -1.4 4.3 0 5 0.3 5 2 0 1.6 -0.6 2 -3.2 1.9 -1.8 -0.1 -4.1 -0.3 -5 -0.6z"/>
  <path d="M483 801 c0 -1.7 0.7 -2 5 -2 3.6 0 5 0.4 5 1.4 0 1.5 -3 2.6 -7.2 2.6 -2.1 0 -2.8 -0.5 -2.8 -2z"/>
  <path d="M457.5 800.4 c-7.5 -1.6 -23.2 -6.7 -27.7 -9 -3.5 -1.8 -3.6 -3.4 -0.1 -3.4 3.2 0 9.3 2.1 9.3 3.2 0 0.4 0.7 0.8 1.5 0.8 0.8 0 5.3 1.1 10 2.5 4.6 1.3 10.7 2.7 13.5 3.1 4 0.5 5 1 5 2.5 0 2.3 -1.7 2.3 -11.5 0.3z"/>
  <path d="M563 798 c0 -1.6 0.7 -2 3.5 -2 1.9 0 3.5 -0.4 3.5 -0.8 0 -0.8 12.3 -4.2 15.3 -4.2 0.9 0 1.7 -0.4 1.7 -0.8 0 -1.1 6.1 -3.2 9.4 -3.2 4.3 0 2.6 2.2 -3.6 4.7 -5.2 2.1 -26.7 8.3 -28.8 8.3 -0.6 0 -1 -0.9 -1 -2z"/>
  <path d="M611 799.2 c0 -0.4 1.5 -1.6 3.3 -2.6 6.5 -3.8 18.4 -12.1 24.7 -17.3 5.8 -4.8 6.5 -5.2 6.8 -3.3 0.5 3.4 -0.5 5 -3.3 5 -1.8 0 -2.5 0.5 -2.5 2 0 1.5 -0.7 2 -2.5 2 -1.8 0 -2.5 0.5 -2.5 2 0 1.1 -0.7 2 -1.5 2 -0.8 0 -1.5 0.5 -1.5 1 0 0.6 -0.7 1 -1.5 1 -0.8 0 -1.5 0.5 -1.5 1 0 0.6 -1.3 1 -3 1 -2.3 0 -3 0.4 -3 2 0 1.5 -0.7 2 -2.5 2 -1.6 0 -2.5 0.6 -2.5 1.5 0 1 -1.1 1.5 -3.5 1.5 -1.9 0 -3.5 -0.4 -3.5 -0.8z"/>
  <path d="M387 791.5 c0 -0.8 -0.9 -1.5 -2 -1.5 -1.1 0 -2 -0.4 -2 -1 0 -0.5 -0.7 -1 -1.5 -1 -0.8 0 -1.5 -0.9 -1.5 -2 0 -1.5 -0.7 -2 -2.5 -2 -2 0 -2.5 -0.5 -2.5 -2.5 0 -2.1 -0.5 -2.5 -3 -2.5 -3.2 0 -4.4 -1.5 -3.8 -4.9 0.3 -1.9 1.2 -1.4 7.8 4.1 4.2 3.5 9.9 7.9 12.8 9.8 2.8 1.9 5.2 3.8 5.2 4.3 0 0.4 -1.6 0.7 -3.5 0.7 -2.4 0 -3.5 -0.5 -3.5 -1.5z"/>
  <path d="M461 790.3 c-4.7 -0.8 -8.6 -1.9 -8.8 -2.4 -0.2 -0.5 -1.5 -0.9 -2.9 -0.9 -3.4 0 -10.3 -2.1 -10.3 -3.2 0 -0.4 -1.1 -0.8 -2.5 -0.8 -1.6 0 -2.5 -0.6 -2.5 -1.5 0 -1 -1 -1.5 -3 -1.5 -3.7 0 -10 -2.9 -10 -4.7 0 -0.7 -1.1 -1.3 -2.5 -1.3 -1.6 0 -2.5 -0.6 -2.5 -1.5 0 -0.9 -0.9 -1.5 -2.5 -1.5 -1.4 0 -2.5 -0.4 -2.5 -1 0 -0.5 -0.7 -1 -1.5 -1 -0.8 0 -1.5 -0.4 -1.5 -1 0 -0.5 -0.7 -1 -1.5 -1 -0.8 0 -1.5 -0.4 -1.5 -1 0 -0.5 -0.7 -1 -1.5 -1 -1 0 -1.5 -1 -1.5 -3 l0 -3 9.3 6.1 c12.3 8.1 22.7 13.3 35 17.4 8.9 2.9 13.5 3.9 29.5 6.1 1.9 0.3 3.2 1.1 3.2 1.9 0 1.9 -6.5 1.8 -18 -0.2z"/>
  <path d="M487 790.6 c0 -1.5 1.7 -2 10.4 -3.1 6.1 -0.8 17.3 -4.2 20.3 -6.1 1.4 -0.9 2 -2 1.6 -3.4 -0.4 -1.5 -0.1 -2 1.6 -2 1.8 0 2.1 0.6 2.1 4 0 3.8 -0.2 4 -3 4 -1.9 0 -3 0.5 -3 1.4 0 1.4 -7.2 3.7 -17.4 5.5 -8.4 1.5 -12.6 1.4 -12.6 -0.3z"/>
  <path d="M602 785.1 c0 -1.9 2.5 -3.1 7 -3.1 2.3 0 2.1 0.2 -1.5 2.5 -4.9 3 -5.5 3 -5.5 0.6z"/>
  <path d="M585 785.1 c0 -0.5 -1.2 -1.1 -2.7 -1.3 -2.4 -0.3 -2.8 -0.8 -3.1 -4 -0.4 -4.6 0.2 -4.7 3.3 -0.9 1.7 1.9 3.8 3.1 6.5 3.5 5.5 0.9 5.5 3.6 0 3.6 -2.2 0 -4 -0.4 -4 -0.9z"/>
  <path d="M410.7 781.5 c-7.4 -4.4 -18.7 -12.9 -25.2 -18.8 l-5 -4.6 3.6 -0.1 c4.1 0 5.9 1.4 5.9 4.7 0 1.9 0.5 2.3 3.1 2.3 2.2 0 3.2 0.5 3.6 2 0.3 1.1 1.4 2 2.4 2 1.4 0 1.9 0.7 1.9 2.5 0 2.2 0.4 2.5 3.5 2.5 1.9 0 3.5 0.5 3.5 1 0 0.6 0.6 1 1.4 1 0.8 0 2.1 0.6 2.8 1.4 0.8 0.7 2.4 1.7 3.6 2 1.5 0.5 2.2 1.5 2.2 3.2 0 1.3 -0.3 2.4 -0.7 2.4 -0.5 0 -3.4 -1.6 -6.6 -3.5z"/>
  <path d="M526 777.6 c0 -0.9 0.2 -1.6 0.4 -1.6 3.5 0 19.5 -3.7 25.6 -5.9 l8 -3 0 2.5 c0 1.9 -0.5 2.4 -2.4 2.4 -1.3 0 -2.6 0.4 -2.8 1 -0.4 1.3 -14.4 4.8 -22.4 5.6 -5.5 0.6 -6.4 0.5 -6.4 -1z"/>
  <path d="M667.2 773.5 c0.3 -3.7 0.5 -4 3.6 -4.3 2.9 -0.3 3.2 -0.6 3.2 -3.8 0 -2.4 0.5 -3.4 1.5 -3.4 0.8 0 1.5 -0.9 1.5 -2 0 -1.1 0.7 -2 1.5 -2 0.8 0 1.5 -0.9 1.5 -2 0 -1.5 0.7 -2 2.5 -2 2.2 0 2.5 -0.4 2.5 -3.5 0 -1.9 0.5 -3.5 1 -3.5 0.6 0 1 -0.6 1 -1.4 0 -0.8 0.6 -2.1 1.4 -2.8 0.7 -0.8 1.7 -2.4 2 -3.6 0.4 -1.2 1.4 -2.2 2.2 -2.2 0.8 0 1.4 -0.9 1.4 -2 0 -2 5.6 -14 7 -15 0.4 -0.3 1 -1.6 1.3 -3 0.3 -1.4 2.4 -7.6 4.6 -13.8 4 -11.2 9.1 -32.9 9.1 -39.1 0 -2.4 0.4 -3.1 2 -3.1 2.5 0 2.5 0.8 0.1 15.2 -6.1 35.1 -23.3 70.7 -46.6 96.3 l-4.5 5 0.2 -4z"/>
  <path d="M340.9 768.9 c-9.1 -10.8 -22.9 -31.3 -22.9 -34.1 0 -0.4 1.1 -0.8 2.3 -0.8 2.5 0 4.7 3.3 4.7 7 0 1.1 0.7 2 1.5 2 0.8 0 1.5 0.7 1.5 1.5 0 0.8 0.5 1.5 1 1.5 0.6 0 1 0.7 1 1.5 0 0.8 0.5 1.5 1 1.5 0.6 0 1 0.7 1 1.5 0 0.8 0.5 1.5 1 1.5 0.6 0 1 0.9 1 2 0 1.1 0.7 2 1.5 2 0.8 0 1.5 0.8 1.5 1.9 0 1 0.9 2.1 2 2.4 1.4 0.3 2 1.4 2 3.1 0 1.9 0.5 2.6 2 2.6 2.4 0 3.3 1.7 2.8 5.6 -0.3 2.7 -0.4 2.6 -4.9 -2.7z"/>
  <path d="M581 768.6 c0 -3.3 0.2 -3.6 3.1 -3.6 l3 0 -2.1 3 c-3.1 4.4 -4 4.5 -4 0.6z"/>
  <path d="M565.1 765.3 c0 -0.5 4.3 -3.6 9.5 -7 l9.4 -6.2 0 3 c0 2.2 -0.5 2.9 -2 2.9 -1.1 0 -2 0.7 -2 1.5 0 0.8 -0.7 1.5 -1.5 1.5 -0.8 0 -1.5 0.5 -1.5 1 0 0.6 -0.5 1 -1.1 1 -0.6 0 -1.7 0.7 -2.5 1.5 -1.6 1.5 -8.4 2.1 -8.3 0.8z"/>
  <path d="M657.1 762.3 c0.8 -1 3.6 -4.4 6.2 -7.7 7.1 -8.6 15.9 -22.1 20.6 -31.4 4.3 -8.6 6.1 -10.1 6.1 -5.2 0 3.7 -4.9 14 -6.7 14 -0.7 0 -1.3 1.1 -1.3 2.5 0 1.4 -0.4 2.5 -1 2.5 -0.5 0 -1 0.7 -1 1.5 0 0.8 -0.4 1.5 -1 1.5 -0.5 0 -1 0.7 -1 1.5 0 0.8 -0.4 1.5 -1 1.5 -0.5 0 -1 0.7 -1 1.5 0 0.8 -0.4 1.5 -1 1.5 -0.5 0 -1 0.7 -1 1.5 0 0.8 -0.7 1.5 -1.5 1.5 -0.8 0 -1.5 0.9 -1.5 2 0 1.1 -0.6 2 -1.4 2 -0.8 0 -1.6 1 -1.8 2.3 -0.2 1.4 -1.1 2.3 -2.5 2.5 -1.5 0.2 -2.3 1.1 -2.5 3 -0.3 2.3 -0.9 2.8 -3.7 3 -3.2 0.3 -3.4 0.2 -2 -1.5z"/>
  <path d="M353 759.5 c0 -3.2 -0.2 -3.5 -3 -3.5 -2.3 0 -3 -0.4 -3 -2 0 -1.1 -0.7 -2 -1.5 -2 -0.8 0 -1.5 -0.9 -1.5 -2 0 -1.1 -0.7 -2 -1.5 -2 -0.8 0 -1.5 -0.7 -1.5 -1.5 0 -0.8 -0.4 -1.5 -1 -1.5 -0.5 0 -1 -1.6 -1 -3.5 0 -3.4 1.3 -4.7 2.3 -2.2 0.4 1.2 10.2 14.2 15.3 20.5 l2.7 3.2 -3.2 0 c-2.9 0 -3.1 -0.2 -3.1 -3.5z"/>
  <path d="M589 759.5 c0 -2.8 0.5 -3.8 2 -4.2 1.1 -0.3 2 -1.4 2 -2.4 0 -1.2 0.7 -1.9 2 -1.9 1.6 0 2 -0.7 2 -3 0 -2.5 0.4 -3 2.5 -3 1.4 0 2.5 0.4 2.5 0.8 0 1.2 -9.3 14.4 -11.4 16.1 -1.4 1.2 -1.6 1 -1.6 -2.4z"/>
  <path d="M392.4 756.6 c-0.3 -0.8 -0.4 -2.4 -0.2 -3.6 0.3 -2 0.5 -2 4.3 1.4 l4 3.5 -3.8 0.1 c-2.4 0 -4 -0.5 -4.3 -1.4z"/>
  <path d="M370.2 747 c-6.3 -7.4 -14.6 -19.1 -15.8 -22.3 -0.5 -1.3 0 -1.7 2 -1.7 2.1 0 2.6 0.5 2.6 2.5 0 1.6 0.6 2.5 1.5 2.5 0.8 0 1.5 0.7 1.5 1.5 0 0.8 0.5 1.5 1 1.5 0.6 0 1 0.9 1 2 0 1.1 0.7 2 1.5 2 0.8 0 1.5 0.9 1.5 2 0 1.1 0.7 2 1.5 2 1 0 1.5 1 1.5 3 0 2.5 0.4 3 2.4 3 3.2 0 4.8 2.2 4.4 6.2 l-0.3 3.3 -6.3 -7.5z"/>
  <path d="M589 746.4 l4.5 -4.5 0.3 3.1 c0.4 4.2 -1.3 6 -5.6 6 l-3.6 0 4.4 -4.6z"/>
  <path d="M379.7 745.2 c-3.6 -3.6 -4.7 -5.5 -4.7 -7.9 0 -2.8 -0.3 -3.2 -3.2 -3.5 -2.8 -0.2 -3.4 -0.8 -3.6 -3 -0.2 -2 -0.9 -2.8 -2.3 -2.8 -1.5 0 -1.9 -0.7 -1.9 -3.7 l0.1 -3.8 4.2 5 c2.3 2.8 8.4 9.4 13.6 14.8 l9.5 9.7 -3.5 0 c-2.8 0 -4.4 -0.9 -8.2 -4.8z"/>
  <path d="M601 742.6 c0 -0.9 -1.2 -1.6 -3.1 -1.8 l-3 -0.3 4.8 -6 c2.6 -3.4 5.7 -7.8 6.8 -10 1.7 -3.4 2 -3.6 2.3 -1.7 0.8 5.1 -4.4 21.2 -6.7 21.2 -0.6 0 -1.1 -0.6 -1.1 -1.4z"/>
  <path d="M333.6 735.4 c-0.9 -2.3 -0.7 -7.4 0.2 -7.4 0.8 0 5.2 7.1 5.2 8.4 0 1.4 -4.8 0.5 -5.4 -1z"/>
  <path d="M312.5 723.7 c-6.1 -13.8 -12.1 -35.5 -14 -50.4 -0.6 -4.7 -0.5 -5.3 1.2 -5.3 1.5 0 2.1 1.6 3.5 10.3 0.9 5.6 2.9 14.3 4.4 19.2 1.5 5 3.2 10.9 3.8 13.3 0.6 2.3 1.4 4.2 1.8 4.2 0.5 0 0.8 0.9 0.8 2.1 0 1.1 0.7 2.7 1.5 3.5 1.7 1.7 2.1 8.4 0.4 8.4 -0.5 0 -2.1 -2.4 -3.4 -5.3z"/>
  <path d="M328 722.5 c0 -2.3 -0.5 -3.5 -1.4 -3.5 -1.5 0 -2.6 -2.1 -2.6 -5 0 -1 -0.5 -2 -1.1 -2.2 -0.5 -0.2 -1.3 -2.2 -1.6 -4.6 -0.3 -2.3 -0.9 -4.2 -1.3 -4.2 -1.2 0 -4.8 -14.3 -6.5 -25.5 -1.9 -12.8 -1.9 -16.5 0 -16.5 0.8 0 1.6 1.3 1.9 3.3 0.3 1.7 1 6.8 1.6 11.2 2 13.8 6.4 28.7 12.6 42.4 1.9 4 3.4 7.5 3.4 7.7 0 0.2 -1.1 0.4 -2.5 0.4 -2.2 0 -2.5 -0.4 -2.5 -3.5z"/>
  <path d="M358 718 c0 -1.1 -0.7 -2 -1.5 -2 -0.8 0 -1.5 -0.7 -1.5 -1.5 0 -0.8 -0.4 -1.5 -1 -1.5 -0.5 0 -1 -1.6 -1 -3.5 0 -1.9 0.3 -3.5 0.8 -3.5 0.4 0.1 2.8 3.2 5.5 7 l4.7 7 -3 0 c-2.3 0 -3 -0.4 -3 -2z"/>
  <path d="M346.9 709.3 c-3.1 -7.3 -3.5 -10 -1.3 -10.6 1.6 -0.4 1.6 -0.5 0.2 -0.6 -2 -0.1 -4.4 -6.4 -5.3 -13.6 -0.6 -4.9 -0.5 -4.8 6 7.3 3.6 6.8 6.5 12.6 6.5 12.8 0 0.2 -0.9 0.4 -2 0.4 -1.1 0 -2 0.5 -2 1 0 0.6 0.5 1 1 1 0.6 0 1 1.6 1 3.5 0 4.9 -1.7 4.4 -4.1 -1.2z"/>
  <path d="M693.6 700.3 c3.2 -9.8 8.4 -31.1 8.4 -34.9 0 -0.2 0.7 -0.4 1.5 -0.4 1 0 1.5 1 1.5 2.8 0 4.7 -4.9 26.7 -6 27 -0.5 0.2 -1 1.6 -1 3 0 1.5 -1 5.5 -2.2 9 -1.8 5 -2.6 6.2 -4.4 6.2 -2.1 0 -2.1 -0.3 2.2 -12.7z"/>
  <path d="M377.7 692.5 c-7.8 -6.3 -15.3 -17.3 -19.6 -28.7 -1 -2.6 -0.9 -2.8 1.4 -2.8 2.2 0 2.5 0.4 2.5 3.5 0 2.4 0.5 3.5 1.5 3.5 1 0 1.5 1.1 1.5 3.5 0 2.8 0.4 3.5 1.9 3.5 1.1 0 2.2 0.8 2.4 1.8 0.3 0.9 0.3 -0.3 0 -2.8 -0.4 -2.5 -1 -4.7 -1.4 -5 -1.2 -0.8 -4.7 -16.2 -5.5 -24.1 -0.5 -5.8 -0.4 -6.9 0.9 -6.9 1.6 0 2.6 2.8 2.7 7.5 0.1 4 5 22.3 8.3 30.8 1.7 4.5 2.2 6.7 1.4 6.7 -0.7 0 -0.2 0.8 0.9 1.8 2 1.5 8.1 12.2 7 12.2 -0.2 0 -2.9 -2 -5.9 -4.5z"/>
  <path d="M297.6 661.8 c-1.2 -4.8 -0.7 -7.8 1.4 -7.8 1.7 0 2 0.7 2 5 0 3.6 -0.4 5 -1.4 5 -0.7 0 -1.6 -1 -2 -2.2z"/>
  <path d="M702 662.3 c0 -3.4 1.2 -6.3 2.6 -6.3 1 0 1.4 1.3 1.4 4 0 3.3 -0.3 4 -2 4 -1.2 0 -2 -0.7 -2 -1.7z"/>
  <path d="M354.7 652.8 c-0.8 -3.5 -1.8 -8.2 -2.2 -10.5 -0.6 -3.8 -0.4 -4.3 1.2 -4.3 1.5 0 2.1 1.3 3.2 6.8 2.3 11.3 2.5 14.2 0.8 14.2 -1 0 -2 -2.1 -3 -6.2z"/>
  <path d="M717 646.5 c0 -9.1 0.3 -11.5 1.4 -11.5 1.9 0 2.6 3.2 2.6 11.5 0 8.3 -0.7 11.5 -2.6 11.5 -1.1 0 -1.4 -2.4 -1.4 -11.5z"/>
  <path d="M297 646.3 c0 -6.2 0.9 -9.3 2.6 -9.3 1.1 0 1.4 1.7 1.4 7 0 6.3 -0.2 7 -2 7 -1.7 0 -2 -0.7 -2 -4.7z"/>
  <path d="M312 637.8 c0.1 -5 1.8 -16.3 4.1 -26.5 1.8 -8 2.3 -9.3 4.1 -9.3 1.6 0 1.9 0.5 1.5 2.3 -2.4 9.6 -5.7 26.7 -5.7 29.2 0 4.5 -1.1 7.5 -2.6 7.5 -0.9 0 -1.4 -1.1 -1.4 -3.2z"/>
  <path d="M351.6 633.8 c-1.2 -4.5 -0.7 -6.8 1.4 -6.8 1.7 0 2 0.7 2 4.5 0 4.9 -2.3 6.4 -3.4 2.3z"/>
  <path d="M298.5 629.8 c2.6 -20.7 14.6 -57.8 18.6 -57.8 1.9 0 0.4 6.9 -3.4 16 -4.8 11.3 -8.5 24.3 -10.5 36.7 -1.4 8.7 -2 10.3 -3.5 10.3 -1.7 0 -1.8 -0.6 -1.2 -5.2z"/>
  <path d="M361 626 c0 -7.1 0.2 -8 1.9 -8 1.6 0 1.9 0.9 1.9 8 0.1 7.3 0 8 -1.8 8 -1.8 0 -2 -0.7 -2 -8z"/>
  <path d="M686 632 c-2.2 -4 2.7 -8.3 7 -6 1.1 0.6 2 2 2 3.2 0 1.7 -0.5 1.9 -2.6 1.5 -2 -0.3 -2.8 0 -3.1 1.4 -0.7 2.5 -2 2.4 -3.3 -0.1z"/>
  <path d="M702.5 629.3 c-1.5 -8.8 -5.7 -26.6 -7.5 -31.8 l-1.9 -5.5 2.3 0 c2.5 0 3.6 2.1 3.6 7.2 0 1.4 0.4 2.8 0.9 3 1.1 0.3 6.1 23.8 6.1 28.2 0 4.1 -2.8 3.2 -3.5 -1.1z"/>
  <path d="M716 629.3 c0 -6.1 -4.5 -25.9 -8.4 -37 -2 -5.6 -3.6 -10.9 -3.6 -11.7 0 -0.8 -0.4 -1.6 -0.9 -1.8 -1.3 -0.5 -8.1 -14.5 -8.1 -16.8 0 -1.1 -0.7 -2 -1.5 -2 -1 0 -1.5 -1 -1.5 -3 0 -2.3 -0.4 -3 -2 -3 -1.1 0 -2 -0.7 -2 -1.5 0 -0.8 -0.4 -1.5 -1 -1.5 -0.5 0 -1 -0.7 -1 -1.5 0 -0.8 -0.4 -1.5 -1 -1.5 -0.5 0 -1 -0.8 -1 -1.9 0 -1 -0.9 -2.1 -2 -2.4 -1.3 -0.3 -2 -1.4 -2 -3 0 -1.9 -0.6 -2.6 -2.2 -2.9 -1.9 -0.2 -2.3 -1 -2.6 -4.3 l-0.2 -4 4.5 5 c7.1 7.8 19 26 24.4 37.5 8.1 17.4 13.5 36.3 15.7 55.3 0.6 5.3 0.5 5.7 -1.5 5.7 -1.8 0 -2.1 -0.6 -2.1 -3.7z"/>
  <path d="M662 626 c-1.1 -1.1 -2 -3.3 -2 -4.8 0 -5.6 6.8 -8.3 10.5 -4.2 1.8 2 1.7 2 -2.3 2 -4.3 0 -5.4 1.4 -3 3.8 1.6 1.6 2.8 1.5 2.8 -0.3 0 -0.8 0.9 -1.5 2 -1.5 2.8 0 2.6 3.5 -0.2 5.4 -3 2.1 -5.4 2 -7.8 -0.4z"/>
  <path d="M351 617.8 c0 -3.9 1.2 -6.8 2.6 -6.8 1 0 1.4 1.3 1.4 4.5 0 3.8 -0.3 4.5 -2 4.5 -1.4 0 -2 -0.7 -2 -2.2z"/>
  <path d="M362 611.6 c0 -7.7 7.1 -34.6 9.1 -34.6 0.5 0 0.9 -0.9 0.9 -2 0 -2.9 4.2 -11 5.7 -11 0.7 0 1.3 -1.1 1.3 -2.5 0 -1.6 0.6 -2.5 1.5 -2.5 0.9 0 1.5 -0.9 1.5 -2.5 0 -1.4 0.5 -2.5 1 -2.5 0.6 0 1 -0.7 1 -1.5 0 -1 1 -1.5 3 -1.5 l3 0 -4.4 6.8 c-10.7 16.6 -16.3 31.2 -20 52.5 -0.8 4.2 -3.6 5.3 -3.6 1.3z"/>
  <path d="M675.1 610.4 c-2.8 -3.6 -2.6 -5.8 0.5 -8.3 3.3 -2.6 5.6 -2.7 7.9 -0.1 2.4 2.7 2.2 7 -0.5 9.2 -3.1 2.5 -5.5 2.3 -7.9 -0.8z m5.9 -4.5 c0 -1.3 -0.7 -1.9 -2.1 -1.9 -1.5 0 -1.9 0.4 -1.5 1.6 0.3 0.9 0.6 2 0.6 2.5 0 0.4 0.7 0.6 1.5 0.3 0.8 -0.4 1.5 -1.5 1.5 -2.5z"/>
  <path d="M352.5 604.3 c1.7 -11.8 6.5 -27.3 8.4 -27.3 1.8 0 1.3 4.4 -1.5 13.7 -1.4 4.9 -2.8 10.9 -3.1 13.6 -0.5 3.8 -0.9 4.7 -2.6 4.7 -1.7 0 -1.9 -0.5 -1.2 -4.7z"/>
  <path d="M322 593.5 c0 -1.9 0.5 -3.5 1 -3.5 0.6 0 1 -1.1 1 -2.5 0 -2 0.5 -2.5 2.5 -2.5 l2.5 0 -2.1 5.2 c-2.5 6.3 -2.8 6.8 -4 6.8 -0.5 0 -0.9 -1.6 -0.9 -3.5z"/>
  <path d="M656.5 594 c-1.5 -1.6 -1.7 -2.6 -0.9 -4.8 1.7 -5 9.4 -3.9 9.4 1.4 0 4.9 -5.2 7 -8.5 3.4z"/>
  <path d="M692.6 590.1 c-0.3 -0.4 -1 -2 -1.5 -3.5 -1 -2.4 -0.8 -2.6 1.4 -2.6 2.2 0 2.5 0.4 2.5 3.5 0 3.3 -1.2 4.6 -2.4 2.6z"/>
  <path d="M685.6 575.3 c-12.5 -24.8 -34.7 -48 -61.6 -64.4 -4.1 -2.5 -12.1 -7.2 -17.8 -10.3 -5.6 -3.2 -11.5 -6.8 -13 -8.1 l-2.7 -2.4 3.8 -0.1 c2 0 3.7 0.5 3.7 1 0 0.6 0.7 1 1.5 1 0.8 0 1.5 0.7 1.5 1.5 0 0.9 0.9 1.5 2.5 1.5 1.8 0 2.5 0.5 2.5 2 0 1.6 0.7 2 3 2 3.7 0 10 2.9 10 4.7 0 0.7 1.1 1.3 2.4 1.3 1.4 0 3.1 0.7 4 1.5 0.8 0.8 1.9 1.5 2.5 1.5 0.6 0 1.1 0.5 1.1 1 0 0.6 0.7 1 1.5 1 0.8 0 1.5 0.5 1.5 1 0 0.6 0.7 1 1.5 1 0.8 0 1.5 0.5 1.5 1 0 0.6 0.7 1 1.5 1 0.8 0 1.5 0.7 1.5 1.5 0 0.8 0.9 1.5 2 1.5 1.1 0 2 0.4 2 0.9 0 0.5 0.9 1.1 2 1.4 1.1 0.3 2 1.2 2 2 0 0.9 1 1.7 2.3 1.9 1.7 0.2 2.3 1.1 2.5 3.6 0.3 2.9 0.7 3.2 3.5 3.2 4.2 0 11.7 7.1 11.7 11.1 0 2.3 0.5 2.8 2.8 3.1 2.1 0.2 2.8 0.9 3 3.1 0.2 1.9 0.9 2.7 2.3 2.7 1 0 1.9 0.7 1.9 1.5 0 0.8 0.5 1.5 1 1.5 0.6 0 1 0.7 1 1.5 0 0.8 0.5 1.5 1 1.5 0.6 0 1 0.7 1 1.5 0 0.8 0.5 1.5 1 1.5 0.6 0 1 0.5 1 1.1 0 0.6 0.7 1.7 1.5 2.5 0.8 0.9 1.5 3.1 1.5 5 0 2.6 0.4 3.4 1.8 3.4 2.2 0 4.2 3.9 4.2 8 0 4.7 -1.7 3.5 -5.4 -3.7z"/>
  <path d="M332 572.6 c0 -1.9 0.7 -4.1 1.5 -5 0.8 -0.8 1.5 -1.9 1.5 -2.5 0 -0.6 0.7 -1.1 1.5 -1.1 0.9 0 1.5 -0.9 1.5 -2.5 0 -1.4 0.5 -2.5 1 -2.5 0.6 0 1 -0.7 1 -1.5 0 -0.8 0.7 -1.5 1.5 -1.5 0.8 0 1.5 -0.9 1.5 -2 0 -1.1 0.7 -2 1.5 -2 0.8 0 1.5 -0.9 1.5 -2 0 -1.3 0.7 -2 1.9 -2 1.4 0 2.1 -0.8 2.3 -2.7 0.2 -2.3 0.8 -2.9 3.6 -3.1 2.9 -0.3 3.2 -0.6 3.2 -3.6 0 -4 1.9 -5.9 5.5 -5.4 2.7 0.3 2.6 0.4 -3.5 7.3 -8.2 9.1 -16.6 20.4 -21.5 28.8 -2.2 3.7 -4.3 6.7 -4.7 6.7 -0.4 0 -0.8 -1.5 -0.8 -3.4z"/>
  <path d="M361 573.4 c2.6 -6.9 5 -8.5 5 -3.5 0 4.4 -1 6.1 -3.6 6.1 -2.1 0 -2.3 -0.3 -1.4 -2.6z"/>
  <path d="M319 566.2 c0 -3.1 15.5 -24.8 27.7 -38.7 l7.8 -8.9 0.3 3.3 c0.4 4.1 -2.1 7.1 -5.9 7.1 -2.5 0 -2.8 0.4 -3.1 3.8 -0.2 3 -0.7 3.8 -2.5 4 -1.7 0.3 -2.3 1 -2.3 2.8 0 1.5 -0.6 2.4 -1.5 2.4 -0.8 0 -1.5 0.9 -1.5 2 0 1.1 -0.7 2.3 -1.5 2.6 -0.8 0.4 -1.5 1.2 -1.5 2 0 0.8 -0.7 1.4 -1.5 1.4 -0.8 0 -1.5 0.9 -1.5 2 0 1.1 -0.4 2 -1 2 -0.5 0 -1 0.7 -1 1.5 0 0.8 -0.4 1.5 -1 1.5 -0.5 0 -1 0.6 -1 1.4 0 0.8 -0.6 2.1 -1.4 2.8 -0.7 0.8 -1.7 2.4 -2 3.6 -0.5 1.5 -1.5 2.2 -3.2 2.2 -1.3 0 -2.4 -0.4 -2.4 -0.8z"/>
  <path d="M368 559.2 c0 -2.8 17.8 -27.1 28.3 -38.7 l4.6 -5 0.1 3.6 c0 4.2 -1.4 5.9 -5.1 5.9 -2.5 0 -2.8 0.4 -3.1 3.8 -0.2 3 -0.7 3.8 -2.5 4 -1.7 0.3 -2.3 1 -2.3 2.8 0 1.5 -0.6 2.4 -1.5 2.4 -0.8 0 -1.5 0.9 -1.5 2 0 1.1 -0.7 2 -1.5 2 -0.8 0 -1.5 0.9 -1.5 2 0 1.1 -0.4 2 -1 2 -0.5 0 -1 0.7 -1 1.5 0 0.8 -0.4 1.5 -1 1.5 -0.5 0 -1 0.7 -1 1.5 0 0.8 -0.4 1.5 -1 1.5 -0.5 0 -1 0.7 -1 1.5 0 0.8 -0.7 1.5 -1.5 1.5 -0.9 0 -1.5 0.9 -1.5 2.5 0 2 -0.5 2.5 -2.5 2.5 -1.4 0 -2.5 -0.4 -2.5 -0.8z"/>
  <path d="M390 546.8 c0 -2.7 0.4 -3.8 1.5 -3.8 0.8 0 1.5 -0.9 1.5 -2 0 -1.3 0.7 -2 1.9 -2 1.4 0 2.1 -0.8 2.3 -2.7 0.2 -2 0.9 -2.9 2.5 -3.1 1.5 -0.2 2.3 -1.1 2.5 -3 0.2 -2.1 0.9 -2.8 3.1 -3 2.3 -0.3 2.7 -0.8 2.7 -3.3 0 -2.6 0.3 -2.9 3 -2.9 2.8 0 3 -0.3 3 -3.5 0 -2.8 0.4 -3.5 2 -3.5 1.5 0 2 -0.7 2 -2.5 0 -1.8 0.5 -2.5 2 -2.5 1.5 0 2 -0.7 2 -2.5 0 -1.6 0.6 -2.5 1.5 -2.5 0.8 0 1.5 -0.9 1.5 -2 0 -1.6 0.7 -2 3.1 -2 l3.1 0 -3.1 4.3 c-2.6 3.4 -26.8 33 -35.8 43.6 l-2.2 2.6 -0.1 -3.7z"/>
  <path d="M369 525.9 c0 -4.2 2.4 -6.9 6.3 -6.9 2.3 0 2.6 -0.5 2.9 -3.7 0.2 -3.1 0.7 -3.9 2.6 -4.1 1.6 -0.3 2.2 -1 2.2 -2.8 0 -1.5 0.6 -2.4 1.5 -2.4 0.8 0 1.5 -0.9 1.5 -2 0 -1.1 0.5 -2 1 -2 0.6 0 1 -0.7 1 -1.5 0 -0.8 0.4 -1.5 0.9 -1.5 0.5 0 1.2 -1.1 1.5 -2.5 0.5 -1.8 1.3 -2.5 3.1 -2.5 1.4 0 2.5 0.4 2.5 0.8 0 2.7 -11.7 18.2 -22.3 29.7 l-4.6 5 -0.1 -3.6z"/>
  <path d="M659.2 520.8 c-0.7 -0.7 -1.2 -2.2 -1.2 -3.5 0 -1.9 -0.5 -2.3 -3 -2.3 -2 0 -3 -0.5 -3 -1.5 0 -0.8 -0.9 -1.5 -2 -1.5 -1.1 0 -2 -0.7 -2 -1.5 0 -0.8 -0.9 -1.5 -2 -1.5 -1.1 0 -2 -0.7 -2 -1.5 0 -0.8 -0.9 -1.5 -2 -1.5 -1.1 0 -2 -0.4 -2 -1 0 -0.5 -0.7 -1 -1.5 -1 -0.8 0 -1.5 -0.9 -1.5 -1.9 0 -1.4 -0.8 -2.1 -2.7 -2.3 -1.7 -0.2 -3.2 -1.2 -3.8 -2.5 -0.5 -1.3 -1.5 -2.3 -2.1 -2.3 -1.8 0 -4.4 -3.5 -4.4 -5.8 0 -1.5 -0.6 -2.2 -2 -2.2 -1.3 0 -2 -0.7 -2 -2 0 -1.1 -0.7 -2 -1.5 -2 -0.8 0 -1.5 -0.7 -1.5 -1.5 0 -0.8 -0.4 -1.5 -1 -1.5 -0.5 0 -1 -1.1 -1 -2.5 0 -1.5 -0.6 -2.5 -1.4 -2.5 -1.7 0 -2.6 -2.2 -2.6 -6.1 0 -4.2 1.3 -3.6 4.4 2 6.9 12.8 15.9 22.5 32 34.5 6.1 4.6 13.1 10.1 15.6 12.4 l4.5 4.1 -3.5 0.1 c-2 0 -4.1 -0.5 -4.8 -1.2z"/>
  <path d="M357 516.6 c0 -0.2 3.6 -4.3 7.9 -9.1 4.4 -4.9 9.9 -11.9 12.3 -15.6 2.4 -3.8 4.6 -6.9 5.1 -6.9 1.3 0 0.7 6.8 -0.8 8.4 -0.8 0.8 -1.5 1.9 -1.5 2.5 0 0.6 -0.7 1.1 -1.5 1.1 -0.8 0 -1.5 0.9 -1.5 2 0 1.1 -0.6 2 -1.4 2 -0.8 0 -1.6 1 -1.8 2.3 -0.2 1.7 -1.1 2.3 -3.5 2.5 -3 0.3 -3.3 0.6 -3.3 3.6 0 4 -3.5 7.6 -7.3 7.6 -1.5 0 -2.7 -0.2 -2.7 -0.4z"/>
  <path d="M405.8 510.2 c1.2 -1.6 2.8 -3.5 3.7 -4.2 1.5 -1.2 1.6 -1 1.3 2.6 -0.3 3.6 -0.5 3.9 -3.7 4.2 l-3.3 0.3 2 -2.9z"/>
  <path d="M413.7 501.8 c0.6 -0.7 4 -5 7.6 -9.4 7.6 -9.6 13.5 -19.4 16.8 -28.1 2.7 -7 4.9 -8.3 4.9 -2.8 0 1.9 -0.4 3.5 -1 3.5 -0.5 0 -1 0.9 -1 1.9 0 3 -1.1 5.1 -2.6 5.1 -0.8 0 -1.4 1 -1.4 2.4 0 3.5 -1 5.6 -2.6 5.6 -0.8 0 -1.4 1 -1.4 2.5 0 2 -0.5 2.5 -2.5 2.5 -2.2 0 -2.5 0.4 -2.5 3.5 0 2.8 -0.4 3.5 -2 3.5 -1.5 0 -2 0.7 -2 2.5 0 1.8 -0.5 2.5 -1.9 2.5 -1.4 0 -2.1 0.8 -2.3 2.8 -0.3 2.3 -0.8 2.8 -3.7 3 -2.8 0.3 -3.3 0.1 -2.4 -1z"/>
  <path d="M433 491.5 c0 -3.1 0.3 -3.5 2.5 -3.5 3 0 3 0.3 0.8 4.1 -2.3 3.8 -3.3 3.7 -3.3 -0.6z"/>
  <path d="M582 482.9 c-9.7 -9.7 -13.3 -16.8 -13.8 -26.4 l-0.3 -7 3.4 7 c4.1 8.6 12.2 16.4 22.4 21.8 3.9 2 7.4 3.7 7.8 3.7 0.3 0 -0.3 -1.3 -1.4 -2.9 -1.1 -1.5 -2.5 -4 -3.1 -5.5 -0.9 -2.4 -0.7 -2.6 1.5 -2.6 1.8 0 2.6 0.7 3.1 2.5 0.3 1.4 1 2.5 1.5 2.5 0.5 0 0.9 1.6 0.9 3.5 l0 3.5 -5.4 0 c-6.4 0 -8.6 -0.7 -8.6 -2.6 0 -0.8 -1 -1.4 -2.5 -1.4 -1.4 0 -2.5 -0.4 -2.5 -1 0 -0.5 -0.4 -1 -1 -1 -0.5 0 -1 1.1 -1 2.5 0 2 0.5 2.5 2.4 2.5 3.1 0 4.8 2.2 4.4 5.7 -0.3 2.7 -0.5 2.6 -7.8 -4.8z m0 -7.9 c0 -0.5 -0.9 -1 -2 -1 -1.1 0 -2 0.5 -2 1 0 0.6 0.9 1 2 1 1.1 0 2 -0.4 2 -1z"/>
  <path d="M397 485.7 c0 -2 0.6 -4.2 1.3 -4.9 0.7 -0.7 1.8 -3.5 2.5 -6.3 0.7 -2.7 1.7 -5.2 2.1 -5.5 0.4 -0.3 1.3 -4.4 2.1 -9.2 1.1 -7.6 1.6 -8.8 3.2 -8.8 1.8 0 1.9 0.5 1.3 4.3 -1.9 12.7 -8.6 32.6 -11.2 33.5 -0.9 0.2 -1.3 -0.8 -1.3 -3.1z"/>
  <path d="M440 477.6 c0 -3.2 0.3 -3.6 2.5 -3.6 2.4 0 2.5 0.1 1.2 3.2 -1.9 4.6 -3.7 4.8 -3.7 0.4z"/>
  <path d="M387 472.3 c1.5 -4.3 3.5 -11.3 4.5 -15.5 1.1 -5.2 2.2 -7.8 3.1 -7.8 2.6 0 1.2 9.4 -3.3 23.3 -2.1 6.7 -2.8 7.7 -4.8 7.7 l-2.4 0 2.9 -7.7z"/>
  <path d="M443 469.8 c0 -5.9 1.3 -9.8 3.1 -9.8 2.2 0 2.2 0.3 0.8 7 -1.1 5.1 -3.9 7.2 -3.9 2.8z"/>
  <path d="M594.1 467.1 c-1.4 -2.6 -6.1 -17 -6.1 -18.7 0 -0.8 0.9 -1.4 2 -1.4 1.6 0 2 0.7 2 3.5 0 1.9 0.4 3.5 1 3.5 0.5 0 1.3 1.8 1.6 4 0.4 2.2 1 4 1.5 4 0.5 0 0.9 1.6 0.9 3.5 0 3.8 -1.4 4.6 -2.9 1.6z"/>
  <path d="M604.5 457 c-4.8 -14.3 -6.9 -31 -4 -31 0.9 0 1.6 1.4 2 3.8 1.5 10.1 4 20.4 6.5 27.5 l2.9 7.7 -2.4 0 c-2 0 -2.7 -1 -5 -8z"/>
  <path d="M441.4 453.4 c0.4 -2 0.7 -7.2 0.7 -11.7 0 -7.4 0.2 -8 1.5 -6.2 0.8 1 2.2 4.3 3.1 7.3 1.4 4.3 1.5 5.5 0.4 6.1 -0.8 0.5 -0.9 1 -0.3 1.2 1.1 0.4 1.5 2.2 1.3 5.2 -0.1 1.3 -1 1.7 -3.7 1.7 -3.6 0 -3.6 0 -3 -3.6z"/>
  <path d="M407 446 c0 -3.3 0.3 -4 2 -4 2.1 0 2.5 1.6 1.4 5.8 -1.1 3.9 -3.4 2.7 -3.4 -1.8z"/>
  <path d="M393 446.3 c0 -3.4 1.2 -6.3 2.6 -6.3 1 0 1.4 1.3 1.4 4 0 3.3 -0.3 4 -2 4 -1.2 0 -2 -0.7 -2 -1.7z"/>
  <path d="M586.7 442.8 c-0.3 -1.3 -0.9 -5.1 -1.3 -8.5 -0.6 -6 -0.5 -6.3 1.5 -6.3 1.5 0 2.1 0.6 2.1 2.4 0 1.2 0.3 5.1 0.6 8.5 0.6 5.1 0.4 6.1 -0.8 6.1 -0.9 0 -1.8 -1 -2.1 -2.2z"/>
  <path d="M393.6 431.8 c-0.3 -1.3 -0.6 -3.8 -0.6 -5.5 0 -2.6 0.4 -3.3 2 -3.3 1.8 0 2 0.7 2 5.5 0 4 -0.4 5.5 -1.4 5.5 -0.7 0 -1.6 -1 -2 -2.2z"/>
  <path d="M406.7 421.3 c-0.4 -4.3 -1 -10.4 -1.3 -13.5 -0.6 -4.9 -0.4 -5.8 0.9 -5.8 1.7 0 2 0.9 3.7 14.3 1.4 11.2 1.3 12.7 -0.9 12.7 -1.5 0 -1.9 -1.1 -2.4 -7.7z"/>
  <path d="M584.6 423.8 c-0.3 -1.3 -0.6 -5.1 -0.6 -8.5 0 -5.6 0.2 -6.3 2 -6.3 1.8 0 2 0.7 2 8.5 0 6.6 -0.3 8.5 -1.4 8.5 -0.7 0 -1.6 -1 -2 -2.2z"/>
  <path d="M392.7 419.8 c-0.3 -1.3 -0.9 -5.3 -1.2 -9 -0.7 -6.3 -0.6 -6.8 1.2 -6.8 1.7 0 2.1 0.9 2.6 6.8 1 9.7 0.9 11.2 -0.7 11.2 -0.8 0 -1.6 -1 -1.9 -2.2z"/>
  <path d="M598 414.5 c0 -6.8 0.2 -7.5 2 -7.5 1.1 0 2 -0.7 2 -1.5 0 -1.2 1.7 -1.5 9 -1.5 7.2 0 9 0.3 9 1.5 0 1.9 -5.8 2.9 -12.6 2.2 l-5.4 -0.6 0 7.5 c0 6.7 -0.2 7.4 -2 7.4 -1.8 0 -2 -0.7 -2 -7.5z"/>
  <path d="M623 405.3 c0 -1.5 1.6 -2.1 9.2 -3.6 5.1 -1 13.3 -3.1 18.3 -4.8 9.5 -3.2 30.1 -12.5 32.3 -14.6 0.7 -0.7 2 -1.3 2.8 -1.3 0.8 0 1.4 -0.4 1.4 -1 0 -0.5 1.1 -1 2.5 -1 1.6 0 2.5 -0.6 2.5 -1.5 0 -0.8 0.9 -1.5 2 -1.5 1.1 0 2 -0.7 2 -1.5 0 -0.8 0.7 -1.5 1.5 -1.5 0.8 0 1.5 -0.4 1.5 -1 0 -0.5 0.8 -1 1.9 -1 1 0 2.1 -0.9 2.4 -2 0.3 -1.1 1.3 -2 2.4 -2 1 0 2.3 -1 2.8 -2.2 0.7 -1.7 2 -2.4 4.8 -2.6 3.3 -0.3 3.7 -0.6 3.7 -3 0 -2 1.4 -4.2 4.9 -7.6 3.9 -3.9 5.4 -4.7 7.7 -4.4 2.8 0.4 2.7 0.6 -6.6 9.7 -13.7 13.5 -31.1 26.1 -47 34.1 -13.7 6.9 -34.7 13.7 -47.7 15.5 -4.7 0.6 -5.3 0.5 -5.3 -1.2z"/>
  <path d="M584 404.7 c0 -0.8 -1.9 -2 -4.2 -2.7 -5.7 -1.6 -11.8 -4.8 -11.8 -6 0 -1.7 5 -1.1 11.1 1.3 5.5 2.1 5.9 2.4 5.9 5.5 0 1.7 -0.2 3.2 -0.5 3.2 -0.3 0 -0.5 -0.6 -0.5 -1.3z"/>
  <path d="M428.8 399.5 c-0.6 -1 -3.8 -13.1 -3.8 -14.5 0 -0.4 1.1 -1.1 2.5 -1.4 2.1 -0.5 2.5 -1.2 2.5 -4.1 0 -1.9 0.5 -3.5 1 -3.5 0.6 0 1 -1.1 1 -2.5 0 -2 0.5 -2.5 2.4 -2.5 l2.4 0 -2.9 8.3 c-1.5 4.5 -3.2 11.1 -3.6 14.7 -0.5 3.6 -1.1 6.1 -1.5 5.5z"/>
  <path d="M561 393.3 c-4.8 -2.8 -16 -11.1 -16 -11.9 0 -0.2 1.6 -0.4 3.5 -0.4 2.4 0 3.5 0.5 3.5 1.5 0 0.8 0.9 1.5 2 1.5 1.1 0 2 0.7 2 1.5 0 0.8 0.9 1.5 2 1.5 1.1 0 2 0.7 2 1.5 0 0.8 0.9 1.5 1.9 1.5 3.5 0 5.1 1.2 5.1 3.6 0 3 -0.5 3 -6 -0.3z"/>
  <path d="M602.5 393.5 c-0.5 -0.1 -4.3 -0.8 -8.2 -1.5 -6.5 -1.1 -7.3 -1.4 -7.3 -3.4 l0 -2.2 7.3 1.8 c4.5 1.2 11.3 2 18.5 2.1 9.9 0.2 11.2 0.4 11.2 1.9 0 1.6 -1.1 1.8 -10.2 1.7 -5.7 0 -10.7 -0.2 -11.3 -0.4z"/>
  <path d="M391.5 387.3 c4.3 -34.5 25.2 -64.1 55 -77.9 7.6 -3.5 18.8 -6.8 26.8 -8 4.2 -0.6 4.7 -0.4 4.7 1.2 0 1.6 -1.5 2.2 -8.3 3.6 -11.3 2.4 -17 4 -18.5 5.5 -0.7 0.7 -2.7 1.3 -4.3 1.3 -1.9 0 -2.9 0.5 -2.9 1.5 0 0.8 -1.1 1.7 -2.5 2.1 -1.4 0.3 -2.5 1 -2.5 1.5 0 0.5 -0.7 0.9 -1.5 0.9 -0.8 0 -1.5 0.5 -1.5 1 0 0.6 -0.6 1 -1.4 1 -0.8 0 -1.6 0.7 -2 1.5 -0.3 0.9 -1.8 1.5 -3.6 1.5 -2.5 0 -3 0.4 -3 2.3 0 3.1 -3.9 6.7 -7.3 6.7 -2.4 0 -2.7 0.4 -2.7 3.5 0 2.4 -0.5 3.5 -1.5 3.5 -0.8 0 -1.5 0.9 -1.5 2 0 1.1 -0.6 2 -1.4 2 -0.7 0 -1.6 1.4 -1.9 3 -0.4 1.8 -1.3 3 -2.2 3 -0.8 0 -1.5 0.8 -1.5 1.9 0 1 -1.4 4.9 -3.1 8.7 -3.5 7.7 -7.9 23.9 -7.9 29 0 2.8 -0.4 3.4 -2.1 3.4 -2 0 -2.1 -0.3 -1.4 -5.7z"/>
  <path d="M625 391.6 c0 -0.9 3.2 -2.1 9.7 -3.6 5.4 -1.2 11.5 -2.8 13.5 -3.6 3.7 -1.3 3.8 -1.3 3.8 1.1 0 2.2 -0.5 2.5 -3.5 2.5 -1.9 0 -3.5 0.4 -3.5 0.8 0 1 -13.6 4.2 -17.5 4.2 -1.5 0 -2.5 -0.6 -2.5 -1.4z"/>
  <path d="M405 388.8 c0 -4 2.4 -15.6 4.6 -22 1.3 -3.9 2 -4.8 3.9 -4.8 l2.4 0 -2.3 6.3 c-2.3 6 -3.8 12.2 -5.1 20 -0.8 4.8 -3.5 5.2 -3.5 0.5z"/>
  <path d="M579 385.5 c0 -2.4 0.1 -2.5 3.2 -1.2 4.6 1.9 4.8 3.7 0.4 3.7 -3.2 0 -3.6 -0.3 -3.6 -2.5z"/>
  <path d="M653 384.1 c0 -0.5 5.3 -3.5 11.8 -6.6 6.4 -3.1 13.8 -6.9 16.3 -8.6 5.6 -3.5 5.9 -3.6 5.9 -0.4 0 1.6 -0.6 2.5 -1.5 2.5 -0.8 0 -1.5 0.5 -1.5 1 0 0.6 -1.1 1 -2.5 1 -1.4 0 -2.5 0.6 -2.5 1.3 0 1.8 -12.4 7.7 -16 7.7 -2 0 -3 0.5 -3 1.5 0 1 -1.1 1.5 -3.5 1.5 -1.9 0 -3.5 -0.4 -3.5 -0.9z"/>
  <path d="M569 381.5 c0 -0.9 -0.9 -1.5 -2.5 -1.5 -1.4 0 -2.5 -0.4 -2.5 -1 0 -0.5 -0.7 -1 -1.5 -1 -0.8 0 -1.5 -0.9 -1.5 -2 0 -1.5 -0.7 -2 -2.5 -2 -2.1 0 -2.5 -0.5 -2.5 -3.1 l0 -3.2 3.3 2.7 c1.7 1.4 6.2 4.5 9.9 6.8 3.7 2.4 6.8 4.6 6.8 5.1 0 0.4 -1.6 0.7 -3.5 0.7 -2.4 0 -3.5 -0.5 -3.5 -1.5z"/>
  <path d="M425 379.3 c0 -3.4 1.2 -6.3 2.6 -6.3 1 0 1.4 1.3 1.4 4 0 3.3 -0.3 4 -2 4 -1.2 0 -2 -0.7 -2 -1.7z"/>
  <path d="M534.8 370.8 c-4.2 -5.2 -10.8 -15 -10.8 -16 0 -0.5 1.1 -0.8 2.5 -0.8 2.1 0 2.5 0.5 2.5 3 0 2.3 0.4 3 2 3 1.1 0 2 0.7 2 1.5 0 0.8 0.5 1.5 1 1.5 0.6 0 1 1.1 1 2.5 0 1.8 0.5 2.5 2 2.5 1.6 0 2 0.7 2 3.5 0 1.9 -0.2 3.5 -0.4 3.5 -0.2 0 -1.9 -1.9 -3.8 -4.2z"/>
  <path d="M427 369.5 c0 -5 8 -19.5 15.4 -28 l3.5 -4 0.1 3.8 c0 3 -0.3 3.7 -2 3.7 -1.5 0 -2 0.7 -2 2.5 0 1.6 -0.6 2.5 -1.5 2.5 -0.8 0 -1.5 0.9 -1.5 2 0 1.1 -0.7 2 -1.5 2 -0.8 0 -1.5 0.9 -1.5 2 0 2.3 -2 7 -3 7 -0.4 0 -1 1.8 -1.4 4 -0.5 3.1 -1.1 4 -2.6 4 -1.1 0 -2 -0.7 -2 -1.5z"/>
  <path d="M437 364.5 c0 -2.8 0.4 -3.5 2 -3.5 1.6 0 2 -0.7 2 -3 0 -2 0.5 -3 1.5 -3 0.8 0 1.5 -0.9 1.5 -2 0 -1.6 0.7 -2 3.1 -2 l3.1 0 -3.2 4.3 c-1.8 2.3 -4.4 6.1 -5.9 8.5 -1.4 2.3 -2.9 4.2 -3.3 4.2 -0.5 0 -0.8 -1.6 -0.8 -3.5z"/>
  <path d="M689 364.6 c0 -0.3 2.8 -2.6 6.3 -5.3 3.4 -2.6 9.1 -7.4 12.7 -10.7 6.5 -5.9 6.5 -5.9 6.8 -3.2 0.5 3.8 -2.3 6.6 -6.5 6.6 -3 0 -3.3 0.3 -3.3 3 0 2.5 -0.4 3 -2.5 3 -1.8 0 -2.5 0.5 -2.5 2 0 1.3 -0.7 2 -2 2 -1.1 0 -2 0.7 -2 1.5 0 1 -1.1 1.5 -3.5 1.5 -1.9 0 -3.5 -0.2 -3.5 -0.4z"/>
  <path d="M546 361.5 c0 -1.8 -0.5 -2.5 -2 -2.5 -1.6 0 -2 -0.7 -2 -3 0 -2.3 -0.4 -3 -2 -3 -1.6 0 -2 -0.7 -2 -3.5 0 -1.9 0.3 -3.5 0.8 -3.5 0.4 0 2.4 2.6 4.5 5.8 2 3.1 4.9 7.2 6.3 9 l2.7 3.2 -3.2 0 c-2.6 0 -3.1 -0.4 -3.1 -2.5z"/>
  <path d="M415 357.5 c0 -3.1 0.3 -3.5 2.5 -3.5 3 0 3 0.3 0.8 4.1 -2.3 3.8 -3.3 3.7 -3.3 -0.6z"/>
  <path d="M625.6 349.2 c-7.5 -9.3 -15.6 -25.8 -15.6 -31.9 0 -0.7 0.9 -1.3 2 -1.3 1.3 0 2 -0.7 2 -1.9 0 -3.8 1.1 -5.1 4.6 -5.1 1.9 0 3.4 0.5 3.4 1 0 0.6 1.1 1 2.5 1 2 0 2.5 0.5 2.5 2.5 l0 2.5 -5 -2 -5 -2 0.6 2.8 c0.8 3.6 10.7 32.7 12.8 37.5 0.9 2 1.4 3.7 1.2 3.7 -0.3 0 -3 -3.1 -6 -6.8z m-8.4 -23.2 c-0.2 -2.2 -0.7 -4 -1.1 -4 -0.4 0 -0.5 1.8 -0.3 4 0.2 2.2 0.7 4 1.1 4 0.4 0 0.5 -1.8 0.3 -4z"/>
  <path d="M421 348.6 c0 -3.2 0.3 -3.6 2.5 -3.6 2.1 0 2.5 -0.5 2.5 -2.8 0 -3.9 3.9 -7.4 7.8 -7 l3 0.3 -7.9 8.4 -7.9 8.4 0 -3.7z"/>
  <path d="M517.9 342.3 c-2.2 -5.3 -6.9 -20.7 -6.9 -22.9 0 -0.8 0.8 -1.4 1.8 -1.4 1.3 0 2.3 2 4.1 8.3 1.3 4.5 2.6 9.4 2.8 11 0.3 1.5 0.9 2.7 1.4 2.7 0.5 0 0.9 1.6 0.9 3.5 0 4.9 -1.7 4.4 -4.1 -1.2z"/>
  <path d="M733.2 342.5 c0.3 -3.3 0.7 -4.1 2.6 -4.3 1.6 -0.3 2.2 -1 2.2 -2.9 0 -1.6 0.7 -2.7 2 -3 1.1 -0.3 2 -1.4 2 -2.4 0 -1.1 0.7 -1.9 1.5 -1.9 0.8 0 1.5 -0.9 1.5 -2 0 -1.1 0.5 -2 1 -2 0.6 0 1 -0.7 1 -1.5 0 -0.8 0.5 -1.5 1 -1.5 0.6 0 1 -0.7 1 -1.5 0 -0.8 0.5 -1.5 1 -1.5 0.6 0 1 -0.6 1 -1.4 0 -0.8 0.6 -2.1 1.4 -2.8 0.7 -0.8 1.7 -2.4 2 -3.6 0.4 -1.2 1.4 -2.2 2.2 -2.2 0.8 0 1.4 -0.9 1.4 -2.1 0 -2.3 1.8 -6.1 3.3 -7.1 0.7 -0.4 0.6 -1.7 -0.3 -3.7 -1 -2.6 -1.7 -3 -3.4 -2.5 -4.1 1.4 -9.1 2.4 -11.8 2.4 -4 0 -3.6 -2.7 0.5 -3.5 1.7 -0.3 5.4 -1.3 8.1 -2.2 3.9 -1.2 5.2 -1.3 7.1 -0.3 2.4 1.3 4.5 4.9 4.5 7.9 0 4.4 -18.6 33.6 -28.5 44.6 l-4.5 5 0.2 -4z"/>
  <path d="M572.4 339.4 c-1.9 -6.5 -5.4 -23.1 -5.4 -25.6 0 -1.1 0.8 -1.8 2 -1.8 1.9 0 2 -0.7 2 -10.5 0 -10 -0.1 -10.5 -2.1 -10.5 -1.9 0 -2.1 -0.4 -1.6 -3 0.6 -2.8 0.3 -3.2 -5.8 -6.7 -3.6 -2.1 -6.5 -4.1 -6.5 -4.5 0 -0.4 1.6 -0.8 3.5 -0.8 2.8 0 3.5 0.4 3.5 2 0 1.6 0.7 2 3.5 2 2.8 0 3.5 0.4 3.5 2 0 1.1 0.5 2 1 2 0.6 0 1 0.9 1 2 0 1.7 0.5 1.8 5 1.3 4.2 -0.5 5 -0.3 5 1.1 0 1 0.9 1.6 2.5 1.6 1.6 0 2.5 0.6 2.5 1.5 0 0.9 0.9 1.5 2.5 1.5 1.6 0 2.5 0.6 2.5 1.5 0 0.9 0.9 1.5 2.5 1.5 1.8 0 2.5 0.5 2.5 2 0 1.6 0.7 2 3 2 3.2 0 10 2.9 10 4.2 0 0.4 0.7 0.8 1.5 0.8 1.1 0 1.5 1.2 1.5 4.5 0 5.6 -2.6 6.4 -3.6 1.1 -0.4 -2.4 -1.3 -3.6 -2.7 -4 -1.2 -0.3 -8.6 -4.4 -16.4 -9 l-14.3 -8.5 -0.2 20.2 c-0.2 11.1 -0.2 23.7 -0.2 28 0 4.2 -0.1 7.7 -0.3 7.7 -0.1 0 -1 -2.5 -1.9 -5.6z"/>
  <path d="M457 341.1 c0 -2.4 0.4 -3.1 2 -3.1 1.1 0 2 -0.7 2 -1.5 0 -0.8 0.9 -1.5 2 -1.5 1.1 0 2 -0.7 2 -1.5 0 -0.9 0.9 -1.5 2.5 -1.5 1.6 0 2.5 -0.6 2.5 -1.5 0 -1 1.1 -1.5 3.5 -1.5 1.9 0 3.5 0.3 3.5 0.8 0 0.4 -2.4 2.2 -5.2 4 -2.9 1.7 -7.4 4.8 -10 6.8 l-4.8 3.6 0 -3.1z"/>
  <path d="M719.8 337.2 c1.2 -1.6 2.8 -3.5 3.7 -4.2 1.5 -1.2 1.6 -1 1.3 2.6 -0.3 3.6 -0.5 3.9 -3.7 4.2 l-3.3 0.3 2 -2.9z"/>
  <path d="M531 336.5 c0 -1.4 -0.4 -2.5 -0.9 -2.5 -1.2 0 -5.8 -19.6 -6.7 -28.2 -0.6 -6.5 -0.6 -6.8 1.5 -6.8 1.8 0 2.1 0.6 2.1 4.8 0 5.4 3.9 22.3 6.9 30 l2.1 5.2 -2.5 0 c-2 0 -2.5 -0.5 -2.5 -2.5z"/>
  <path d="M452 332 c2.5 -2.2 6.7 -5.5 9.3 -7.2 2.6 -1.7 4.6 -3.2 4.4 -3.5 -0.4 -0.3 -7.1 2 -14.9 5.2 -1.4 0.6 -1.8 0.2 -1.8 -1.7 0 -2.1 0.9 -2.7 6.3 -4.6 3.4 -1.2 8.1 -2.2 10.5 -2.2 4.1 0 4.2 0.1 4.2 3.5 0 2.4 -0.5 3.5 -1.5 3.5 -0.8 0 -1.5 0.5 -1.5 1 0 0.6 -1.3 1 -3 1 -2.3 0 -3 0.4 -3 2 0 1.5 -0.7 2 -2.4 2 -1.8 0 -2.5 0.6 -2.8 2.3 -0.2 1.8 -1 2.2 -4.3 2.5 l-4 0.2 4.5 -4z"/>
  <path d="M440 330 c0 -2.8 0.3 -3 3.5 -3 4.4 0 4.4 0.9 0 3.8 l-3.5 2.2 0 -3z"/>
  <path d="M726.7 329.8 c0.6 -0.7 4.1 -5.2 7.7 -10 3.7 -4.9 6.9 -8.8 7.2 -8.8 0.2 0 0.4 1.6 0.4 3.5 0 2.4 -0.5 3.5 -1.5 3.5 -0.8 0 -1.5 0.9 -1.5 2 0 1.1 -0.7 2 -1.5 2 -0.8 0 -1.5 0.9 -1.5 2 0 1.3 -0.7 2 -2 2 -1.5 0 -2 0.7 -2 2.5 0 2.1 -0.5 2.5 -3.1 2.5 -2.4 0 -2.9 -0.3 -2.2 -1.2z"/>
  <path d="M486 323.6 c0 -2.4 1.6 -3.6 5 -3.6 1 0 2 -0.5 2.2 -1.1 0.2 -0.6 2.5 -1.3 5.1 -1.6 2.6 -0.3 4.7 -1 4.7 -1.4 0 -0.5 1.6 -0.9 3.5 -0.9 6.3 0 3.9 2.4 -5.2 5.3 -4.9 1.6 -10.3 3.5 -12 4.3 -3.2 1.4 -3.3 1.3 -3.3 -1z"/>
  <path d="M664.8 324.3 c-1 -0.2 -1.8 -1.1 -1.8 -1.9 0 -1.1 1.5 -1.4 6 -1.4 5.3 0 6 0.2 6 2 0 1.7 -0.6 2 -4.2 1.9 -2.4 -0.1 -5.1 -0.3 -6 -0.6z"/>
  <path d="M676 323 c0 -1.6 0.7 -2 3.5 -2 4 0 4.9 2.4 1.3 3.4 -3.8 1 -4.8 0.7 -4.8 -1.4z"/>
  <path d="M655.5 323.4 c-15.5 -3.2 -20.5 -4.7 -20.5 -6 0 -1.9 3.3 -1.8 13.2 0.6 4.6 1.1 9.5 2 11.1 2 2 0 2.7 0.5 2.7 2 0 2 -1.6 2.4 -6.5 1.4z"/>
  <path d="M687 322 c0 -1.6 0.7 -2 3.5 -2 4 0 4.9 2.4 1.3 3.4 -3.8 1 -4.8 0.7 -4.8 -1.4z"/>
  <path d="M697 320 c0 -1.6 0.7 -2 3.5 -2 1.9 0 3.5 -0.4 3.5 -1 0 -0.5 1.6 -1 3.5 -1 5.7 0 4.3 2.5 -2.5 4.3 -7.6 2.1 -8 2.1 -8 -0.3z"/>
  <path d="M680 316 c0 -2.1 1 -2.4 4.8 -1.4 3.6 1 2.7 3.4 -1.3 3.4 -2.8 0 -3.5 -0.4 -3.5 -2z"/>
  <path d="M660.6 315.5 c-11.4 -1.9 -21.6 -4.6 -21.6 -5.6 0 -0.5 -1.3 -0.9 -2.9 -0.9 -3.5 0 -9.1 -1.9 -9.1 -3.1 0 -0.5 -0.9 -0.9 -1.9 -0.9 -3.6 0 -5.1 -1.2 -5.1 -4 0 -4.8 0.9 -6 4.6 -6 3.1 0 3.4 -0.3 3.4 -3 0 -2.8 0.3 -3 3.5 -3 2.8 0 3.5 -0.4 3.5 -2 0 -1.2 -0.7 -2 -1.6 -2 -0.9 0 -1.4 -0.6 -1.2 -1.2 0.4 -1.3 10.9 -5.6 13.7 -5.7 2.1 -0.1 0.1 2 -12.2 12.6 l-10.8 9.3 5.6 2.6 c7.3 3.2 23.9 7.8 33.5 9.3 4.1 0.6 9 1.4 10.8 1.7 1.9 0.3 3.2 1.1 3.2 1.9 0 1.8 -4.3 1.8 -15.4 0z"/>
  <path d="M714 316 c0 -0.5 1.7 -1 3.8 -0.9 3 0 3.3 0.2 1.7 0.9 -2.8 1.2 -5.5 1.2 -5.5 0z"/>
  <path d="M743.5 306.9 c0.6 -1.8 0.4 -2 -1.3 -1.5 -2.8 0.9 -7.2 -0.3 -7.2 -2 0 -1 1.4 -1.4 5 -1.4 l5 0 0 3.5 c0 1.9 -0.5 3.5 -1.1 3.5 -0.6 0 -0.8 -0.9 -0.4 -2.1z"/>
  <path d="M716 301.6 c-7.4 -2.5 -13.9 -6.1 -19 -10.5 l-3.5 -3 3.8 -0.1 c2.6 0 3.7 0.4 3.7 1.5 0 0.8 0.9 1.5 2 1.5 1.1 0 2 0.7 2 1.5 0 0.8 0.9 1.5 2 1.5 2.4 0 7 2.1 7 3.2 0 0.4 1.1 0.8 2.5 0.8 1.4 0 2.5 0.5 2.5 1 0 0.6 1.6 1 3.5 1 2.8 0 3.5 0.4 3.5 2 0 2.6 -1.8 2.5 -10 -0.4z"/>
  <path d="M478 295.5 c0 -3.8 0.3 -4.5 2 -4.5 1.7 0 2 0.7 2 4.5 0 3.8 -0.3 4.5 -2 4.5 -1.7 0 -2 -0.7 -2 -4.5z"/>
  <path d="M610 297 c0 -1.2 0.6 -2 1.3 -1.8 0.6 0.1 4.1 -1.9 7.6 -4.5 3.5 -2.6 6.7 -4.7 7.2 -4.7 0.5 0 0.9 1.1 0.9 2.5 0 1.6 -0.6 2.5 -1.5 2.5 -0.8 0 -1.5 0.5 -1.5 1 0 0.6 -0.9 1 -2 1 -1.1 0 -2 0.7 -2 1.5 0 0.8 -0.7 1.5 -1.5 1.5 -0.8 0 -1.5 0.7 -1.5 1.5 0 1 -1.1 1.5 -3.5 1.5 -2.9 0 -3.5 -0.4 -3.5 -2z"/>
  <path d="M524.4 291.8 c0.3 -2.9 0.6 -6.8 0.6 -8.5 0 -2.7 0.4 -3.3 2.1 -3.3 2 0 2.1 0.3 1.5 6.3 -1 8.8 -1.6 10.7 -3.3 10.7 -1.3 0 -1.5 -0.9 -0.9 -5.2z"/>
  <path d="M724.3 293.3 c-5.5 -1.2 -6.3 -1.7 -6.3 -3.8 l0 -2.3 6.3 1.8 c3.4 1 7.9 2.1 10 2.5 2.3 0.4 3.7 1.1 3.7 2 0 1.9 -5.3 1.8 -13.7 -0.2z"/>
  <path d="M599 292 c0 -1.5 -0.7 -2 -2.9 -2 -3.9 0 -6.1 -0.9 -6.1 -2.6 0 -0.8 -1 -1.4 -2.5 -1.4 -1.6 0 -2.5 -0.6 -2.5 -1.5 0 -0.9 -0.9 -1.5 -2.5 -1.5 -1.6 0 -2.5 -0.6 -2.5 -1.5 0 -0.9 -0.9 -1.5 -2.4 -1.5 -1.4 0 -3.1 -0.7 -4 -1.5 -0.8 -0.8 -1.9 -1.5 -2.5 -1.5 -0.6 0 -1.1 -0.9 -1.1 -2 0 -1.5 -0.7 -2 -2.9 -2 -4.2 0 -6.1 -1 -6.1 -3.1 0 -1 -0.7 -1.9 -1.5 -1.9 -1 0 -1.5 -1.1 -1.5 -3.5 0 -3.3 0.2 -3.5 3.5 -3.5 4.1 0 4.4 1 1 3.1 -2.6 1.5 -2.6 1.5 11.7 9.9 7.9 4.6 18.2 10.6 23.1 13.4 4.8 2.8 8.7 5.4 8.7 5.8 0 0.4 -1.6 0.8 -3.5 0.8 -2.8 0 -3.5 -0.4 -3.5 -2z"/>
  <path d="M495.1 286.6 c-0.7 -0.8 -2.1 -6.6 -3.2 -12.7 -2.2 -13.5 -4.7 -21.4 -10.6 -33.7 -5 -10.5 -17.6 -29.7 -27.6 -42 -5.7 -7 -6.7 -8.9 -6.7 -12.1 0 -3.6 0.4 -4 7.1 -8.5 10.2 -6.8 12.4 -6.4 20.6 3.4 9.4 11.1 20.6 26.6 24.6 34 5 9 11.4 25.8 13.7 35.4 1.3 5.1 2 11.6 2 17.6 0 8.4 -0.4 10.1 -2.8 14.5 l-2.7 5 -6.6 0.3 c-4.9 0.2 -6.9 -0.1 -7.8 -1.2z m16.1 -23.7 c-0.7 -12 -7.1 -28.8 -17.1 -44.9 -6.9 -11.1 -21.8 -30.8 -24.3 -32.1 -4.3 -2.3 -3.5 0.9 1.8 7.6 17.5 21.8 30.3 45.5 34.5 63.5 2.6 11 2.7 11.2 4.2 10.7 0.8 -0.3 1.1 -2 0.9 -4.8z"/>
  <path d="M710 287 c0 -0.5 -0.7 -1 -1.5 -1 -0.8 0 -1.5 -0.7 -1.5 -1.5 0 -0.8 -0.8 -1.5 -1.7 -1.5 -2.3 0 -7.3 -4.9 -7.3 -7.2 0 -1 -0.7 -1.8 -1.5 -1.8 -0.8 0 -1.5 -0.7 -1.5 -1.5 0 -0.8 -0.4 -1.5 -1 -1.5 -0.5 0 -1 -1.6 -1 -3.5 0 -4.4 1 -4.4 3.5 -0.2 2.8 4.8 11.2 13.3 16.1 16.4 2.4 1.6 4.4 3.1 4.4 3.6 0 0.4 -1.6 0.7 -3.5 0.7 -1.9 0 -3.5 -0.4 -3.5 -1z"/>
  <path d="M688.3 282.8 c-3 -3.3 -8.3 -11 -8.3 -12 0 -0.4 1.1 -0.8 2.5 -0.8 1.6 0 2.5 0.6 2.5 1.5 0 0.8 0.5 1.5 1 1.5 0.6 0 1 0.8 1 1.9 0 1 0.9 2.1 2 2.4 1.5 0.4 2 1.4 2 4.1 0 2 -0.1 3.6 -0.3 3.6 -0.2 0 -1.3 -1 -2.4 -2.2z"/>
  <path d="M477.6 275.8 c-0.3 -1.3 -0.6 -3.5 -0.6 -5 0 -4.4 -4.9 -18.6 -9.6 -28 -5 -10 -14.7 -24.6 -23.1 -34.9 -3.2 -3.9 -6.9 -8.4 -8.2 -10 l-2.4 -2.9 3 0 c3.6 0 5.3 1.6 5.3 5.2 0 2.3 0.4 2.8 2.5 2.8 1.8 0 2.5 0.5 2.5 1.9 0 1 0.9 2.1 2 2.4 1.2 0.3 2 1.4 2 2.6 0 1.2 0.6 2.1 1.5 2.1 0.8 0 1.5 0.7 1.5 1.5 0 0.8 0.5 1.5 1 1.5 0.6 0 1 0.9 1 2 0 1.1 0.7 2 1.5 2 0.8 0 1.5 0.7 1.5 1.5 0 0.8 0.5 1.5 1 1.5 0.6 0 1 0.7 1 1.5 0 0.8 0.5 1.5 1 1.5 0.6 0 1 0.7 1 1.5 0 0.8 0.4 1.5 0.9 1.5 0.5 0 1.3 1 1.7 2.3 0.4 1.2 1 2.4 1.4 2.7 1.4 0.9 7 12.9 7 15 0 1.1 0.4 2 0.9 2 1.3 0 5 13.7 5.7 21.3 0.6 5.6 0.4 6.7 -0.8 6.7 -0.9 0 -1.8 -1 -2.2 -2.2z"/>
  <path d="M546.6 273.3 c-2.8 -1.4 -7.8 -3.6 -11.3 -4.9 -6.2 -2.3 -6.3 -2.3 -6.3 -0.4 0 1.1 -0.4 2 -1 2 -0.5 0 -1 -1.6 -1 -3.6 l0 -3.7 4.7 0.6 c2.6 0.3 4.9 1 5.1 1.6 0.2 0.6 1.5 1.1 2.8 1.1 1.3 0 2.4 0.5 2.4 1 0 0.6 0.9 1 2 1 3.9 0 9 3.2 9 5.7 0 2.8 -0.3 2.8 -6.4 -0.4z"/>
  <path d="M543.8 262.8 c-2 -0.7 -2.8 -1.7 -2.8 -3.4 l0 -2.4 4.1 1.7 c3.8 1.5 4.3 1.5 6.9 0 3.7 -2.2 4 -2.2 4 0.8 0 1.6 -0.6 2.5 -1.5 2.5 -0.8 0 -1.5 0.5 -1.5 1 0 1.3 -5.6 1.2 -9.2 -0.2z"/>
  <path d="M673.4 257.3 c-4.7 -10.5 -4.6 -10.3 -2 -10.3 2.6 0 3.6 1.7 3.6 6.1 0 1.9 0.5 2.9 1.5 2.9 1 0 1.5 1.1 1.5 3.5 0 5.1 -1.7 4.3 -4.6 -2.2z"/>
  <path d="M566 258.5 c0 -2 0.5 -2.5 2.5 -2.5 1.4 0 2.5 -0.4 2.5 -1 0 -0.5 -1.2 -1 -2.6 -1 -4.3 0 -2.2 -2.3 4.1 -4.5 4.4 -1.5 5.9 -1.7 6.2 -0.7 0.6 1.7 2.3 1.5 2.3 -0.3 0 -1.4 6 -3.6 14 -5 2.9 -0.5 2.2 0.1 -4 3.5 -4.1 2.3 -11.2 6.4 -15.6 9.1 -4.5 2.7 -8.5 4.9 -8.8 4.9 -0.3 0 -0.6 -1.1 -0.6 -2.5z"/>
  <path d="M685.6 254.7 c-0.9 -2.3 -1.6 -5 -1.6 -6 0 -0.9 -0.4 -1.7 -0.8 -1.7 -1.3 0 -3.2 -4.8 -3.2 -8 0 -1.7 0.5 -3 1.1 -3 1 0 4.9 8 8.9 18.1 l2 4.9 -2.4 0 c-1.8 0 -2.7 -0.9 -4 -4.3z"/>
  <path d="M529.8 257.3 c-1 -0.2 -1.8 -1.3 -1.8 -2.4 0 -1.4 -0.7 -1.9 -2.5 -1.9 -2.2 0 -2.5 -0.4 -2.5 -3.4 0 -1.9 -0.5 -3.6 -1.1 -3.8 -0.6 -0.2 -1.4 -2.8 -1.7 -5.6 -0.4 -4.8 -0.2 -5.6 2.4 -8.3 2 -2.1 3.7 -2.9 6.3 -2.9 l3.5 0 -4.6 4.8 -4.5 4.7 2.1 6.8 c2.1 6.8 2.1 6.9 7 8.5 6 2 7.3 4.3 2.4 4.1 -1.8 -0.1 -4.1 -0.3 -5 -0.6z"/>
  <path d="M660.2 231.5 l-2.2 -3.5 3 0 c2.8 0 3 0.3 3 3.5 0 4.4 -0.9 4.4 -3.8 0z"/>
  <path d="M674.4 230.5 c-0.3 -1.4 -1 -2.5 -1.5 -2.5 -0.5 0 -0.9 -1.3 -0.9 -3 0 -2.3 -0.4 -3 -2 -3 -1.2 0 -2 -0.7 -2 -1.8 0 -0.9 -1 -2.2 -2.2 -2.7 -1.6 -0.7 -2.4 -2 -2.6 -4.2 -0.3 -2.8 -0.7 -3.2 -3.5 -3.5 -2.4 -0.2 -3.3 -0.8 -3.5 -2.5 -0.3 -1.7 -1 -2.3 -2.8 -2.3 -1.3 0 -2.4 -0.4 -2.4 -1 0 -0.5 -0.7 -1 -1.5 -1 -0.8 0 -1.5 -0.7 -1.5 -1.5 0 -0.8 -0.9 -1.5 -2 -1.5 -2.1 0 -8.1 -2.7 -9 -4 -0.3 -0.4 -1.6 -0.9 -3 -1.2 -1.4 -0.3 -6.1 -1.5 -10.4 -2.7 -4.4 -1.2 -9.2 -2.1 -10.8 -2.1 -2.2 0 -2.8 -0.5 -2.8 -2.1 0 -1.9 0.4 -2 5.3 -1.4 24.9 3.1 45.2 15.5 58.7 35.7 3.3 4.9 6 9.4 6 9.9 0 0.5 -1.1 0.9 -2.5 0.9 -1.8 0 -2.6 -0.7 -3.1 -2.5z"/>
  <path d="M536 223.1 c0 -2.9 0.3 -3.1 3.6 -3.1 3.9 0 3.8 0.9 -0.6 4 l-3 2.1 0 -3z"/>
  <path d="M651.8 221.1 c-6.4 -6.6 -15.3 -12.3 -23.8 -15.2 -8.4 -2.8 -9.7 -5.5 -2.3 -4.6 2.6 0.3 4.9 1 5.1 1.6 0.2 0.6 1.5 1.1 2.8 1.1 1.5 0 2.4 0.6 2.4 1.5 0 1 1 1.5 3 1.5 2.3 0 3 0.4 3 2 0 1.6 0.7 2 3 2 2 0 3 0.5 3 1.5 0 0.9 0.9 1.5 2.1 1.5 1.2 0 2.3 0.8 2.6 1.9 0.3 1.1 1.3 2.1 2.4 2.4 1.4 0.4 1.9 1.4 1.9 4.1 0 2 -0.1 3.6 -0.2 3.6 -0.2 0 -2.4 -2.2 -5 -4.9z"/>
  <path d="M511.6 221.4 c-0.3 -0.9 -0.6 -2.4 -0.6 -3.5 0 -1 -0.7 -1.9 -1.5 -1.9 -0.8 0 -1.7 -1.1 -2.1 -2.5 -0.3 -1.4 -1 -2.5 -1.5 -2.5 -0.5 0 -0.9 -1.6 -0.9 -3.5 0 -1.9 0.4 -3.5 0.8 -3.5 0.5 0 3 3.6 5.6 8 2.6 4.4 5 8 5.3 8 0.3 0 2.4 -1.5 4.7 -3.4 10.1 -8.2 29 -19 40.4 -23 4.1 -1.5 4.2 -1.5 4.2 0.7 0 1.7 -0.9 2.6 -3.3 3.5 -1.8 0.7 -4.1 1.2 -5 1.2 -0.9 0 -1.7 0.4 -1.7 0.8 0 1.1 -8.6 5.2 -11 5.2 -1.1 0 -2 0.7 -2 1.5 0 0.8 -1.1 1.7 -2.5 2.1 -1.4 0.3 -2.5 1 -2.5 1.5 0 0.5 -0.7 0.9 -1.5 0.9 -0.8 0 -1.5 0.5 -1.5 1 0 0.6 -0.7 1 -1.5 1 -0.8 0 -1.5 0.5 -1.5 1 0 0.6 -0.6 1 -1.4 1 -0.8 0 -1.6 0.7 -2 1.5 -0.3 0.8 -1.4 1.5 -2.5 1.5 -1 0 -2.1 0.8 -2.4 1.8 -0.8 3.1 -11 4.4 -12.1 1.6z"/>
  <path d="M545 216.5 c0 -2.2 0.4 -2.5 3.5 -2.5 2.8 0 3.5 -0.4 3.5 -1.9 0 -1 0.7 -2.2 1.6 -2.5 2.4 -0.9 7.4 -0.7 7.4 0.3 0 0.8 -14.3 9.1 -15.6 9.1 -0.2 0 -0.4 -1.1 -0.4 -2.5z"/>
  <path d="M566 206.6 c0 -1.8 0.9 -2.5 3.9 -3.4 10.1 -3.1 12.6 0.3 2.6 3.5 l-6.5 2.1 0 -2.2z"/>
  <path d="M580 202.1 c0 -1.8 3.9 -3.1 9.8 -3.1 4.4 0 2.3 2.8 -2.8 3.9 -6.7 1.4 -7 1.4 -7 -0.8z"/>
  <path d="M614.8 202.3 c-3.3 -0.8 -2 -3.3 1.7 -3.3 2.8 0 3.5 0.4 3.5 2 0 2 -1.4 2.3 -5.2 1.3z"/>
  <path d="M499 200.5 c0 -0.8 -0.4 -1.5 -1 -1.5 -0.5 0 -1 -0.9 -1 -2 0 -1.1 -0.7 -2 -1.5 -2 -0.8 0 -1.5 -0.9 -1.5 -2 0 -1.1 -0.7 -2 -1.5 -2 -0.8 0 -1.5 -0.9 -1.5 -2 0 -1.1 -0.7 -2 -1.5 -2 -0.9 0 -1.5 -0.9 -1.5 -2.5 0 -1.8 -0.5 -2.5 -2 -2.5 -1.6 0 -2 -0.7 -2 -3 0 -2.5 -0.4 -3 -2.3 -3 -3.3 0 -4.7 -1.8 -4.7 -5.9 l0.1 -3.6 4.1 4.5 c4.5 5 14.5 17.7 20.2 25.8 l3.8 5.2 -3.1 0 c-2.1 0 -3.1 -0.5 -3.1 -1.5z"/>
  <path d="M595 200 c0 -1.8 0.7 -2 7.5 -2 6.8 0 7.5 0.2 7.5 2 0 1.8 -0.7 2 -7.5 2 -6.8 0 -7.5 -0.2 -7.5 -2z"/>
  <path d="M568 192.8 c0 -1.7 4 -3 15.9 -5.2 11.2 -2.1 13.1 -2.1 13.1 0.4 0 1.6 -0.7 2 -3.7 2 -2.1 0.1 -6.7 0.7 -10.3 1.6 -11.1 2.6 -15 2.9 -15 1.2z"/>
  <path d="M430 188.3 c0 -5.8 19.9 -22.8 32.2 -27.5 4.3 -1.6 5.2 -1.7 7.7 -0.4 1.5 0.8 3.3 2.2 4 3 1.2 1.4 0.9 1.6 -2.3 1.6 -2 0 -3.6 -0.4 -3.6 -1 0 -0.5 -0.9 -1 -2 -1 -1.1 0 -2 0.4 -2 0.9 0 0.5 -1.6 1.5 -3.5 2.2 -1.9 0.7 -3.5 1.7 -3.5 2.1 0 0.4 -0.7 0.8 -1.5 0.8 -0.8 0 -1.5 0.5 -1.5 1 0 0.6 -0.6 1 -1.4 1 -0.8 0 -1.6 0.7 -2 1.5 -0.3 0.8 -1.2 1.5 -2 1.5 -0.7 0 -1.6 0.7 -2 1.5 -0.3 0.8 -1.7 1.5 -3.1 1.5 -1.8 0 -2.5 0.5 -2.5 1.8 0 2.3 -3 5.2 -5.3 5.2 -1.2 0 -1.7 0.9 -1.7 3 0 2.3 -0.4 3 -2 3 -1.2 0 -2 -0.7 -2 -1.7z"/>
 </g>
 <g fill="#2c2b29">
  <path d="M452 831.5 c-0.8 -0.2 -4.9 -0.9 -9 -1.5 -11 -1.8 -29.6 -8.2 -42.3 -14.5 -51.5 -25.8 -88.4 -73.6 -99.7 -129.2 -10.4 -51.7 3.3 -106.3 37.2 -148.4 2.9 -3.6 11.2 -13.1 18.5 -21 16.1 -17.5 20.3 -23 25.5 -33.4 10.7 -21.1 13.4 -38.7 10.3 -67 -2 -18.7 -1.6 -29.1 1.9 -42.9 4.4 -17.3 11.9 -30.6 24.5 -43.9 13.4 -14 29.6 -22.9 49.1 -26.9 5.2 -1.1 9.7 -2.1 9.9 -2.4 0.8 -0.8 0.1 -24.7 -1 -31.1 -3.1 -20.1 -18.9 -47.3 -42.2 -73.2 -4.3 -4.7 -4.8 -5.7 -4.3 -8.5 0.8 -3.9 5.9 -9.2 16.1 -16.8 9.7 -7.3 16.4 -10.8 20.6 -10.8 2.7 0 4.4 1.3 10.7 7.8 9.3 9.6 26.5 32.5 32.9 43.7 2.6 4.6 5.3 8.5 5.8 8.5 0.6 0 4.5 -2.6 8.8 -5.9 38.5 -28.8 83.4 -35.9 118.2 -18.7 19.5 9.7 31.5 23.9 43 51.1 10 23.6 16.7 32.7 29.1 39.2 12.1 6.4 27.8 7.9 39.7 3.8 4.5 -1.6 4.9 -1.6 6.7 0 1.1 1 2.4 3.2 3 5.1 1.1 3.1 0.8 4 -5.1 14.1 -3.4 5.9 -7.9 13.4 -10.1 16.6 -10.2 15.1 -30.8 36.5 -45.8 47.8 -28.2 21.2 -62.3 33.9 -90.8 33.9 -10.8 0 -11 0 -11.6 2.5 -0.7 2.8 0 15.5 1.6 26.5 2.1 15.6 9.3 32.9 19.1 46 7.2 9.6 10 12.3 22.7 21.7 34.3 25.6 53.6 51 65.8 86.5 7.1 20.6 8.7 31 8.7 56.8 -0.1 20.6 -0.3 23.6 -2.7 35.1 -15.6 72.6 -69.7 130.4 -136.3 145.4 -21 4.7 -43.4 4.5 -62.8 -0.7 l-7.8 -2 -6.5 2.1 c-10.6 3.5 -22.7 5.1 -36.8 5 -7.2 -0.1 -13.8 -0.3 -14.6 -0.4z m39.4 -17.1 c4.4 -0.8 10 -2.6 12.6 -3.9 6.2 -3.1 16.6 -14.5 13.3 -14.5 -0.5 0 -4.3 1.2 -8.6 2.5 -32.3 10.3 -75.2 0.2 -111.1 -26.2 -10.5 -7.6 -27.6 -24.9 -34.8 -34.9 -11.5 -16.1 -20.2 -36.2 -21.4 -49.6 l-0.6 -6.3 4.9 9.5 c23.1 44.7 63.6 80.9 103.9 92.9 23.2 6.8 48 6.5 65.2 -0.9 4.6 -2 5.3 -2.6 4.8 -4.5 -0.5 -2.1 -0.2 -2.2 7.7 -2.8 16.1 -1.2 35.3 -8.3 49.1 -18.1 9.1 -6.5 20 -17.9 26.8 -28.1 l6.1 -9 -0.7 5.5 c-1.6 12.1 -8.1 24.3 -20.1 37.9 -7.1 8 -8.4 10.9 -6.7 14.6 1.6 3.5 7.2 4.8 18.5 4.4 5.3 -0.2 9.7 -0.3 9.7 -0.2 0 0.1 -2.4 1.5 -5.2 3.1 -7.6 4.3 -14.2 6.8 -31.6 11.8 -17.3 4.9 -27 9.6 -32.8 15.6 l-3.9 4.1 12 -0.7 c25.9 -1.3 50.3 -9.6 74.5 -25.4 33.9 -22 61 -57.7 72.5 -95.7 4.9 -16.4 6.6 -26.9 7.2 -46 0.5 -16.7 0.3 -18.9 -2.1 -30.6 -10.7 -52.2 -38.3 -88 -89.5 -115.8 -15.3 -8.4 -21.7 -12.9 -29.5 -20.7 -8.4 -8.4 -12.9 -17.2 -13.3 -25.8 l-0.3 -6.1 2 4.3 c3.4 7.5 8 13.2 14.1 17.7 5.1 3.7 15.6 9.5 17.3 9.5 0.3 0 -1 -2.9 -2.9 -6.4 -9.6 -17.3 -13.9 -37.6 -14.4 -68.2 -0.1 -4.1 -0.1 -4.1 -6.2 -6.3 -33 -12.1 -57.1 -40.5 -65.9 -77.8 -0.9 -3.9 -1.7 -5.3 -3 -5.3 -5.9 0 -29.4 10.2 -41 17.9 -7.6 5 -18.4 15.4 -23.6 22.7 -7.9 11.1 -14.3 27.8 -14.5 38 l-0.1 3.9 -2.1 -4.5 c-2.8 -6 -2.9 -20 -0.3 -28 5.8 -17.2 18 -32.5 34.7 -43.5 5.7 -3.7 4.9 -4.5 -2.2 -2 -20.5 7.2 -39.2 25.6 -46.8 46.1 -5.4 14.3 -5.9 24.3 -3 54.2 3.1 32.5 -5.9 64.3 -24.9 88 -2.6 3.2 -10.6 12.4 -17.9 20.3 -7.3 7.9 -15.3 17.1 -17.9 20.4 -15.4 19.8 -26.2 43 -31.6 68.1 -2 9.5 -2.3 13.6 -2.3 31.9 0.1 17.8 0.4 22.5 2.3 31.1 9.6 44.4 35.6 82.1 74.2 107.8 32.6 21.7 67.4 30.1 99.4 24z m146.4 -426.9 c18.2 -4.6 32.8 -11.2 49.3 -22.4 13.4 -9 26.5 -20.5 36.9 -32.4 8.4 -9.7 20 -25.2 20 -26.8 0 -0.5 -3.3 -0.9 -7.3 -0.9 -15.9 0 -32.5 -6.8 -43.8 -18 -8.8 -8.7 -12.1 -13.8 -19.5 -30.2 -11 -24.4 -17.9 -34.5 -28.9 -42.3 -12.9 -9.2 -24.5 -12.8 -42 -12.8 -18.5 0 -35 4.8 -52.9 15.2 -8.9 5.2 -26.6 19.5 -26.5 21.4 0 0.6 1 4.1 2.2 7.6 l2.2 6.4 6.5 2.3 c3.6 1.2 8.5 3.1 10.9 4.2 4.4 2 4.6 2 7 0.3 6.7 -4.7 20.2 -9.9 35.1 -13.6 3.6 -0.9 7.4 -1.8 8.5 -2.1 1.1 -0.3 -0.5 0.9 -3.5 2.7 -12.5 7.3 -32 19.2 -32 19.5 0 0.2 2.1 1.5 4.8 3 2.6 1.5 10.2 6 17 10.1 6.7 4 16.5 9.5 21.6 12.3 l9.5 5.1 2.1 -2.1 c3.9 -3.9 14 -9.8 22.1 -12.9 4.5 -1.7 8.2 -3.1 8.5 -3.1 1.6 0 -2.4 4.3 -11.4 12.1 -5.9 5 -10.8 9.5 -11 9.9 -0.3 0.9 8.5 4.4 18.8 7.5 15.9 4.8 29.7 6.6 55 7.3 l23.5 0.6 -9 2.8 c-24.3 7.6 -43.2 8.3 -68.2 2.3 -5.7 -1.4 -13.8 -3.8 -18 -5.5 -4.2 -1.6 -7.9 -2.8 -8.1 -2.6 -1 1 10.2 35 13.7 41.4 2.1 4 0.3 2.3 -5.5 -5 -8.9 -11.4 -16.4 -28.7 -16.4 -37.6 0 -2.9 -0.6 -3.5 -7.7 -7.1 -4.3 -2.2 -11.8 -6.4 -16.8 -9.5 -6.2 -3.7 -9.2 -5.1 -9.8 -4.3 -0.4 0.7 -0.7 4.8 -0.6 9.2 0.2 25.3 -0.3 42.9 -1.2 40.5 -3.5 -8.7 -5.3 -21 -5.5 -38 l-0.2 -17.5 -9.9 -5.7 c-8 -4.6 -25.8 -12.8 -27.8 -12.8 -0.3 0 -0.5 3 -0.5 6.8 0 3.7 -0.5 10.8 -1.1 15.7 -1.6 13.7 -1.3 19.1 1.5 31 6.3 26.3 22 48.3 43 60 20.8 11.6 41.2 14.1 65.4 8z m-128.6 -108 c4.9 -9 3.2 -23.3 -5.2 -44.6 -5.3 -13.5 -9.7 -21.3 -17.8 -32.4 -7.2 -9.8 -19.6 -25 -21.2 -26 -1 -0.6 -15 8.3 -15 9.6 0 0.5 3 4.5 6.7 9.1 10 12.3 22.6 31.5 27.6 42 5.9 12.3 8.4 20.2 10.6 33.7 1.1 6.1 2.5 11.9 3.2 12.7 0.8 1 2.5 1.4 4.8 1.2 3.2 -0.3 3.9 -0.9 6.3 -5.3z"/>
  <path d="M377.9 692.3 c-6.9 -5.7 -11.6 -12 -16.4 -21.8 -15.8 -32.3 -12.8 -77.7 7.4 -112.6 7.9 -13.6 16.4 -24.7 33.7 -43.9 20.3 -22.6 27.3 -31.8 32.9 -43.5 5.3 -11 6.9 -17.5 6.9 -28.1 0.1 -6.3 0.3 -7.8 1.2 -6.5 2.5 3.5 4.4 11.5 4.4 18.4 -0.1 20.3 -9.8 38.8 -37.6 71.4 -29.1 34.1 -38.9 51.7 -44 78.8 -2.2 11.7 -2.2 31.9 0 44.5 2.1 11.6 7.2 27.1 12.5 38.1 2.3 4.6 3.9 8.4 3.8 8.5 -0.2 0.2 -2.3 -1.3 -4.8 -3.3z"/>
  <path d="M687.2 633.8 c-2.7 -3.4 -1.2 -7.8 2.7 -7.8 3.2 0 5.1 1.6 5.1 4.5 0 1.2 -0.5 2.6 -1.2 3.3 -1.6 1.6 -5.3 1.5 -6.6 0z"/>
  <path d="M662.5 625.8 c-1.4 -1.1 -2.5 -3 -2.5 -4.4 0 -2.8 3.2 -6.4 5.8 -6.4 3.1 0 6.2 2.9 6.2 5.9 0 5.6 -5.2 8.3 -9.5 4.9z"/>
  <path d="M675.9 610.9 c-1.4 -1.4 -1.9 -3 -1.7 -5.2 0.6 -5.9 8.6 -7.2 10.3 -1.6 1.1 3.2 -0.2 6.4 -3 7.7 -3.3 1.5 -3.1 1.6 -5.6 -0.9z"/>
  <path d="M657 594 c-2.5 -2.5 -2.5 -4.2 -0.1 -6.4 4.6 -4.1 10.7 1.8 6.6 6.4 -2.3 2.5 -4 2.5 -6.5 0z"/>
 </g>
</svg>