<?xml version="1.0" encoding="UTF-8" standalone="no"?>
<svg
   version="1.0"
   width="64.288216mm"
   height="91.304382mm"
   viewBox="0 0 242.97906 345.08744"
   preserveAspectRatio="xMidYMid meet"
   id="svg10853"
   sodipodi:docname="big1.svg"
   inkscape:version="1.1.2 (0a00cf5339, 2022-02-04)"
   xmlns:inkscape="http://www.inkscape.org/namespaces/inkscape"
   xmlns:sodipodi="http://sodipodi.sourceforge.net/DTD/sodipodi-0.dtd"
   xmlns="http://www.w3.org/2000/svg"
   xmlns:svg="http://www.w3.org/2000/svg">
  <defs
     id="defs10857" />
  <sodipodi:namedview
     id="namedview10855"
     pagecolor="#ffffff"
     bordercolor="#666666"
     borderopacity="1.0"
     inkscape:pageshadow="2"
     inkscape:pageopacity="0.0"
     inkscape:pagecheckerboard="0"
     showgrid="false"
     inkscape:zoom="14.230524"
     inkscape:cx="18.094906"
     inkscape:cy="14.124568"
     inkscape:window-width="1920"
     inkscape:window-height="1155"
     inkscape:window-x="0"
     inkscape:window-y="45"
     inkscape:window-maximized="1"
     inkscape:current-layer="svg10853"
     units="mm"
     scale-x="1"
     inkscape:document-units="mm" />
  <g
     id="g17251"
     transform="scale(0.5)">
    <g
       fill="#f9f6ee"
       id="g10147"
       transform="translate(-288.15032,-151.08585)">
      <path
         d="m 505.6,269.8 c -0.2,-0.7 -1.3,-5.2 -2.5,-9.9 -4.5,-18.9 -16.5,-40.9 -35.3,-64.6 -4,-5.1 -4.9,-6.9 -4.6,-9.5 0.3,-3 0.6,-3.3 4,-3.6 2.3,-0.2 4.7,0.3 6,1.2 2.8,2 17.7,21.9 24.6,33 9.9,15.8 16.1,33.4 16.5,47.1 l 0.2,7 -4.3,0.3 c -2.8,0.2 -4.3,-0.1 -4.6,-1 z"
         id="path10145" />
    </g>
    <path
       d="m 167.34968,689.81415 c -73.200002,-3.8 -142.500002,-65.3 -162.0000021,-143.9 -4.70000004,-18.7 -5.80000004,-29.8 -5.20000004,-51 0.4,-15.7 1.00000004,-21.9 3.10000004,-31.7 3.8,-17.9 8.7000001,-32.1 16.6000001,-47.8 10.2,-20.3 20,-33.5 43.4,-58.5 27.4,-29.2 36.1,-54.1 32.1,-91.7 -1.9,-17.2 -1.6,-30.1 0.9,-41.8 8.500002,-39.7 37.800002,-70.5 76.100002,-80 l 9,-2.2 v -10.4 c 0.1,-22 -9,-40.999996 -34.2,-71.199996 -5.4,-6.6 -10.7,-13 -11.8,-14.4 -1.5,-1.8 -2,-3.9 -2,-8.3 0,-4.9 0.5,-6.5 3,-10.1 6.1,-8.7 22,-20.2999999 33.8,-24.7999999 7.1,-2.60000001 10.7,-2.70000001 15.6,-0.2 6.8,3.5 25.8,25.6999999 38.8,45.2999999 l 6.4,9.8 5.2,-3.9 c 18.3,-13.7 44.8,-23.9 67.4,-26 12.3,-1.2 11.8,-1.2 23.9,0 24.3,2.3 44.1,12.3 58.8,29.4 7.6,9 13.2,18.7 20.7,36.1 7,16.299996 9.5,20.699996 14.7,26.099996 10.4,10.7 27,14.9 42.7,10.7 7,-1.8 10.6,-1.3 15,2.1 4.2,3.1 6.4,8 6.6,14.3 0.2,6 -3.1,13.2 -13.9,29.7 -33.7,51.7 -85.6,84.3 -140.5,88.2 l -9,0.6 0.7,8.6 c 2.3,31.5 16.3,55.1 46.6,78.3 36.6,28 59.8,64.9 69.1,109.8 16.7,80.5 -25.3,170.2 -98.1,209.3 -22.7,12.2 -48.9,18.6 -76.2,18.7 -11.3,0 -30.2,-2 -38.1,-4.1 -3,-0.8 -5.5,-0.6 -12,1 -16,4 -28,5 -47.2,4 z m 26.5,-12.3 c 5.3,-0.8 13.1,-2.6 17.5,-4 9.8,-3.2 9.9,-3.2 21.5,-0.2 14.5,3.7 25.3,4.7 37.7,3.6 58.2,-5.2 111.7,-44.9 140.3,-104.1 11.7,-24.4 19,-54.1 19,-77.8 0,-15.3 -4.7,-39.9 -10.6,-55.9 -12.2,-32.8 -32,-58.7 -61.9,-81.2 -19.6,-14.7 -28.4,-25 -36.6,-42.4 -6.8,-14.5 -9.8,-30.2 -9.9,-50.4 v -12.3 l 7.8,0.6 c 12.9,1.1 35.5,-3.3 52.4,-10.2 36.7,-14.9 70.7,-43.9 92.5,-78.9 8.7,-13.8 10.7,-18.3 9.4,-21.2 -1,-2 -1.6,-2.3 -3.9,-1.8 -22.6,5.1 -40.6,1.4 -54.3,-11.2 -6.8,-6.3 -10.3,-12.1 -18.7,-31.299996 -3.8,-8.5 -9,-18.8 -11.6,-22.8 -22.4,-34.7 -62.9,-46.8 -105.6,-31.6 -11.5,4.1 -27.8,13 -38,20.6 -7,5.2 -10,6.9 -12.4,6.9 -3,0 -3.6,-0.6 -8.5,-8.9 -7.5,-12.6 -22.3,-32.1 -32.3,-42.6 l -8.7,-9 -5.8,3 c -11.3,5.8 -27.3,19.3 -27.3,23 0,0.8 2.8,4.5 6.1,8.2 13.2,14.5 27.5,36 33.4,50 5.6,13.499996 6.6,18.899996 7.2,38.999996 l 0.6,18.3 h -2.9 c -1.6,0 -6.5,0.9 -10.9,1.9 -34,8.3 -59.4,33.1 -70.1,68.6 -2.6,8.5 -2.7,10 -2.5,25.5 0.9,47.7 0.7,56 -1.8,65 -2.8,10.5 -9.600002,25.2 -15.500002,33.4 -2.4,3.3 -11,13.3 -19.1,22.1 -22.8,24.9 -33.2,39.7 -42.5,60.4 -20.5000001,45.9 -21.0000001,91.7 -1.3,138.4 21.4,50.7 69.7,92.8 121.800002,106.1 17.8,4.6 30.3,5.4 45.5,3.2 z"
       id="path10149"
       style="fill:#fdebbb" />
    <path
       d="m 362.14968,586.11415 c -3.9,-2.5 -4.4,-18 -1.3,-41.3 5.1,-38 12.7,-50.8 30.2,-50.9 7,0 10.8,2.7 13.5,9.8 2.8,7.4 2.6,28.3 -0.5,38.1 -5.4,17 -18.4,37.2 -27.5,42.5 -4.4,2.6 -11.7,3.5 -14.4,1.8 z"
       id="path10151"
       style="fill:#fdebbb" />
    <path
       d="m 389.92826,477.14447 c -1.1,-2.7 -2.7,-6.1 -3.5,-7.7 -2.1,-4.3 -1.9,-8.6 0.5,-8.6 2.6,0 6.6,-3.4 5.7,-4.8 -1.2,-2 -3.6,-1.3 -4.8,1.3 -0.9,1.9 -1.9,2.5 -4.5,2.5 h -3.3 v -7.5 c 0,-4.9 0.6,-8.7 1.5,-10.5 1.4,-2.7 2,-3 6.4,-3 8.5,0 13.4,5.9 17.2,20.7 1,4.2 1.9,10.2 1.9,13.5 0,5.4 -0.1,5.8 -2.4,5.8 -1.3,0 -2.9,0.7 -3.6,1.5 -0.7,0.9 -2.9,1.5 -5.2,1.5 -3.7,0 -4,-0.2 -5.9,-4.7 z"
       id="path10153"
       style="fill:#fdebbb" />
    <path
       d="m 366.54968,424.41415 c -5.7,-3 -15.8,-7.7 -22.2,-10.5 -18.8,-8 -27.3,-12.9 -33.7,-19.1 -7.1,-6.9 -9.7,-12.4 -9.8,-20.1 0,-4.9 0.3,-5.9 2.6,-7.7 5.7,-4.5 25.2,-1.9 40.9,5.3 17.6,8.1 35.9,25.3 42.5,39.7 2.7,6 2.8,15.4 0.1,16.9 -4.4,2.3 -9.6,1.1 -20.4,-4.5 z"
       id="path10155"
       style="fill:#fdebbb" />
    <g
       fill="#ecf1a5"
       id="g10161"
       transform="translate(-288.15032,-151.08585)">
      <path
         d="m 676,302.1 c -12,-4.7 -22.5,-14.8 -31.7,-30.3 -3.3,-5.7 -8.2,-14 -10.8,-18.4 -10,-17.1 -18.5,-25 -30.3,-28 -7.8,-1.9 -12.1,-1.5 -30.1,3.2 -7.4,2 -16.4,3.8 -20,4.1 -8,0.7 -9.4,-0.4 -8.9,-6.8 0.3,-3.8 0.8,-4.7 4.3,-7.1 5.3,-3.6 19.8,-9.4 29.9,-11.9 11.8,-2.9 28.2,-3.6 38.1,-1.5 9.9,2 22.3,8 29.2,14.1 6.9,6.1 14.9,18.2 22.3,34 7.5,15.9 12.9,24.3 21.4,33.2 6.1,6.5 6.6,7.4 6.6,11.6 0,3.2 -0.5,4.7 -1.6,5.1 -3.1,1.2 -14,0.5 -18.4,-1.3 z"
         id="path10159" />
    </g>
    <g
       fill="#ffce4f"
       id="g10165"
       transform="translate(-288.15032,-151.08585)">
      <path
         d="m 586.2,779.4 c -1.7,-1.1 -2.2,-2.5 -2.2,-5.7 0,-3.6 0.8,-5.2 6.1,-11.7 6.1,-7.6 13.9,-22 13.9,-25.7 0,-1.1 0.4,-3.3 0.9,-4.9 0.5,-1.6 1.2,-4.6 1.5,-6.7 l 0.5,-3.8 -6.7,6.2 c -12.8,11.7 -28.3,20.6 -42.8,24.4 -19.8,5.3 -54.5,3.2 -75.4,-4.6 -31.9,-11.9 -61.2,-39.6 -78.7,-74.3 -14,-27.9 -17.6,-58.8 -10.3,-87.6 4,-15.5 10.6,-27.9 27.2,-51 27.5,-38.3 34.9,-52 39.2,-73.2 2.9,-13.8 1.8,-27.3 -3.3,-42.8 -3.9,-11.6 -5.1,-17.8 -5.1,-26.1 0,-25.9 11.2,-46.5 33.5,-61.6 9.2,-6.2 14,-8.3 18.8,-8.3 h 4.4 l 1.8,7.3 c 8.6,35.6 31.9,62.3 65.7,75.3 5.1,2 9.8,4 10.4,4.5 0.6,0.5 1.4,6.1 1.7,12.6 0.9,18.3 4.4,32.2 11.8,48 2.2,4.5 3.9,9.3 3.9,10.7 0,2.3 -0.4,2.6 -3.5,2.6 -4.5,0 -9.5,-2.1 -15.7,-6.6 -2.8,-1.9 -5.2,-3.3 -5.4,-3.1 -0.2,0.2 2.5,3.3 6.1,6.9 7.3,7.4 15.9,13.3 29,20.4 20.9,11.1 41.6,26.8 53.5,40.5 23.2,26.8 37.3,62.7 38.7,98.4 1.4,34.7 -9.3,74 -27.4,100.6 -8.3,12.3 -36.4,31.7 -53.8,37.2 -11.5,3.7 -34.3,5 -38.3,2.1 z m 75.5,-47 c 9.1,-5.3 22.2,-25.6 27.4,-42.5 3.1,-9.7 3.3,-25 0.6,-32.1 -5.7,-14.8 -20.4,-12.1 -29.3,5.4 -3.4,6.8 -5.9,17.5 -8.4,35.7 -3.4,26.2 -2.4,36 3.9,36.1 0.8,0 3.4,-1.2 5.8,-2.6 z m 29.4,-102.7 c -1.6,-1.6 0.16762,-1.56124 1.86762,-1.56124 1,0 0.0324,-4.13876 0.0324,-5.93876 0,-4.2 -3.6,-17.4 -5.9,-22 -2.3,-4.6 -7.4,-9.2 -10.2,-9.2 -2.6,0 -4.9,5 -4.9,10.7 6.5,14.1 0,0 6.5,14.1 0.8,1.5 2.3,4.8 3.4,7.5 2,4.7 4.26037,11.8487 5.56037,9.7487 0.4,-0.7 0.33963,-6.0487 1.13963,-4.1487 0.8,1.9 1.8,3 2.5,2.6 0.8,-0.5 0.8,-1 0,-1.8 z m -22.4,-7.3 c 0.3,-0.8 -0.2,-2.3 -1.1,-3.2 -1.6,-1.6 -1.8,-1.6 -3.1,0.1 -0.7,1.1 -1.1,2.5 -0.8,3.3 0.7,1.9 4.2,1.8 5,-0.2 z m -7.6,-31.7 c -0.1,-1.2 -1.5,-0.9 -1.9,0.4 -0.3,0.6 0.1,1 0.8,0.8 0.6,-0.3 1.1,-0.8 1.1,-1.2 z m 11,-13.7 C 680,572.7 663.9,549.2 642.3,533.7 631.6,526 612.5,519 602,519 c -13,0 -13.1,11.3 -0.2,23.9 6.4,6.2 14.9,11.1 33.7,19.1 6.4,2.8 16.5,7.5 22.2,10.5 11.4,6 11.5,6 14.4,4.5 z"
         id="path10163"
         sodipodi:nodetypes="cscssccccccccccscscccsccsscsccccccccccccccsssssccccscscscccccccccsccsc" />
    </g>
    <g
       fill="#ccd751"
       id="g10169"
       transform="translate(-288.15032,-151.08585)">
      <path
         d="m 611.7,379.4 c -22.1,-4 -42.5,-17.2 -54,-35 -7.8,-12 -9.3,-16.5 -14.7,-44.6 -1.1,-6 -3.4,-14.5 -5,-19 -1.7,-4.5 -3,-9.4 -3,-11 0,-2.5 0.3,-2.8 3.6,-2.8 3.3,0 18.4,7 28.1,12.9 l 3.1,2 v 16.8 c 0,9.2 0.4,18.4 1,20.3 0.8,2.7 1,-0.5 1.1,-14.2 L 572,287 h 3.3 c 2.3,0 7.2,2.3 16.1,7.5 7,4.2 14.2,8.2 16,8.9 2.8,1.2 3.2,1.9 4.3,7.9 1.4,7 5.2,18.2 6,17.4 0.2,-0.3 -0.3,-2.9 -1.1,-5.8 -0.9,-2.9 -1.6,-7 -1.6,-9.1 0,-3.4 0.2,-3.8 2.6,-3.8 1.5,0 7.9,1.8 14.3,3.9 17.5,5.9 26.6,7.5 41.6,7.6 11.3,0 26.4,-1.9 25.1,-3.2 -0.2,-0.2 -7.3,-0.8 -15.7,-1.4 -23.6,-1.4 -42.7,-5.3 -56.6,-11.5 -4.8,-2.1 -5.3,-2.6 -5.3,-5.5 0,-2.6 1,-4.2 4.8,-7.7 4.2,-3.9 4.3,-4.1 1.4,-2.5 -1.9,1 -5.1,3.3 -7.2,5 -6.2,5.4 -8.9,4.8 -27,-5.6 -36.6,-21 -34.5,-19.5 -34.8,-23.4 -0.3,-3.3 0,-3.6 6.7,-7.7 3.9,-2.3 7.1,-4.4 7.1,-4.6 0,-0.7 -7.1,2.5 -13.8,6.1 -7.6,4.3 -10.5,4.3 -19,0.6 -3.7,-1.6 -8.5,-3.4 -10.7,-4.1 -3.8,-1.1 -4.2,-1.6 -5.4,-6.3 -0.8,-2.9 -1.6,-7.5 -1.8,-10.3 -0.5,-5 -0.4,-5.1 4.9,-9.9 17.2,-15.5 39.9,-26.6 60.7,-29.6 13.4,-1.9 31.7,-0.7 42.1,2.7 11,3.6 21.8,10.9 29.2,19.8 5.4,6.4 8,11.2 21.1,38.6 11.3,23.4 26.1,35.7 48.9,40.4 4.3,0.9 10,1.6 12.8,1.6 h 5 v 3.6 c 0,8.6 -27.1,39.8 -48.2,55.5 -9.2,6.9 -14.2,9.4 -26.8,13.3 -17,5.4 -42.2,7.1 -59.3,4 z m 79.7,-79 c 2.9,-1.1 1.7,-3.5 -5,-10.7 -8.5,-8.9 -13.9,-17.3 -21.4,-33.2 -11.5,-24.4 -20.5,-35.1 -35.5,-42.6 -14.9,-7.3 -29.2,-8.5 -48.2,-3.9 -14.4,3.4 -32.5,11.7 -34,15.6 -0.3,0.8 0.1,2.1 0.8,3 1.6,1.9 4.7,1.5 22.6,-3.2 34.9,-9.1 49,-3.8 65.8,25 2.6,4.4 7.5,12.7 10.8,18.4 6.5,11 15.4,21.2 22.7,25.7 8.5,5.4 16.8,7.7 21.4,5.9 z"
         id="path10167" />
    </g>
    <g
       fill="#edb235"
       id="g10191"
       transform="translate(-288.15032,-151.08585)">
      <path
         d="m 448.4,817.5 c -49.6,-9.1 -96.1,-44.9 -119.3,-91.9 -22.6,-46 -22.9,-103.2 -0.5,-147.7 9,-18 18.9,-31.5 39.4,-53.4 22.2,-23.7 30.3,-37.4 36.5,-61.7 3.6,-14.2 4.3,-29.1 2.1,-48.9 -2.7,-23.7 -0.5,-40.1 7.1,-55.4 6.3,-12.5 17.6,-24.9 29.1,-31.9 7.5,-4.6 18.2,-8.6 22.7,-8.6 3.3,0 3.5,0.2 3.5,3.3 0,3 -0.6,3.8 -5.2,6.7 -7.1,4.5 -22.5,20.3 -26.7,27.3 -4.5,7.6 -8,17.5 -8.6,24.5 l -0.6,5.7 2.4,-7 c 6.8,-19.9 18.6,-34.8 37.3,-46.8 12.9,-8.3 34.1,-16.7 42.2,-16.7 h 3.7 l 1.8,7.8 c 7.6,31.8 29.3,59 58.3,72.7 4.1,2 8.8,3.8 10.4,4.2 l 3,0.6 v 7.8 c 0,5.7 -0.4,7.9 -1.3,7.9 -0.7,0 -1.7,-1 -2.2,-2.2 -0.7,-1.5 -4.1,-3.4 -11.5,-6.3 -29.7,-11.8 -48.8,-30.6 -60.4,-59.7 -1.9,-4.6 -4.2,-11.6 -5.1,-15.6 -2,-8 -2.4,-8.3 -8.8,-5.1 -24,12.2 -39.8,32.9 -42.9,56.1 -1.4,10.6 -0.5,17.7 4.1,31.4 7,21 6.9,42.7 -0.5,63.7 -4.9,14.3 -13.2,28 -35.2,58.7 -20.5,28.4 -27.2,43.3 -30,66 -4.5,35.3 12.5,77.7 43.3,108.6 22.2,22.2 44.3,33.9 73,38.4 10.2,1.6 31.7,1.4 40.2,-0.4 19.1,-4.1 35.7,-13.8 52.5,-30.7 9,-9.1 10.5,-10.3 9.7,-7.6 -0.5,1.8 -1.6,7.7 -2.4,13.2 -0.8,5.5 -1.8,11.9 -2.3,14.3 -1.4,6.7 -7.5,17.9 -14.2,26.2 -3.3,4.1 -6,8 -6,8.7 0,2.2 4.4,4.3 9.2,4.3 6.8,0 19.5,-1.9 25.3,-3.7 17.4,-5.5 45.5,-24.9 53.8,-37.2 4,-5.7 13,-23.3 15.9,-30.8 2,-5.2 3.8,-5.6 3.8,-0.8 0,1.9 -0.4,3.5 -1,3.5 -0.5,0 -1,1.1 -1,2.5 0,1.6 -0.6,2.5 -1.5,2.5 -1,0 -1.5,1 -1.5,3 0,3.7 -4.9,14 -6.7,14 -0.7,0 -1.3,1.1 -1.3,2.5 0,1.4 -0.4,2.5 -1,2.5 -0.5,0 -1,0.7 -1,1.5 0,0.8 -0.4,1.5 -1,1.5 -0.5,0 -1,0.7 -1,1.5 0,0.8 -0.4,1.5 -1,1.5 -0.5,0 -1,0.7 -1,1.5 0,0.8 -0.4,1.5 -1,1.5 -0.5,0 -1,0.6 -1,1.3 0,0.6 -2.2,3.9 -4.8,7.3 -17.6,22.6 -36.2,37.9 -61,50.3 -20.6,10.4 -39.9,15.1 -61.4,15.1 H 535 v -3.4 c 0,-7 12.7,-14.4 35.3,-20.6 7.8,-2.1 16.9,-4.9 20.2,-6.2 l 5.9,-2.2 -7.3,-1.2 c -8.8,-1.3 -11.1,-3.3 -11.1,-9.8 0,-4.8 1.8,-7.9 9.2,-16.2 5.7,-6.4 8,-9.5 11.8,-15.9 2,-3.4 1.3,-2.9 -4,2.9 -16.1,17.3 -38.7,28.8 -62.6,31.8 -8.2,1 -9.3,1.4 -9.6,3.2 -0.4,2.7 -5.2,5 -15.8,7.4 -29.1,6.8 -61.9,1.1 -90.4,-15.6 -22.3,-13 -44.4,-34 -60,-57 -2.7,-3.9 -5.1,-7 -5.3,-6.8 -0.6,0.6 4.4,10.3 9.5,18.1 34.3,53.3 103.4,84.6 148.6,67.4 2.8,-1 6.6,-1.9 8.4,-1.9 2.9,0 3.2,0.3 3.2,3.2 0,2.1 -1.3,4.8 -4,8.4 -4.9,6.4 -12.9,10.7 -24.3,12.9 -9.7,1.8 -34.2,1.8 -44.3,0 z M 368.9,671.8 c -4.6,-13.9 -6,-22.4 -6.6,-40.4 -0.8,-24.8 2.1,-40.4 11.2,-60 5.5,-12 14.6,-25 32.5,-46.5 26.8,-32 35.3,-46.2 38.7,-64.1 1.8,-9.9 1.2,-11.2 -1,-2.1 -2.3,9.4 -9.4,23.2 -17.1,33.3 -3.5,4.7 -12.8,15.5 -20.6,24 -27.1,29.7 -38,46.7 -46,71.8 -9.8,30.5 -6.7,64.4 8.2,87.4 1.6,2.7 3.1,4.8 3.2,4.8 0.1,0 -1,-3.7 -2.5,-8.2 z"
         id="path10171" />
      <path
         d="m 695.3,694.8 c 0.3,-1.3 1.7,-7.2 3.1,-13.3 1.4,-6 2.6,-12.1 2.6,-13.5 0,-4.2 1.2,-7 2.8,-7 1.2,0 1.4,1 0.8,6.3 -0.9,9.2 -3.7,22.7 -4.7,22.7 -0.5,0 -0.9,1.6 -0.9,3.5 0,2.9 -0.4,3.5 -2.1,3.5 -1.7,0 -2,-0.5 -1.6,-2.2 z"
         id="path10173" />
      <path
         d="m 702,657.8 c 0,-3.9 1.2,-6.8 2.6,-6.8 1,0 1.4,1.3 1.4,4.5 0,3.8 -0.3,4.5 -2,4.5 -1.4,0 -2,-0.7 -2,-2.2 z"
         id="path10175" />
      <path
         d="m 702.6,636.8 c -0.3,-1.3 -0.6,-3.6 -0.6,-5.1 0,-9.8 -7.9,-37.3 -15,-52.4 -4.6,-9.8 -14.6,-25.4 -21.4,-33.3 l -4.7,-5.5 2.6,-0.3 c 3.3,-0.4 5.5,1.3 5.5,4.4 0,1.7 0.6,2.4 2,2.4 1.3,0 2,0.7 2,2 0,1.1 0.7,2 1.5,2 0.8,0 1.5,0.6 1.5,1.4 0,0.8 0.6,1.6 1.3,1.9 0.7,0.2 2.1,2.2 3.2,4.3 1.1,2.1 2.6,4.5 3.3,5.2 0.6,0.7 1.2,2.4 1.2,3.8 0,1.3 0.6,2.4 1.3,2.4 1.5,0 4.7,6.1 4.7,9 0,1 0.5,2 1,2.2 3,1 12.3,34.9 13.6,50.1 0.6,6.5 0.4,7.7 -0.8,7.7 -0.9,0 -1.8,-1 -2.2,-2.2 z"
         id="path10177" />
      <path
         d="m 688.2,635.3 c -0.7,-0.2 -1.7,-1.4 -2.3,-2.5 -1,-1.9 -0.9,-2 2.5,-1.6 3.5,0.4 3.6,0.3 3.6,-3.1 0,-3.3 2,-1.6 2,-1.6 4.5,4.1 0,11.1 -5.8,8.8 z"
         id="path10179"
         sodipodi:nodetypes="cccscc" />
      <path
         d="m 661.6,626.5 c -2.4,-2.5 -2.8,-5.2 -1.1,-8.4 2,-4 5.8,-5 9.3,-2.4 3.5,2.6 4.1,7.4 1.3,10.2 -1.2,1.2 -2.5,2.1 -3.1,2.1 -1.4,0 -1.3,-3.6 0.2,-6 1.6,-2.4 0.6,-3.4 -2.7,-2.6 -2.4,0.6 -3.6,3.6 -1.5,3.6 0.6,0 1,1.1 1,2.5 0,2.8 -1.2,3.2 -3.4,1 z"
         id="path10181" />
      <path
         d="m 675,610.8 c -2.6,-2.8 -2.6,-5.8 0,-5.8 1.1,0 2,0.7 2,1.5 0,0.8 0.5,1.5 1,1.5 0.6,0 1,1.1 1,2.5 0,3.1 -1.3,3.2 -4,0.3 z"
         id="path10183" />
      <path
         d="m 657.2,595.4 c -2.5,-1.7 -3,-5.4 -0.6,-5.4 0.8,0 2.2,0.7 3.1,1.5 1.9,2 3,1.1 1.3,-1 -0.7,-0.8 -2.4,-1.5 -3.8,-1.5 h -2.6 l 2.2,-2.2 c 1.8,-1.8 2.6,-2 4.9,-1.2 1.7,0.5 3.2,2.1 3.8,3.8 0.8,2.5 0.6,3.1 -1.8,5.2 -3.3,2.8 -3.6,2.9 -6.5,0.8 z"
         id="path10185" />
      <path
         d="m 647.5,528.3 c -6.7,-5.6 -6.8,-5.8 -4.1,-6.1 3.9,-0.5 5.6,0.4 5.6,2.8 0,1.5 0.7,2 2.5,2 2.8,0 3.8,1.6 3.3,5 -0.3,1.9 -1,1.5 -7.3,-3.7 z"
         id="path10187" />
      <path
         d="m 631,516 c -4.7,-3.3 -13.2,-8.5 -19,-11.6 -25.1,-13.5 -38,-25.5 -43.1,-40 -1.9,-5.4 -2.6,-13.9 -1.1,-14.8 0.4,-0.2 2.3,2.7 4.1,6.6 3.7,8 9.8,14.6 18.2,19.5 9.6,5.6 10,5.4 6.2,-2.4 -6.1,-12.5 -10.3,-27.6 -11.8,-42.5 -0.6,-6.3 -0.5,-6.8 1.3,-6.8 1.6,0 2,1 2.6,6.9 0.8,8.7 2.9,18 6.1,27 1.4,3.8 2.5,7.6 2.5,8.5 0,0.9 0.4,1.6 0.9,1.6 0.5,0 1.7,2 2.8,4.5 1,2.5 2.1,4.5 2.6,4.5 0.4,0 0.7,1.6 0.7,3.5 0,3.3 -0.2,3.5 -3.2,3.5 -3.7,0 -11.8,-2.8 -11.8,-4.1 0,-0.5 -0.7,-0.9 -1.5,-0.9 -0.8,0 -1.5,-0.4 -1.5,-1 0,-0.5 -0.7,-1 -1.5,-1 -0.8,0 -1.5,-0.4 -1.5,-0.9 0,-0.5 -0.9,-1.1 -2,-1.4 -1.6,-0.4 -2,0 -2,1.9 0,1.8 0.5,2.4 2.3,2.4 2.9,0 4.7,1.8 4.7,4.6 0,1.8 0.6,2.3 3.3,2.6 2.7,0.2 3.3,0.8 3.5,3.1 0.3,2.4 0.8,2.7 3.8,2.7 2.4,0 3.4,0.5 3.4,1.5 0,0.9 0.9,1.5 2.5,1.5 1.8,0 2.5,0.5 2.5,2 0,1.6 0.7,2 3,2 4.2,0 10,3 10,5.2 0,1.4 0.8,1.8 3.5,1.8 1.9,0 3.5,0.4 3.5,0.9 0,0.5 1.1,1.2 2.5,1.5 1.4,0.4 2.5,1.1 2.5,1.6 0,0.6 0.7,1 1.5,1 0.9,0 1.5,0.9 1.5,2.5 0,2.2 0.4,2.5 3.5,2.5 3.2,0 3.5,0.2 3.5,3 0,1.7 -0.1,3 -0.2,2.9 -0.2,0 -4.1,-2.7 -8.8,-5.9 z m -52,-45.5 c 0,-1.8 -0.5,-2.5 -2,-2.5 -1.1,0 -2,0.5 -2,1 0,0.6 0.5,1 1,1 0.6,0 1,0.7 1,1.5 0,0.8 0.5,1.5 1,1.5 0.6,0 1,-1.1 1,-2.5 z"
         id="path10189" />
    </g>
    <path
       d="m 310.77147,243.40652 c -15.2,-1.7 -32.4,-9.4 -45.3,-20.1 -13.1,-11.1 -23.7,-29.1 -28.9,-49.5 -3.3,-13 -3.2,-8.6 -1.3,-48.6 l 0.6,-11.8 h 2.9 c 1.6,0 5.7,1.1 9.1,2.4 5.46199,15.59351 8.81977,35.72786 10.8,46 4.5,23.2 15.5,40.2 34.4,52.5 24,15.6 55.1,18.3 87.7,7.5 11.6,-3.9 17.9,-7.5 29.4,-16.7 6.8,-5.5 7,-5.6 7.3,-3.1 0.4,3 -1.3,5.4 -3.9,5.4 -1.1,0 -1.9,0.7 -1.9,1.5 0,0.9 -0.8,1.9 -1.7,2.2 -1,0.4 -2.2,1.2 -2.6,2 -0.4,0.7 -1.5,1.3 -2.2,1.3 -0.8,0 -1.5,0.4 -1.5,0.9 0,2.2 -25.3,16 -37.9,20.8 -17,6.4 -38.3,9.2 -55,7.3 z"
       id="path10413"
       style="fill:#95a03e"
       sodipodi:nodetypes="cccccsccccccssccsscc" />
    <path
       d="m 208.51788,133.0164 c -0.7,-0.8 -2.1,-6.6 -3.2,-12.7 -2.2,-13.5 -4.7,-21.400004 -10.6,-33.7 -5,-10.5 -17.6,-29.7 -27.6,-42 -5.7,-7 -6.7,-8.9 -6.7,-12.1 0,-3.6 0.4,-4 7.1,-8.5 10.2,-6.8 12.4,-6.4 20.6,3.4 9.4,11.1 20.6,26.6 24.6,34 5,9 11.4,25.8 13.7,35.4 1.3,5.1 2,11.6 2,17.6 0,8.4 -0.4,10.1 -2.8,14.5 l -2.7,5 -6.6,0.3 c -4.9,0.2 -6.9,-0.1 -7.8,-1.2 z m 16.1,-23.7 c -0.7,-12 -7.1,-28.8 -17.1,-44.9 -6.9,-11.1 -21.8,-30.8 -24.3,-32.1 -4.3,-2.3 -3.5,0.9 1.8,7.6 17.5,21.8 30.3,45.5 34.5,63.5 2.6,11 2.7,11.2 4.2,10.7 0.8,-0.3 1.1,-2 0.9,-4.8 z"
       id="path10791"
       style="fill:#59585a" />
    <g
       fill="#2c2b29"
       id="g10851"
       transform="translate(-288.15032,-151.08585)">
      <path
         d="m 452,831.5 c -0.8,-0.2 -4.9,-0.9 -9,-1.5 -11,-1.8 -29.6,-8.2 -42.3,-14.5 -51.5,-25.8 -88.4,-73.6 -99.7,-129.2 -10.4,-51.7 3.3,-106.3 37.2,-148.4 2.9,-3.6 11.2,-13.1 18.5,-21 16.1,-17.5 20.3,-23 25.5,-33.4 10.7,-21.1 13.4,-38.7 10.3,-67 -2,-18.7 -1.6,-29.1 1.9,-42.9 4.4,-17.3 11.9,-30.6 24.5,-43.9 13.4,-14 29.6,-22.9 49.1,-26.9 5.2,-1.1 9.7,-2.1 9.9,-2.4 0.8,-0.8 0.1,-24.7 -1,-31.1 -3.1,-20.1 -18.9,-47.3 -42.2,-73.2 -4.3,-4.7 -4.8,-5.7 -4.3,-8.5 0.8,-3.9 5.9,-9.2 16.1,-16.8 9.7,-7.3 16.4,-10.8 20.6,-10.8 2.7,0 4.4,1.3 10.7,7.8 9.3,9.6 26.5,32.5 32.9,43.7 2.6,4.6 5.3,8.5 5.8,8.5 0.6,0 4.5,-2.6 8.8,-5.9 38.5,-28.8 83.4,-35.9 118.2,-18.7 19.5,9.7 31.5,23.9 43,51.1 10,23.6 16.7,32.7 29.1,39.2 12.1,6.4 27.8,7.9 39.7,3.8 4.5,-1.6 4.9,-1.6 6.7,0 1.1,1 2.4,3.2 3,5.1 1.1,3.1 0.8,4 -5.1,14.1 -3.4,5.9 -7.9,13.4 -10.1,16.6 -10.2,15.1 -30.8,36.5 -45.8,47.8 -28.2,21.2 -62.3,33.9 -90.8,33.9 -10.8,0 -11,0 -11.6,2.5 -0.7,2.8 0,15.5 1.6,26.5 2.1,15.6 9.3,32.9 19.1,46 7.2,9.6 10,12.3 22.7,21.7 34.3,25.6 53.6,51 65.8,86.5 7.1,20.6 8.7,31 8.7,56.8 -0.1,20.6 -0.3,23.6 -2.7,35.1 -15.6,72.6 -69.7,130.4 -136.3,145.4 -21,4.7 -43.4,4.5 -62.8,-0.7 l -7.8,-2 -6.5,2.1 c -10.6,3.5 -22.7,5.1 -36.8,5 -7.2,-0.1 -13.8,-0.3 -14.6,-0.4 z m 39.4,-17.1 c 4.4,-0.8 10,-2.6 12.6,-3.9 6.2,-3.1 16.6,-14.5 13.3,-14.5 -0.5,0 -4.3,1.2 -8.6,2.5 -32.3,10.3 -75.2,0.2 -111.1,-26.2 -10.5,-7.6 -27.6,-24.9 -34.8,-34.9 -11.5,-16.1 -20.2,-36.2 -21.4,-49.6 l -0.6,-6.3 4.9,9.5 c 23.1,44.7 63.6,80.9 103.9,92.9 23.2,6.8 48,6.5 65.2,-0.9 4.6,-2 5.3,-2.6 4.8,-4.5 -0.5,-2.1 -0.2,-2.2 7.7,-2.8 16.1,-1.2 35.3,-8.3 49.1,-18.1 9.1,-6.5 20,-17.9 26.8,-28.1 l 6.1,-9 -0.7,5.5 c -1.6,12.1 -8.1,24.3 -20.1,37.9 -7.1,8 -8.4,10.9 -6.7,14.6 1.6,3.5 7.2,4.8 18.5,4.4 5.3,-0.2 9.7,-0.3 9.7,-0.2 0,0.1 -2.4,1.5 -5.2,3.1 -7.6,4.3 -14.2,6.8 -31.6,11.8 -17.3,4.9 -27,9.6 -32.8,15.6 l -3.9,4.1 12,-0.7 c 25.9,-1.3 50.3,-9.6 74.5,-25.4 33.9,-22 61,-57.7 72.5,-95.7 4.9,-16.4 6.6,-26.9 7.2,-46 0.5,-16.7 0.3,-18.9 -2.1,-30.6 -10.7,-52.2 -38.3,-88 -89.5,-115.8 -15.3,-8.4 -21.7,-12.9 -29.5,-20.7 -8.4,-8.4 -12.9,-17.2 -13.3,-25.8 l -0.3,-6.1 2,4.3 c 3.4,7.5 8,13.2 14.1,17.7 5.1,3.7 15.6,9.5 17.3,9.5 0.3,0 -1,-2.9 -2.9,-6.4 -9.6,-17.3 -13.9,-37.6 -14.4,-68.2 -0.1,-4.1 -0.1,-4.1 -6.2,-6.3 -33,-12.1 -57.1,-40.5 -65.9,-77.8 -0.9,-3.9 -1.7,-5.3 -3,-5.3 -5.9,0 -29.4,10.2 -41,17.9 -7.6,5 -18.4,15.4 -23.6,22.7 -7.9,11.1 -14.3,27.8 -14.5,38 l -0.1,3.9 -2.1,-4.5 c -2.8,-6 -2.9,-20 -0.3,-28 5.8,-17.2 18,-32.5 34.7,-43.5 5.7,-3.7 4.9,-4.5 -2.2,-2 -20.5,7.2 -39.2,25.6 -46.8,46.1 -5.4,14.3 -5.9,24.3 -3,54.2 3.1,32.5 -5.9,64.3 -24.9,88 -2.6,3.2 -10.6,12.4 -17.9,20.3 -7.3,7.9 -15.3,17.1 -17.9,20.4 -15.4,19.8 -26.2,43 -31.6,68.1 -2,9.5 -2.3,13.6 -2.3,31.9 0.1,17.8 0.4,22.5 2.3,31.1 9.6,44.4 35.6,82.1 74.2,107.8 32.6,21.7 67.4,30.1 99.4,24 z M 637.8,387.5 c 18.2,-4.6 32.8,-11.2 49.3,-22.4 13.4,-9 26.5,-20.5 36.9,-32.4 8.4,-9.7 20,-25.2 20,-26.8 0,-0.5 -3.3,-0.9 -7.3,-0.9 -15.9,0 -32.5,-6.8 -43.8,-18 -8.8,-8.7 -12.1,-13.8 -19.5,-30.2 -11,-24.4 -17.9,-34.5 -28.9,-42.3 -12.9,-9.2 -24.5,-12.8 -42,-12.8 -18.5,0 -35,4.8 -52.9,15.2 -8.9,5.2 -26.6,19.5 -26.5,21.4 0,0.6 1,4.1 2.2,7.6 l 2.2,6.4 6.5,2.3 c 3.6,1.2 8.5,3.1 10.9,4.2 4.4,2 4.6,2 7,0.3 6.7,-4.7 20.2,-9.9 35.1,-13.6 3.6,-0.9 7.4,-1.8 8.5,-2.1 1.1,-0.3 -0.5,0.9 -3.5,2.7 -12.5,7.3 -32,19.2 -32,19.5 0,0.2 2.1,1.5 4.8,3 2.6,1.5 10.2,6 17,10.1 6.7,4 16.5,9.5 21.6,12.3 l 9.5,5.1 2.1,-2.1 c 3.9,-3.9 14,-9.8 22.1,-12.9 4.5,-1.7 8.2,-3.1 8.5,-3.1 1.6,0 -2.4,4.3 -11.4,12.1 -5.9,5 -10.8,9.5 -11,9.9 -0.3,0.9 8.5,4.4 18.8,7.5 15.9,4.8 29.7,6.6 55,7.3 l 23.5,0.6 -9,2.8 c -24.3,7.6 -43.2,8.3 -68.2,2.3 -5.7,-1.4 -13.8,-3.8 -18,-5.5 -4.2,-1.6 -7.9,-2.8 -8.1,-2.6 -1,1 10.2,35 13.7,41.4 2.1,4 0.3,2.3 -5.5,-5 -8.9,-11.4 -16.4,-28.7 -16.4,-37.6 0,-2.9 -0.6,-3.5 -7.7,-7.1 -4.3,-2.2 -11.8,-6.4 -16.8,-9.5 -6.2,-3.7 -9.2,-5.1 -9.8,-4.3 -0.4,0.7 -0.7,4.8 -0.6,9.2 0.2,25.3 -0.3,42.9 -1.2,40.5 -3.5,-8.7 -5.3,-21 -5.5,-38 l -0.2,-17.5 -9.9,-5.7 c -8,-4.6 -25.8,-12.8 -27.8,-12.8 -0.3,0 -0.5,3 -0.5,6.8 0,3.7 -0.5,10.8 -1.1,15.7 -1.6,13.7 -1.3,19.1 1.5,31 6.3,26.3 22,48.3 43,60 20.8,11.6 41.2,14.1 65.4,8 z m -128.6,-108 c 4.9,-9 3.2,-23.3 -5.2,-44.6 -5.3,-13.5 -9.7,-21.3 -17.8,-32.4 -7.2,-9.8 -19.6,-25 -21.2,-26 -1,-0.6 -15,8.3 -15,9.6 0,0.5 3,4.5 6.7,9.1 10,12.3 22.6,31.5 27.6,42 5.9,12.3 8.4,20.2 10.6,33.7 1.1,6.1 2.5,11.9 3.2,12.7 0.8,1 2.5,1.4 4.8,1.2 3.2,-0.3 3.9,-0.9 6.3,-5.3 z"
         id="path10839" />
      <path
         d="m 377.9,692.3 c -6.9,-5.7 -11.6,-12 -16.4,-21.8 -15.8,-32.3 -12.8,-77.7 7.4,-112.6 7.9,-13.6 16.4,-24.7 33.7,-43.9 20.3,-22.6 27.3,-31.8 32.9,-43.5 5.3,-11 6.9,-17.5 6.9,-28.1 0.1,-6.3 0.3,-7.8 1.2,-6.5 2.5,3.5 4.4,11.5 4.4,18.4 -0.1,20.3 -9.8,38.8 -37.6,71.4 -29.1,34.1 -38.9,51.7 -44,78.8 -2.2,11.7 -2.2,31.9 0,44.5 2.1,11.6 7.2,27.1 12.5,38.1 2.3,4.6 3.9,8.4 3.8,8.5 -0.2,0.2 -2.3,-1.3 -4.8,-3.3 z"
         id="path10841" />
      <path
         d="m 687.2,633.8 c -2.7,-3.4 -1.2,-7.8 2.7,-7.8 3.2,0 5.1,1.6 5.1,4.5 0,1.2 -0.5,2.6 -1.2,3.3 -1.6,1.6 -5.3,1.5 -6.6,0 z"
         id="path10843" />
      <path
         d="m 662.5,625.8 c -1.4,-1.1 -2.5,-3 -2.5,-4.4 0,-2.8 3.2,-6.4 5.8,-6.4 3.1,0 6.2,2.9 6.2,5.9 0,5.6 -5.2,8.3 -9.5,4.9 z"
         id="path10845" />
      <path
         d="m 675.9,610.9 c -1.45199,-1.25803 -1.9,-3 -1.7,-5.2 0.6,-5.9 8.6,-7.2 10.3,-1.6 1.1,3.2 -0.2,6.4 -3,7.7 -1.22238,0.41794 -1.89489,0.59573 -2.66009,0.51994 -0.79742,-0.079 -1.52992,-0.19831 -2.93991,-1.41994 z"
         id="path10847"
         sodipodi:nodetypes="scccss" />
      <path
         d="m 657,594 c -2.5,-2.5 -2.5,-4.2 -0.1,-6.4 4.6,-4.1 10.7,1.8 6.6,6.4 -2.3,2.5 -4,2.5 -6.5,0 z"
         id="path10849" />
    </g>
  </g>
</svg>
